<svg width="100" height="100" viewBox="0 0 100 100" fill="none" xmlns="http://www.w3.org/2000/svg">
<mask id="mask0_20028_64260" style="mask-type:luminance" maskUnits="userSpaceOnUse" x="0" y="0" width="100" height="100">
<path d="M50 100C77.6142 100 100 77.6142 100 50C100 22.3858 77.6142 0 50 0C22.3858 0 0 22.3858 0 50C0 77.6142 22.3858 100 50 100Z" fill="white"/>
</mask>
<g mask="url(#mask0_20028_64260)">
<path d="M3.07894 80.4479C-1.79243 80.89 -5.43315 85.956 -5.43315 85.956C-5.43315 85.956 -6.92373 87.8546 -8.33685 89.5242C-8.73744 89.9975 -8.88566 90.7099 -8.48135 92.9765C-7.84958 96.5182 -5.29614 96.3878 -5.29614 96.3878C-5.29614 96.3878 -5.49818 96.7011 -4.66982 99.846C-3.67322 103.63 -2.02225 103.203 0.382437 103.223C0.589805 104.4 0.888356 105.161 1.26425 106.258C1.80692 107.842 4.13184 107.494 6.57421 107.453C12.2769 107.355 14.5056 103.093 14.3537 101.188C14.3321 100.916 15.1777 98.9606 15.4594 97.8974C16.9672 92.2088 7.9846 80.0028 3.07894 80.4479Z" fill="#F6F6F6"/>
<path d="M27.1719 69.9751C27.1719 69.9751 18.581 74.9122 15.1776 76.1718C12.0074 77.3452 6.02313 78.3151 2.15571 79.974C-2.9925 82.1822 -3.90915 83.8082 -3.6353 84.8956C-3.26034 86.3845 2.75026 84.2036 2.75026 84.2036C2.75026 84.2036 10.5761 85.6149 11.1962 88.7611C11.1962 88.7611 17.1706 95.1914 17.6953 99.5356C17.6953 99.5356 32.855 90.7419 37.4474 76.8708L27.1719 69.9751Z" fill="#F6F6F6"/>
<path d="M37.4484 76.8699C26.0751 82.5367 23.4473 95.4534 13.6756 103.626C13.6711 103.63 13.6666 103.63 13.6666 103.63C13.9904 102.871 13.8782 101.958 13.717 101.107C13.38 99.3282 13.7467 98.0403 12.1008 98.4867C12.6414 97.93 11.9864 96.1569 11.8654 95.2251C11.7037 93.9813 11.1858 92.6836 10.278 92.5747C9.20675 92.4461 8.37085 92.6724 8.37085 92.6724C9.72064 91.385 9.45343 90.5195 9.25122 89.416C8.85679 87.2638 8.63401 87.0197 6.84628 86.7656C5.18614 86.5295 4.10314 84.922 3.50122 84.7793C4.40084 84.8246 6.33371 85.5096 8.82025 85.5239C8.96293 85.5239 9.10113 85.5194 9.2438 85.5194C9.92153 85.5016 10.6349 85.4303 11.3794 85.2876C13.2877 84.922 12.8399 85.5064 14.2701 83.3682C18.3721 77.2358 30.2579 73.3872 30.2579 73.3872L37.4484 76.8699Z" fill="#2E3240"/>
<path d="M9.40244 91.3843C9.40244 91.3843 7.83967 94.4193 0.853516 95.7638C0.853516 95.7638 7.00015 95.9043 9.72063 92.5366L9.40244 91.3843Z" fill="#CDBBC9"/>
<path d="M11.7654 98.7238C11.7654 98.7238 10.6851 101.941 4.38965 102.879C4.38965 102.879 11.0663 103.067 13.22 98.3833L11.7654 98.7238Z" fill="#CDBBC9"/>
<path d="M37.449 76.8694C26.8243 82.1617 23.8327 93.7806 15.5175 101.953C14.9334 102.528 14.3181 103.086 13.6761 103.625C13.6717 103.629 13.6672 103.629 13.6672 103.629C13.9927 102.872 13.8768 101.957 13.7162 101.106C13.3819 99.327 13.6552 98.0563 12.01 98.5022C12.6687 97.9162 11.9863 96.157 11.8659 95.2251C11.7054 93.9812 11.1838 92.6838 10.2787 92.5723C9.20865 92.4475 8.37044 92.6704 8.37044 92.6704C9.72138 91.3863 9.45388 90.5214 9.25324 89.4157C9.1908 89.0679 9.12837 88.7692 9.06597 88.5106V88.5061C9.06597 88.5016 9.06597 88.4972 9.06154 88.4927C9.01695 88.3144 8.97236 88.1539 8.9233 88.0156V88.0112C8.67807 87.329 8.33923 87.066 7.60358 86.901C7.38957 86.852 7.13987 86.8118 6.84562 86.7673C6.73416 86.7494 6.6227 86.7271 6.51568 86.6959C5.03991 86.317 4.06351 84.9125 3.50171 84.7788C4.29532 84.8189 5.89149 85.3584 7.9647 85.4921C8.2411 85.51 8.52649 85.5234 8.82074 85.5234C8.96342 85.5234 9.10162 85.5189 9.24429 85.5189C9.66785 85.51 10.1003 85.4743 10.5506 85.4163C10.8226 85.3851 11.099 85.3406 11.3799 85.287C13.2882 84.9214 12.8379 85.5055 14.269 83.3699C18.3709 77.2349 30.2573 73.3872 30.2573 73.3872L37.449 76.8694Z" fill="#CDBBC9"/>
<path d="M66.737 13.9029C61.822 11.5531 56.2854 10.2354 50.4233 10.2354C40.1419 10.2354 30.8477 14.2988 24.1639 20.8523C24.159 20.8573 24.1541 20.8623 24.1492 20.8724C17.7258 27.1654 13.7225 35.7732 13.5771 45.2779C14.4737 49.4716 16.1073 53.3696 18.3268 56.8069C18.733 57.4333 19.1538 58.0392 19.5943 58.6357C21.4683 61.1606 23.6779 63.3952 26.1533 65.2593C26.4235 65.4649 26.6941 65.6601 26.9696 65.8554C27 65.8755 27.0298 65.9005 27.0601 65.9205C27.3959 66.1559 27.7316 66.3864 28.0771 66.6071C28.5431 66.9028 29.0139 67.1881 29.4949 67.4587C29.7406 67.6041 29.9912 67.7396 30.2466 67.8747C32.3511 69.0018 34.5906 69.889 36.9353 70.4901C38.2733 70.8356 39.6461 71.0915 41.0389 71.2516C41.1442 71.2618 41.2445 71.2765 41.3497 71.2819C42.3667 71.392 43.3988 71.4468 44.4408 71.4468C46.6054 71.4468 48.7196 71.2168 50.759 70.7705C52.5379 70.3897 54.2665 69.8489 55.9197 69.1574C57.4579 68.5261 58.931 67.7695 60.339 66.8978C64.3271 64.4273 67.7642 61.0607 70.3947 57.052C70.4848 56.9121 70.5802 56.7716 70.6604 56.6312C70.8053 56.4207 70.936 56.2054 71.0608 55.99C71.5923 55.1233 72.0832 54.2264 72.5339 53.3045C73.2705 51.8063 73.8969 50.2431 74.4181 48.6248C75.5001 45.2227 76.0914 41.5802 76.0914 37.7924C76.0914 28.453 72.5139 20.0005 66.737 13.9029ZM33.904 16.9543C37.0655 15.6867 40.1972 16.0875 40.9088 17.8511C41.615 19.6148 39.6261 22.0698 36.4646 23.3375C33.303 24.6051 30.1664 24.2093 29.4598 22.4457C28.7535 20.682 30.7425 18.2269 33.904 16.9543Z" fill="#F6F6F6"/>
<path d="M36.4668 23.3371C33.3053 24.6047 30.1687 24.2089 29.462 22.4453C28.7558 20.6816 30.7447 18.2265 33.9062 16.9539C37.0678 15.6863 40.1995 16.0871 40.9106 17.8507C41.6173 19.6144 39.6283 22.0694 36.4668 23.3371Z" fill="white"/>
<path d="M28.0787 66.6061C27.3823 67.1723 26.7162 67.7635 26.0697 68.3747C25.3282 69.0712 24.6167 69.7925 23.9403 70.534C23.6946 70.2937 23.4494 70.048 23.2135 69.7926C23.0334 69.6071 22.8582 69.4216 22.6879 69.2313C17.0157 62.9786 13.5737 54.7767 13.5737 45.8079C13.5737 45.6326 13.5737 45.4522 13.5786 45.2769C14.4757 49.4705 16.1088 53.3686 18.3288 56.8058C20.4479 60.0926 23.0985 62.9586 26.1548 65.2583C26.4254 65.4638 26.6961 65.664 26.9716 65.8544C27.0015 65.8744 27.0318 65.8994 27.0617 65.9195C27.3974 66.1549 27.7332 66.3854 28.0787 66.6061Z" fill="#E9E3E9"/>
<path d="M79.3419 72.8099C78.3949 77.8752 74.742 82.249 69.5265 85.1252C69.2157 85.3004 68.9 85.4659 68.5795 85.6264C68.1488 85.8417 67.7025 86.0472 67.2517 86.2426H67.2468C66.1843 86.7036 65.0773 87.1093 63.9248 87.4499C63.2484 87.6506 62.5569 87.8258 61.8507 87.9863C59.3953 88.5271 56.7751 88.7978 54.0594 88.7376C52.301 88.6975 50.592 88.5271 48.9388 88.2418C47.175 87.931 45.4865 87.4852 43.8882 86.914C43.8481 86.8989 43.8084 86.8891 43.7732 86.8739C40.0752 85.5412 36.879 83.5621 34.4339 81.1371C33.8075 80.5156 33.2314 79.8642 32.7053 79.1878C32.2742 78.627 31.8787 78.0505 31.5229 77.4544C30.9063 76.4271 30.4056 75.3499 30.0445 74.2375C30.0097 74.1426 29.9744 74.0423 29.9446 73.9419C29.6891 73.0904 29.5037 72.2182 29.4033 71.3314C30.4252 72.1331 31.4926 72.8848 32.6001 73.5714C32.7851 73.6913 32.9759 73.8068 33.1663 73.9218C33.3112 74.1376 33.4668 74.3579 33.622 74.5683C33.7624 74.7587 33.9028 74.9491 34.0531 75.1346C34.0932 75.1894 34.1329 75.2398 34.1833 75.2946C34.2885 75.435 34.3986 75.5706 34.5141 75.7057C34.5993 75.806 34.6844 75.9112 34.7745 76.0111C34.8896 76.1466 35.005 76.2817 35.1254 76.4119C35.1504 76.4373 35.1753 76.4672 35.2003 76.4921C35.3755 76.6879 35.561 76.8832 35.7465 77.0735C35.887 77.2189 36.027 77.3589 36.1723 77.4993C36.2726 77.5997 36.3729 77.7 36.4781 77.7901C36.6436 77.9555 36.8139 78.1106 36.9891 78.2609C37.1746 78.4312 37.3649 78.5917 37.5602 78.7522C37.6703 78.8472 37.7755 78.9372 37.891 79.0224C38.0765 79.1726 38.2615 79.318 38.447 79.4584C38.7127 79.659 38.978 79.8543 39.2536 80.0447C39.5242 80.2351 39.8051 80.4205 40.0855 80.6007C40.6468 80.9613 41.2278 81.3024 41.8239 81.6176C42.0495 81.738 42.28 81.8584 42.5154 81.9685C42.6206 82.0238 42.7307 82.0738 42.836 82.1242C43.1066 82.2544 43.3772 82.3797 43.6528 82.4947C43.9636 82.6302 44.2792 82.7604 44.5998 82.8803C44.8352 82.9708 45.0759 83.0609 45.3163 83.1411C45.3211 83.1411 45.3314 83.1509 45.3412 83.1509C45.5267 83.2214 45.7122 83.2811 45.8976 83.3364C46.068 83.3966 46.2383 83.4466 46.4086 83.4969C46.7492 83.6022 47.0947 83.6971 47.4358 83.7823C47.5411 83.8126 47.6463 83.8376 47.7515 83.8625C47.8568 83.8924 47.9619 83.9124 48.0672 83.9379C48.2375 83.9776 48.4078 84.0128 48.5781 84.048C48.6231 84.0578 48.6633 84.0681 48.7034 84.073C48.954 84.1282 49.2095 84.1733 49.46 84.2134C49.6852 84.2535 49.9157 84.2932 50.1413 84.3236C50.1711 84.3285 50.1966 84.3334 50.2215 84.3334H50.2313C50.5523 84.3837 50.8778 84.4239 51.2033 84.4538C51.379 84.4738 51.5591 84.4939 51.7397 84.5037C52.0955 84.534 52.4561 84.559 52.8168 84.5741H52.8721C53.2176 84.5889 53.5632 84.5942 53.9092 84.5942C54.1945 84.5942 54.4803 84.5888 54.7607 84.579C54.8361 84.579 54.911 84.5741 54.9863 84.5692C55.4973 84.5541 56.0033 84.5139 56.5045 84.464C56.5896 84.464 56.6748 84.4488 56.76 84.4386C56.9303 84.4239 57.0957 84.4038 57.2562 84.3784H57.2762C57.3311 84.3735 57.3815 84.3636 57.4363 84.3587C57.6418 84.3284 57.8474 84.2986 58.0476 84.2633C58.1377 84.2535 58.2331 84.2384 58.3231 84.2183C58.4636 84.1983 58.604 84.1679 58.744 84.143C58.8845 84.1229 59.0249 84.0931 59.16 84.0632C59.2202 84.048 59.2804 84.0377 59.3401 84.0279C59.5207 83.9927 59.7012 83.9526 59.8765 83.9075C60.0869 83.8625 60.2973 83.8073 60.5078 83.7524C60.7182 83.6971 60.9238 83.6423 61.1289 83.5821C61.5498 83.4617 61.9608 83.3315 62.3715 83.1862C62.4968 83.1461 62.622 83.101 62.7473 83.056C62.9377 82.9909 63.1334 82.9156 63.3185 82.8406C63.3938 82.8152 63.4638 82.7854 63.5338 82.755C64.0349 82.5598 64.5262 82.3444 65.0069 82.1139C65.1023 82.0689 65.1972 82.0238 65.2926 81.9734C65.4728 81.8834 65.6533 81.7933 65.8285 81.7033C66.014 81.6079 66.1995 81.5075 66.3801 81.4076C66.4501 81.3675 66.5152 81.3323 66.5852 81.2922C66.7858 81.1771 66.986 81.0617 67.1817 80.9413C67.3521 80.8414 67.517 80.7411 67.6775 80.631C67.7475 80.5958 67.813 80.5507 67.8831 80.5004C67.9531 80.4607 68.0235 80.4103 68.0886 80.3653C68.1135 80.3555 68.1434 80.3354 68.1684 80.3153C68.2839 80.24 68.4043 80.1597 68.5193 80.0746C68.5394 80.0648 68.5545 80.0545 68.5746 80.0345C68.6647 79.9796 68.7547 79.9145 68.8452 79.8441C68.9955 79.7389 69.1506 79.6238 69.3009 79.5084C69.4164 79.4183 69.5314 79.3331 69.6469 79.2431C69.9826 78.9823 70.3032 78.717 70.6238 78.4365C70.659 78.4062 70.6987 78.3763 70.7339 78.3411C70.9042 78.1909 71.0745 78.0357 71.2449 77.8752C71.3001 77.8253 71.3603 77.7748 71.4156 77.7147C71.4504 77.6848 71.4856 77.6545 71.5155 77.6197C71.7259 77.4191 71.9266 77.2189 72.1268 77.0084C72.3773 76.7529 72.6181 76.4921 72.8486 76.2268C73.0591 75.9963 73.2593 75.7556 73.4497 75.5152C73.5299 75.4251 73.6048 75.3297 73.6753 75.2348C73.7653 75.1295 73.8456 75.019 73.9258 74.9138C73.986 74.8389 74.0457 74.7586 74.1059 74.6784C74.1813 74.578 74.2513 74.4831 74.3164 74.3877C74.3966 74.2775 74.4769 74.1674 74.5567 74.0524C75.1831 73.1451 75.7444 72.1932 76.2353 71.2012H76.2402C77.2826 71.6925 78.3196 72.2285 79.3419 72.8099Z" fill="#E9E3E9"/>
<path d="M87.282 45.8099C87.282 50.229 86.4456 54.4628 84.9172 58.3657C84.4762 59.508 83.9702 60.6253 83.404 61.703C83.3291 61.8581 83.2488 62.0084 83.1636 62.1635C82.0914 64.1627 80.8287 66.0518 79.3958 67.8004C78.4238 68.998 77.3716 70.13 76.2445 71.1925C76.2445 71.1925 76.2427 71.1943 76.2391 71.1974C76.2391 71.1974 76.2391 71.2023 76.2342 71.2023C75.9988 71.3877 75.7634 71.5732 75.528 71.7484C75.1923 72.0039 74.8512 72.2496 74.5056 72.4899C74.2702 72.6553 74.0348 72.8207 73.7941 72.9812C73.1881 73.3869 72.5666 73.7779 71.9353 74.1435C71.7449 74.2586 71.5545 74.3691 71.3593 74.4744C71.0186 74.6696 70.6726 74.8551 70.3271 75.0352C70.0364 75.1909 69.7408 75.3411 69.4452 75.4811C69.1594 75.6216 68.879 75.7566 68.5883 75.8873C68.3127 76.0126 68.0372 76.1378 67.7568 76.2578C67.4959 76.3733 67.2355 76.4785 66.9703 76.5837C66.8396 76.6386 66.7094 76.689 66.5743 76.7389C66.404 76.8089 66.2337 76.874 66.063 76.9342C65.7776 77.0394 65.4919 77.1446 65.2016 77.2449C64.9109 77.3452 64.6202 77.4402 64.3295 77.5356C64.0388 77.6257 63.7432 77.7157 63.4476 77.8009C63.0321 77.9262 62.6112 78.0417 62.1903 78.1469C61.8145 78.2419 61.4337 78.3324 61.0529 78.4175C60.9526 78.4425 60.8474 78.4625 60.7421 78.4875C60.5616 78.5228 60.3766 78.5629 60.1911 78.5977C60.0957 78.6177 60.0007 78.6378 59.9004 78.6529C59.5598 78.7181 59.2143 78.7782 58.8683 78.8331C58.7982 78.8482 58.7278 78.8585 58.6578 78.8683C58.3324 78.9182 58.0015 78.9637 57.6707 79.0087C57.4402 79.0386 57.2097 79.0689 56.9792 79.089C56.7491 79.1188 56.5186 79.1389 56.2881 79.159C55.7517 79.2089 55.2109 79.2491 54.6648 79.274C54.3892 79.2892 54.1132 79.2994 53.8377 79.3043C53.6875 79.3141 53.5421 79.3141 53.3919 79.3141C53.1716 79.3244 52.9563 79.3244 52.7356 79.3244C52.3949 79.3244 52.0543 79.319 51.7186 79.3092C51.6133 79.3092 51.513 79.3044 51.4127 79.2995C51.1822 79.2941 50.957 79.2843 50.7314 79.2691C50.7163 79.274 50.7114 79.274 50.6962 79.2691H50.6561C50.521 79.2593 50.3908 79.254 50.2553 79.2442C49.6944 79.2089 49.1379 79.1639 48.5869 79.0988C48.3764 79.0788 48.166 79.0538 47.9555 79.0235C47.9257 79.0235 47.9007 79.0235 47.8753 79.0137C47.7603 79.0039 47.6501 78.9887 47.54 78.9687C47.5146 78.9687 47.4897 78.9687 47.4647 78.9584C47.2244 78.9285 46.9836 78.8933 46.7433 78.8532C46.5627 78.8282 46.3826 78.7983 46.202 78.768C46.0567 78.7431 45.9113 78.7181 45.766 78.6882C45.581 78.6579 45.4004 78.6227 45.215 78.583C45.0799 78.5575 44.9443 78.5326 44.8043 78.4978C44.799 78.5027 44.7941 78.4974 44.7843 78.4925C44.4686 78.4274 44.1529 78.3574 43.8373 78.282C43.5216 78.2071 43.2109 78.1269 42.9001 78.0466C42.6246 77.9766 42.3544 77.9013 42.0838 77.821C41.6727 77.7011 41.2719 77.5758 40.871 77.4456C40.5803 77.3502 40.2901 77.2552 40.0043 77.15C39.7337 77.0546 39.4684 76.9596 39.2026 76.8544C38.9423 76.7541 38.6814 76.6538 38.426 76.5485C38.3859 76.5334 38.3408 76.5187 38.3007 76.4932C38.2909 76.4986 38.2855 76.4932 38.2757 76.4834C38.0051 76.3733 37.7345 76.2578 37.4643 76.1379H37.4589C37.3336 76.0875 37.2084 76.0327 37.0884 75.9725C36.9631 75.9172 36.8378 75.8619 36.7125 75.8022C36.6974 75.8022 36.6876 75.7919 36.6773 75.787C36.437 75.6769 36.2065 75.5663 35.9711 75.4513C35.6501 75.2961 35.3344 75.1356 35.0187 74.9702C34.7035 74.8048 34.3928 74.6345 34.0869 74.4593C33.7766 74.284 33.4707 74.1084 33.1703 73.9229C31.8572 73.1364 30.6049 72.2696 29.4073 71.3329C28.2351 70.4158 27.1228 69.4238 26.0754 68.3765C26.7219 67.7652 27.388 67.174 28.0845 66.6078C28.5504 66.9034 29.0216 67.1892 29.5027 67.4599C29.748 67.6052 29.9985 67.7403 30.254 67.8754C32.3584 69.003 34.598 69.8897 36.9431 70.4912C38.2807 70.8367 39.6535 71.0922 41.0463 71.2527C42.1636 71.3829 43.301 71.448 44.4486 71.448C48.497 71.448 52.3701 70.636 55.9275 69.1581C57.4657 68.5267 58.9384 67.7701 60.3464 66.8985C64.3346 64.4285 67.7721 61.0614 70.4022 57.0532C70.4927 56.9127 70.5876 56.7727 70.6679 56.6323C70.8132 56.4219 70.9434 56.2065 71.0687 55.9912C71.5997 55.124 72.091 54.2273 72.5418 53.3054C73.2783 51.8073 73.9048 50.2441 74.4255 48.6257C75.508 45.2237 76.0992 41.5811 76.0992 37.7933C76.0992 28.454 72.5217 20.0014 66.7448 13.9038C78.9201 19.7108 87.2874 31.8159 87.2874 45.8099H87.282Z" fill="#E9E3E9"/>
<path d="M94.6237 74.6032C94.5537 76.6126 94.1779 82.9705 92.0935 82.9054C90.3248 80.9766 88.3608 79.1428 86.2216 77.4392C85.2844 76.6929 84.3325 75.9862 83.3655 75.3196C85.2795 74.2977 87.4691 73.7217 89.7889 73.7217C91.4925 73.7217 93.1256 74.0374 94.6291 74.6031L94.6237 74.6032Z" fill="#F6F6F6"/>
<path d="M98.305 90.9593C98.305 91.0646 98.305 91.1698 98.3001 91.2701C96.6014 88.3591 94.5273 85.5431 92.092 82.9077C94.1764 82.9728 94.5523 76.6145 94.6227 74.6055C94.6276 74.6055 94.6325 74.6104 94.6374 74.6104C97.0026 79.2852 98.3001 84.7567 98.3001 90.9593H98.305Z" fill="#E9E3E9"/>
<path d="M76.2329 71.2012C72.6808 78.4512 65.2302 83.4064 57.274 84.3783C55.8209 84.5638 54.3376 84.6343 52.8698 84.5741C52.8698 84.5741 52.8645 84.5692 52.8596 84.5741C45.1187 84.3084 37.5227 80.3701 33.1641 73.9218C34.7972 74.9138 36.5307 75.7757 38.2945 76.4921C38.3346 76.5171 38.3845 76.5372 38.4247 76.5474C40.4841 77.3892 42.6286 78.0455 44.803 78.4962C55.6756 80.836 67.5299 78.1708 76.2329 71.2012Z" fill="#CDBBC9"/>
<path d="M98.2915 91.2667C96.5928 88.3557 94.5187 85.5402 92.0834 82.9048C90.3152 80.9756 88.3508 79.1418 86.2115 77.4382C85.2744 76.6918 84.3224 75.9852 83.3555 75.3191C82.038 74.4069 80.695 73.5704 79.3321 72.8089C78.4602 77.4725 75.2912 81.5469 70.7243 84.4088C69.3701 85.153 65.5481 87.1016 60.8465 88.188C58.6843 88.5924 56.406 88.7887 54.0558 88.737C52.2974 88.6969 50.5889 88.5265 48.9352 88.2408C47.1719 87.93 45.483 87.4842 43.885 86.913C43.8449 86.8979 43.8048 86.888 43.7695 86.8729C40.0721 85.5403 36.8753 83.5611 34.4303 81.1361C33.8038 80.5146 33.2278 79.8632 32.7017 79.1869C32.271 78.626 31.8751 78.0495 31.5193 77.4534C30.9031 76.4262 30.402 75.349 30.0413 74.2366C30.0061 74.1416 29.9708 74.0413 29.9409 73.9409C29.6855 73.0894 29.5 72.2177 29.3997 71.3309C28.2275 70.4138 27.1151 69.4218 26.0678 68.3745C25.3264 69.0709 24.6148 69.7927 23.9384 70.5342C23.8435 70.6345 23.753 70.7398 23.658 70.8396C23.5127 71.005 23.3624 71.1754 23.222 71.3457C23.0066 71.5962 22.7962 71.8468 22.5857 72.1023C22.3851 72.3479 22.1898 72.5985 21.9945 72.8491C21.8193 73.0743 21.6436 73.3047 21.4733 73.5352C21.3431 73.7109 21.2178 73.891 21.0926 74.0716C20.4212 74.9823 19.422 76.6539 18.883 77.6487L18.8732 77.6589C18.2169 78.8913 17.6404 80.1642 17.1597 81.467C17.1542 81.4901 17.1491 81.514 17.1437 81.5372C17.1492 81.5138 17.1528 81.4899 17.1584 81.4665C17.1334 81.5267 17.1134 81.5918 17.0884 81.652C17.0849 81.6587 17.0835 81.6622 17.0835 81.6622C15.956 84.7587 15.3496 88.0254 15.3496 91.4023C15.3496 93.9374 15.6554 96.4075 16.2417 98.7874C19.4033 111.679 30.6664 121.996 45.2315 125.598C48.8589 126.495 52.6973 126.976 56.6605 126.976C76.3159 126.976 93.0104 114.826 97.2544 98.8878C97.3093 98.6876 97.3597 98.487 97.4096 98.2868C97.6151 97.4651 97.7805 96.6282 97.9156 95.7865C98.156 94.3035 98.2866 92.7952 98.2964 91.2668L98.2915 91.2667Z" fill="#E9E3E9"/>
<path d="M70.177 84.7509C70.1341 86.9773 71.4128 99.0925 64.5941 106.981C57.9304 114.691 44.8346 117.656 31.3647 111.89C25.3228 109.303 18.3753 100.273 16.8646 91.7029C16.8199 91.6618 16.4736 89.5185 16.4736 87.2938C16.4736 82.7949 17.3115 80.5923 18.8737 77.659L18.8835 77.6487C20.7352 74.2315 22.9695 71.2852 26.0684 68.3745C27.1157 69.4218 28.2281 70.4139 29.4002 71.331C30.4832 80.9041 40.164 87.2431 50.9456 88.4983C55.2547 89 62.9208 88.7449 70.177 84.7509Z" fill="#F6F6F6"/>
<path d="M67.252 86.2439C67.252 86.2439 70.058 92.5224 63.0235 97.3022C63.0235 97.3022 62.6777 94.3466 61.534 93.9766C60.2115 93.5488 57.7922 93.7957 54.8353 94.174C53.0645 94.4005 42.3727 95.9621 41.3108 97.0786C40.5386 97.8904 40.6085 98.62 40.846 101.499C41.0135 103.529 40.9319 103.951 41.4745 104.825C42.3797 106.283 43.8698 106.849 45.359 107.544C47.2624 108.433 49.1687 108.96 50.1887 109.439C50.1887 109.439 47.483 109.668 42.6414 108.518C42.6414 108.518 42.6933 109.529 43.36 111.247C44.068 113.072 44.2986 113.353 44.67 113.626C45.3279 114.111 46.2351 114.149 47.4014 114.352C48.5677 114.554 49.9338 114.624 51.809 114.804C51.809 114.804 48.7356 115.468 45.9776 115.607C45.9776 115.607 46.1514 116.12 46.5935 116.757C47.2107 117.647 47.2652 117.919 49.0261 118.119C51.5121 118.401 55.3356 119.006 61.3828 117.967C80.4378 114.693 86.8314 95.9101 75.4102 80.5063C75.4102 80.5063 73.9663 81.6996 71.5823 83.5655C68.8412 85.7109 67.252 86.2439 67.252 86.2439Z" fill="#F6F6F6"/>
<path d="M75.6286 80.2568C75.6286 80.2568 71.0344 83.9833 70.9316 84.0592C71.6131 85.7386 72.0265 92.3041 69.2967 98.361C67.6397 102.037 67.0272 102.147 62.1506 103.229C60.3625 103.626 54.6981 104.868 51.1846 105.356C52.2956 106.514 53.5086 109.779 53.557 114.378C53.5714 115.745 53.4092 117.147 53.234 118.528C55.5142 118.697 58.3741 118.51 61.3825 117.966C68.0707 116.757 73.6996 114.076 77.5887 108.275C82.4125 101.081 83.1108 90.9395 75.6286 80.2568Z" fill="#E9E3E9"/>
<path d="M51.2921 64.019C48.7329 63.5197 46.6597 61.0318 46.6597 58.4771V54.3485C46.6597 51.7893 48.7329 50.1441 51.2921 50.6702C53.8513 51.1963 55.929 53.6887 55.929 56.2256V60.323C55.929 62.8643 53.8557 64.5184 51.2921 64.0146V64.019Z" fill="#302352"/>
<path d="M21.5252 52.7519C19.189 52.2525 17.303 49.9519 17.303 47.6158V42.6713C17.303 40.335 19.1934 38.8726 21.5252 39.4032C23.8615 39.9293 25.7474 42.2388 25.7474 44.5528V49.4615C25.7474 51.7755 23.857 53.2512 21.5252 52.7475V52.7519Z" fill="#302352"/>
<path d="M27.955 45.5505L20.6876 35.6034C20.3265 35.1086 19.6309 34.9971 19.1316 35.3627L19.038 35.4296C18.5431 35.7907 18.4317 36.4862 18.7973 36.9856L26.0691 46.9326C26.4303 47.4275 27.1258 47.5389 27.6251 47.1734L27.7187 47.1065C28.2136 46.7453 28.3251 46.0498 27.9595 45.5505L27.955 45.5505Z" fill="#302352"/>
<path d="M44.6876 55.4821L56.8148 48.9682C57.381 48.665 57.595 47.9561 57.2918 47.3853C56.9886 46.8146 56.2797 46.6006 55.7091 46.9038L43.5819 53.4178C43.0156 53.721 42.8016 54.4299 43.1048 55.0006C43.408 55.5713 44.1169 55.7853 44.6876 55.4821Z" fill="#302352"/>
<path d="M70.0945 83.8928L68.5309 82.7862C68.5309 82.7862 52.5967 89.1192 42.0044 86.6707C41.4854 86.4178 40.9113 86.2255 40.2678 86.123C40.2066 86.1133 40.1484 86.1125 40.0879 86.1045C36.1301 84.6547 33.2489 81.6354 32.8334 76.0557L31.6072 76.8085C31.6072 76.8085 30.7196 84.63 36.2908 86.8387C31.4644 89.6701 30.7869 99.1093 37.8684 99.9825C44.0709 100.747 46.6522 94.0533 44.7896 89.6688L44.9057 89.7073C44.9057 89.7073 58.8576 91.2421 70.0945 83.8928Z" fill="#E9E3E9"/>
<path d="M35.6916 73.1579C35.6916 73.1579 31.8421 79.6951 38.6374 84.2923L36.0943 85.0051C36.0943 85.0051 29.9402 82.5656 33.1778 72.5137L35.6916 73.1579Z" fill="#FFB419"/>
<path d="M41.7361 85.9388C41.7361 85.9388 51.343 87.2866 59.0005 85.2787C66.6581 83.2709 75.4877 77.7562 76.2752 71.1841L76.9488 70.5465C76.9488 70.5465 78.6582 70.2305 77.9645 72.9357C77.2708 75.6409 74.1758 81.7435 63.3287 85.9068C53.1004 89.8326 42.0939 88.0786 42.0939 88.0786L41.7361 85.9388Z" fill="#FFB419"/>
<path d="M40.8207 84.5425C41.4044 84.879 42.113 85.363 42.9365 85.9867C47.0799 89.1244 44.9065 98.602 37.6849 98.1165C37.3473 98.0749 35.5019 97.6013 35.2021 97.5128C32.4305 96.6945 33.0594 83.3059 40.8207 84.5425Z" fill="#F26638"/>
<path d="M39.0286 83.9761C46.9217 85.2336 45.351 98.911 36.6292 97.8355C27.9074 96.7601 30.9548 82.6898 39.0286 83.9761Z" fill="#FFC44D"/>
<path d="M37.4656 96.5437C37.206 96.5437 36.9369 96.5267 36.6645 96.493C32.564 95.9873 32.47 92.2873 32.5391 91.1656C32.7225 88.1823 34.77 85.0962 37.8798 85.0962C38.1489 85.0962 38.4272 85.1191 38.7066 85.1636C41.7669 85.651 42.9302 88.473 42.726 91.0533C42.5097 93.7863 40.7991 96.5437 37.4656 96.5437Z" fill="#FFB419"/>
<path d="M33.1038 91.7968C33.2873 88.8135 35.3348 85.7274 38.4446 85.7274C38.7136 85.7274 38.9919 85.7503 39.2714 85.7948C40.276 85.9548 41.0724 86.3697 41.6868 86.9417C41.0298 86.0439 40.0516 85.3779 38.7062 85.1636C38.4268 85.1191 38.1485 85.0962 37.8794 85.0962C34.7696 85.0962 32.7221 88.1823 32.5387 91.1656C32.4899 91.9593 32.53 94.0398 34.0059 95.3702C33.0865 94.0846 33.0622 92.4732 33.1038 91.7968Z" fill="#FF9400"/>
<path d="M40.6862 89.8949C40.7961 89.4458 40.7121 89.0505 40.4346 88.7095C40.3209 88.5698 40.1642 88.452 39.9822 88.3472L40.2055 87.4535L39.1943 87.2519L39.0071 88.0016C39.0015 88.0005 38.9971 87.9987 38.9915 87.9976L38.2256 87.8483L38.4135 87.0962L37.4023 86.8945L37.2153 87.6435L35.8877 87.3788L35.6362 88.3861L36.0883 88.4762L35.1714 92.2228L34.7013 92.129L34.4497 93.1363L35.7772 93.401L35.5827 94.1799L36.5938 94.3815L36.7905 93.5942L37.5721 93.7466L37.3746 94.5372L38.3858 94.7388L38.6059 93.8576C38.9342 93.8501 39.224 93.795 39.4659 93.6813C39.9017 93.4764 40.18 93.1275 40.3007 92.6344C40.3826 92.3004 40.3765 92.0036 40.2823 91.7443C40.1882 91.4851 40.025 91.2695 39.7929 91.0981C39.7495 91.066 39.6945 91.0449 39.6472 91.0165C39.893 90.9408 40.1066 90.8164 40.2842 90.6386C40.4784 90.444 40.6124 90.1961 40.6862 89.8949ZM38.5908 88.9696C38.8965 89.0293 39.1178 89.13 39.2542 89.2714C39.3907 89.4127 39.4308 89.5983 39.3744 89.8283C39.318 90.0585 39.1946 90.2138 39.0039 90.2943C38.8131 90.3748 38.5647 90.3852 38.2589 90.3254L37.0072 90.0815L37.339 88.7257L38.5908 88.9696ZM39.0674 92.2477C39.0084 92.4889 38.8796 92.65 38.6802 92.7317C38.481 92.8134 38.2207 92.8229 37.8993 92.7602L36.422 92.4721L36.77 91.0507L38.2472 91.3387C38.5686 91.4013 38.8006 91.5069 38.9438 91.6554C39.0867 91.8037 39.1278 92.0012 39.0674 92.2477Z" fill="#F26638"/>
<path d="M47.9516 65.0356V69.3024C47.9516 69.7171 47.6751 70.0737 47.2783 70.1807L35.7842 74.1087L31.1296 75.6914L28.4678 76.601C26.778 77.1761 24.9277 77.0424 23.336 76.2309L10.9948 69.9444L9.83562 69.3559C9.51463 69.1909 9.33626 68.9011 9.30504 68.5845C9.29614 68.5488 9.29614 68.5132 9.29614 68.4775V64.2285L32.5964 70.9386H32.6008L43.1051 67.3093L47.6216 64.6476L47.9516 65.0399V65.0356Z" fill="#F26638"/>
<path d="M35.785 69.8696L28.4686 72.3619C26.7788 72.9371 24.9285 72.8033 23.3368 71.9963L9.8364 65.1213C9.14977 64.7735 9.11412 63.8105 9.76506 63.4048L17.5274 58.6074L35.785 69.8741V69.8696Z" fill="#FFC44D"/>
<path d="M47.452 64.2723C48.1966 64.6468 48.0807 65.748 47.2737 65.9576L28.4141 72.3778C28.2581 72.4091 28.0931 72.4269 27.9281 72.4269C27.567 72.4269 27.2326 72.3556 26.9205 72.2263L26.6619 72.097L12.7558 65.0079L12.408 64.8296C11.6545 64.3837 11.1462 63.5589 11.1462 62.6092V62.5646C11.2711 62.4487 11.4048 62.3506 11.543 62.2704L11.7169 62.1768L11.8016 62.1367L23.0773 55.168L24.5486 54.2584L24.8518 54.0979H24.8651C25.1505 53.9775 25.4537 53.9106 25.7791 53.9106C26.1046 53.9106 26.4033 53.9731 26.6798 54.089L26.9785 54.2405L47.4431 64.2722L47.452 64.2723Z" fill="#FFC44D"/>
<path d="M29.3736 72.0529L28.4686 72.3605C26.7788 72.9356 24.9285 72.8019 23.3368 71.9949L9.8364 65.1154C9.14977 64.7676 9.11412 63.8046 9.76506 63.3989L10.3625 63.0288C10.2867 63.4524 10.474 63.9116 10.9109 64.1345L25.1336 71.3796C26.4488 72.0529 27.9335 72.2803 29.3736 72.0529Z" fill="#FFD571"/>
<path d="M39.0887 60.175L19.0877 68.3074L12.5337 64.9813L32.4115 56.9033L39.0887 60.175Z" fill="#FFD571"/>
<path d="M24.1339 60.4651C24.7135 60.4651 25.1817 59.997 25.1817 59.4174C25.1817 58.8378 24.7135 58.3696 24.1339 58.3696C23.5543 58.3696 23.0862 58.8378 23.0862 59.4174C23.0862 59.997 23.5543 60.4651 24.1339 60.4651Z" fill="#F26638"/>
<path d="M30.7162 64.344C31.2958 64.344 31.7639 63.8759 31.7639 63.2963C31.7639 62.7167 31.2958 62.2485 30.7162 62.2485C30.1366 62.2485 29.6685 62.7167 29.6685 63.2963C29.6685 63.8759 30.1366 64.344 30.7162 64.344Z" fill="#F26638"/>
<g style="mix-blend-mode:multiply">
<path d="M13.4863 44.8702L13.8274 50.0001L15.2543 50.8253V52.3422L27.1641 57.9148L27.2204 55.4136L38.9272 61.2402V63.6523L58.1395 72.798V68.6556L63.4458 71.0231L63.585 64.9818L68.9776 67.2055L69.125 58.8614L72.2724 60.1043L83.4053 55.8555L83.4033 61.7023C83.4033 61.7023 86.4142 55.8104 86.6438 52.4212L85.7637 48.061L69.3938 53.8876L15.2898 36.269L13.4863 44.8702Z" fill="#CDBBC9"/>
</g>
<path d="M19.5618 26.524L18.4731 28.0501C18.4731 28.0501 59.3324 54.3302 86.2821 37.5311L85.7636 35.1096C85.7636 35.1096 46.3078 41.0558 19.5618 26.524Z" fill="#CDBBC9"/>
<path d="M67.9385 55.9109L72.2728 57.5039L72.6153 48.3651L9.2099 27.8896L9.0105 34.2527L11.1804 35.0502L11.0087 40.4935L13.3958 41.4608L13.2193 47.0145L16.2696 48.3663L16.1491 52.1222L25.4842 56.4942L25.6157 52.5082L29.2035 54.0981L29.4084 47.9495L32.4411 49.1785L32.6507 42.9414L37.3085 44.6533L37.0902 51.0624L40.4155 52.4099L40.1899 58.9669L44.4666 60.8621L44.3117 65.3121L57.6001 71.5357L57.7726 66.7588L62.9632 69.059L63.2342 61.6567L67.6592 63.4498L67.9385 55.9109Z" fill="#402487"/>
<path d="M72.6157 48.3653L88.2616 42.7891L87.8919 57.231L83.9525 58.8611L84.2793 52.8453L72.2732 57.5041L72.6157 48.3653Z" fill="#402487"/>
<path d="M59.9043 57.786L65.1631 59.7178V54.3517L59.9043 52.4199V57.786Z" fill="#7E60CC"/>
<path d="M54.6453 61.2196L59.904 63.1514V57.7853L54.6453 55.8535V61.2196Z" fill="#7E60CC"/>
<path d="M49.3865 64.6904L54.6453 66.6222V61.256L49.3865 59.3242V64.6904Z" fill="#7E60CC"/>
<path d="M26.7683 45.2311L30.7329 46.6875V42.642L26.7683 41.1855V45.2311Z" fill="#7E60CC"/>
<path d="M22.804 47.8199L26.7686 49.2763V45.2308L22.804 43.7744V47.8199Z" fill="#7E60CC"/>
<path d="M18.8394 50.4366L22.804 51.893V47.8475L18.8394 46.3911V50.4366Z" fill="#7E60CC"/>
<path d="M9.20996 27.8897L20.2761 25.3477L17.171 30.4606L9.20996 27.8897Z" fill="#1B0F38"/>
<path d="M88.2612 42.789V43.9366L72.5649 49.7128L9.20996 28.8912V27.8897L20.2761 25.3477L19.5623 26.523L11.2671 28.2918L72.6153 48.3651L88.2612 42.789Z" fill="#7E60CC"/>
<path d="M19.5623 26.5231C19.5623 26.5231 26.7688 31.1011 40.7326 35.6792C52.8117 39.6393 74.9433 44.0066 85.7642 35.1088C85.7642 35.1088 88.2613 26.315 80.2671 23.3186C80.2671 23.3186 71.5396 8.10693 52.016 8.10693C32.4925 8.10693 28.4404 16.5281 28.4404 16.5281C28.4404 16.5281 19.4512 17.3671 19.5623 26.5231Z" fill="#2E3240"/>
<path d="M78.4845 20.8013C73.0904 25.1031 66.6648 26.3652 58.7907 26.0282C42.8966 25.3479 33.3151 18.5211 29.6768 14.8828C28.7666 15.8518 28.4399 16.5284 28.4399 16.5284C28.4399 16.5284 35.8215 25.348 56.8219 27.7321C62.3664 28.3616 68.0425 28.1088 73.3891 26.484C75.5944 25.8137 80.3324 23.3434 80.2666 23.3187C80.2666 23.3187 79.681 22.303 78.4845 20.8013Z" fill="#222430"/>
<path d="M58.504 35.5763C41.5919 34.9359 21.3594 27.5611 21.3594 20.4326C20.2825 21.8738 19.5298 23.8378 19.5623 26.5236C19.5623 26.5236 26.7688 31.1016 40.7326 35.6796C52.8117 39.6397 74.9434 44.007 85.7641 35.1092C85.7641 35.1092 87.3452 29.5129 83.9242 25.7282C82.4347 29.6449 76.807 36.2693 58.504 35.5763Z" fill="#222430"/>
<path d="M37.1742 15.9109C34.5788 13.3155 45.972 8.75099 49.3862 12.1652C52.8005 15.5794 41.5961 20.3328 37.1742 15.9109Z" fill="#3E4457"/>
<path d="M28.4401 16.5283C28.4401 16.5283 46.2741 32.7043 76.2155 25.3479C76.2155 25.3479 48.6767 38.0834 25.1335 17.4767C25.1335 17.4767 27.3897 16.5283 28.4401 16.5283Z" fill="#3E4457"/>
</g>
</svg>
