<svg width="24" height="25" viewBox="0 0 24 25" fill="none" xmlns="http://www.w3.org/2000/svg">
<g style="mix-blend-mode:multiply">
<path d="M3.12238 5.53668C-0.507905 9.23074 0.12549 15.7611 4.53425 20.0936C8.943 24.4262 15.4835 24.946 19.1138 21.2519L20.3096 20.0351L20.1927 19.9204L20.4668 19.4045C22.5214 15.5403 21.3842 10.3139 17.7015 6.69493C14.0189 3.07592 8.77373 2.0302 4.94598 4.15176L4.43496 4.43475L4.3182 4.31997L3.12238 5.53668Z" fill="url(#paint0_linear_19958_40237)"/>
</g>
<path d="M18.2514 6.13676C14.2489 2.20339 8.59675 1.23423 4.56791 3.46721L4.30969 3.21347L2.56555 4.98825C-1.37362 8.9966 -0.736805 16.0093 3.98723 20.6517C8.71127 25.2941 15.734 25.8087 19.6731 21.8003L21.4173 20.0255L21.1593 19.772C23.3217 15.7047 22.2537 10.0701 18.2514 6.13676Z" fill="url(#paint1_linear_19958_40237)"/>
<path opacity="0.18" d="M2.56555 4.98832C-1.37362 8.99667 -0.736805 16.0094 3.98723 20.6518C4.09114 20.7538 4.19722 20.8515 4.30323 20.9495C8.07491 21.0215 11.7836 19.6634 14.5449 16.8535C17.3548 13.9943 18.644 10.1803 18.4527 6.34379C18.3853 6.2746 18.3205 6.20476 18.2514 6.13689C13.5275 1.49449 6.50432 0.980302 2.56555 4.98832Z" fill="#FFD50C"/>
<path opacity="0.49" d="M11.6344 2.51542C8.27956 1.82451 4.89629 2.61564 2.5799 4.97281C0.245786 7.34798 -0.481233 10.7787 0.296651 14.1457C3.10312 13.6785 5.75094 12.3822 7.85095 10.2452C9.97771 8.08112 11.2323 5.36953 11.6344 2.51542Z" fill="#FFD50C"/>
<path opacity="0.49" d="M3.0558 5.46974C3.48349 5.03455 4.4624 4.12864 4.95617 3.79933C8.92822 1.15152 14.2939 2.45105 18.4909 6.3829C18.4115 6.30067 18.3335 6.21758 18.2513 6.1368C11.2725 -0.721375 4.41198 3.11244 4.41198 3.11244C4.41198 3.11244 3.00605 4.53992 2.56565 4.98803C-1.37339 8.99625 -0.73677 16.0092 3.9872 20.6516C4.06936 20.7324 4.15383 20.8089 4.23725 20.887C-0.264609 16.2461 -0.814841 9.40839 3.0558 5.46974Z" fill="#FFD50C"/>
<g style="mix-blend-mode:multiply">
<path d="M4.86173 3.7666C1.23619 7.45592 1.86938 13.9863 6.27814 18.3189C10.687 22.6516 17.2276 23.1711 20.8578 19.4771C24.4742 15.7971 23.8542 9.28065 19.4756 4.9507L19.4453 4.91986C17.6686 3.17387 15.5147 1.99953 13.2166 1.52375L12.622 1.4006C9.7914 0.975816 7.11815 1.70099 5.21251 3.43037L5.19189 3.44895C5.14261 3.49363 5.09371 3.53916 5.04555 3.58534C5.02559 3.60458 5.00727 3.62283 4.98876 3.64115L4.92195 3.70678C4.90903 3.71956 4.89573 3.73208 4.88288 3.74506L4.87042 3.75784L4.86173 3.7666Z" fill="url(#paint2_linear_19958_40237)"/>
</g>
<path d="M19.9946 4.36215C24.7187 9.00468 25.3553 16.0174 21.4164 20.0256C17.4775 24.0337 10.4545 23.5195 5.73042 18.877C1.00632 14.2345 0.369828 7.22173 4.3088 3.21351C8.24777 -0.79471 15.2706 -0.280249 19.9946 4.36215Z" fill="url(#paint3_linear_19958_40237)"/>
<path d="M5.81971 18.7851C1.17665 14.2222 0.482511 7.36944 4.20009 3.33032C4.13085 3.39634 4.06232 3.46329 3.99492 3.53188C0.0559459 7.54003 0.69256 14.553 5.41653 19.1954C10.1405 23.8378 17.1635 24.3522 21.1025 20.344C21.1699 20.2754 21.2357 20.2057 21.3005 20.1354C17.3268 23.9228 10.463 23.3482 5.81971 18.7851Z" fill="#FED557"/>
<path opacity="0.18" d="M4.30876 3.21348C0.369789 7.22163 1.0064 14.2346 5.73037 18.877C5.83428 18.9791 5.94056 19.0765 6.04651 19.1745C9.81812 19.2466 13.5268 17.8885 16.2882 15.0786C19.0979 12.2195 20.3874 8.40533 20.1959 4.56888C20.1285 4.4997 20.0635 4.42999 19.9945 4.36212C15.2705 -0.280276 8.24766 -0.794671 4.30876 3.21348Z" fill="#FFD50C"/>
<path opacity="0.49" d="M13.3775 0.740557C10.0228 0.0495147 6.63938 0.840907 4.32312 3.19782C1.98881 5.57318 1.26205 9.00362 2.03974 12.3709C4.84628 11.9036 7.49408 10.6074 9.59416 8.47038C11.7209 6.30633 12.9755 3.5946 13.3775 0.740557Z" fill="#FFD50C"/>
<path opacity="0.49" d="M4.79877 3.69513C8.66909 -0.243181 15.5153 0.187932 20.234 4.60822C20.1544 4.52612 20.0766 4.44284 19.9945 4.36206C15.2705 -0.280343 8.24753 -0.794602 4.3087 3.21349C0.369858 7.22157 1.00634 14.2345 5.73038 18.8769C5.81254 18.9577 5.89715 19.0341 5.98043 19.1123C1.47857 14.4713 0.928326 7.63364 4.79877 3.69513Z" fill="#FFD50C"/>
<path d="M19.5299 4.8355C23.9462 9.17547 24.5411 15.7304 20.8591 19.4772C17.177 23.224 10.6127 22.7433 6.19647 18.4033C1.78079 14.0639 1.18582 7.50868 4.86775 3.76204C8.54969 0.0153965 15.1143 0.496058 19.5299 4.8355Z" fill="#FFCA37"/>
<path d="M4.61491 3.99299C8.29682 0.246463 14.8614 0.726949 19.277 5.06623C23.6932 9.40613 24.288 15.961 20.6061 19.7078C16.9241 23.4545 10.3602 22.9742 5.94401 18.6346C1.52834 14.2951 0.932973 7.73963 4.61491 3.99299ZM15.0407 7.57111C13.688 6.93354 12.2132 6.89198 10.9274 7.33967C10.9265 7.34001 10.9257 7.34063 10.9245 7.34162C9.6891 7.77119 8.62786 8.65488 8.01921 9.89631V9.89826C8.00768 9.92103 7.99688 9.9455 7.986 9.96857C7.68948 10.5977 7.53552 11.2587 7.51042 11.9168L6.73698 12.0047H6.72526L6.69694 12.0067C6.68627 12.0076 6.67555 12.0105 6.66471 12.0125L6.39323 12.0438C6.33666 12.0504 6.29448 12.0874 6.27604 12.1336L6.01628 12.6844C6.01408 12.689 6.01243 12.6938 6.01139 12.699C5.99587 12.7426 6.00087 12.7922 6.03288 12.8338L6.14909 12.9832L7.38249 14.575C7.54154 14.7804 7.77692 14.913 8.03483 14.9422L8.44206 14.9881L8.93132 15.0428C8.95304 15.0732 8.97503 15.1036 8.99772 15.1336C9.029 15.175 9.06081 15.2163 9.09343 15.2567C9.11713 15.2862 9.14006 15.3153 9.16471 15.3445C9.16572 15.3458 9.16672 15.3475 9.16862 15.3485C9.1814 15.3641 9.19463 15.3793 9.20768 15.3944C9.21969 15.4096 9.23246 15.4249 9.24577 15.4393H9.24675C9.27485 15.4718 9.30391 15.5037 9.33268 15.535C9.33329 15.5367 9.33326 15.5379 9.33464 15.5379C9.33834 15.5437 9.34397 15.5481 9.34831 15.5526C9.37539 15.5822 9.40329 15.6121 9.43132 15.6414C9.4597 15.6717 9.4886 15.701 9.51823 15.7303C9.54917 15.7617 9.58175 15.7916 9.61393 15.8221C9.6586 15.8641 9.704 15.9058 9.75065 15.9471C9.78113 15.9743 9.81169 16.001 9.84343 16.0272C9.87933 16.057 9.91591 16.0876 9.9528 16.117C9.98951 16.1464 10.0268 16.1749 10.0641 16.2029C10.065 16.2041 10.0652 16.205 10.0661 16.2049C10.0823 16.2182 10.0987 16.2303 10.1149 16.242C10.1368 16.2587 10.1589 16.2744 10.1813 16.2899C10.1984 16.3026 10.2157 16.3148 10.2331 16.327C10.255 16.3422 10.2773 16.3574 10.2995 16.3719C10.3285 16.392 10.3577 16.4117 10.3874 16.4305C10.39 16.4334 10.3938 16.4348 10.3971 16.4363C10.4104 16.4458 10.4236 16.4553 10.4382 16.4637C10.4408 16.4664 10.4442 16.4678 10.4479 16.4695C10.4737 16.4866 10.5006 16.5027 10.527 16.5184C10.5954 16.5611 10.6654 16.602 10.737 16.6414C10.7542 16.6511 10.7716 16.6601 10.7887 16.6697L10.7985 16.6736C10.8272 16.6896 10.8564 16.7055 10.8864 16.7205C10.8991 16.7273 10.9119 16.7336 10.9255 16.7401C10.9689 16.7621 11.0135 16.7844 11.0583 16.8055C11.0872 16.8191 11.1157 16.8323 11.1452 16.8445C11.1649 16.8538 11.1844 16.8629 11.2048 16.8709C11.2412 16.8873 11.278 16.9037 11.3151 16.9188C11.3883 16.9493 11.4623 16.9771 11.5358 17.0037C11.5674 17.0154 11.5994 17.0276 11.6315 17.0379C11.663 17.0495 11.6951 17.0598 11.7272 17.0701C11.7735 17.0847 11.82 17.0995 11.8659 17.1131C11.8757 17.1162 11.886 17.1186 11.8962 17.1209C11.945 17.1351 11.9939 17.1494 12.0426 17.1619C12.0568 17.1662 12.0708 17.1694 12.0846 17.1727C12.1111 17.1796 12.1379 17.1857 12.1637 17.1922C12.1791 17.1954 12.1949 17.199 12.2096 17.202C12.2649 17.2143 12.3204 17.2263 12.3757 17.2371C12.4374 17.2494 12.4999 17.2601 12.5622 17.2694C12.6063 17.2765 12.6512 17.2827 12.695 17.2889C12.7392 17.2944 12.7833 17.3007 12.8278 17.3055C12.8722 17.3103 12.9166 17.3143 12.9606 17.3182C12.9867 17.3208 13.0131 17.3227 13.0397 17.324C13.0605 17.3258 13.0807 17.3271 13.1012 17.3279C13.1427 17.3306 13.1838 17.3328 13.2253 17.3338C13.2694 17.3354 13.3133 17.3361 13.3571 17.3367C13.4035 17.3376 13.4495 17.3375 13.4958 17.3367C13.5433 17.3366 13.5915 17.3353 13.6393 17.3328C13.6959 17.3306 13.7533 17.3267 13.8102 17.3221C13.8422 17.3204 13.8739 17.3176 13.9059 17.3143C14.0115 17.3053 14.1176 17.2929 14.2223 17.2772C14.264 17.271 14.3061 17.2638 14.3473 17.2567C14.4074 17.2465 14.4673 17.2352 14.527 17.2225C14.5688 17.214 14.6115 17.204 14.654 17.1942H14.6559C14.87 17.1243 15.0789 17.0404 15.2809 16.9432C15.5779 16.802 15.8616 16.6319 16.1266 16.4354C16.1475 16.4202 16.1677 16.4052 16.1872 16.3895C16.3284 16.2829 16.4637 16.1666 16.5924 16.0438C17.0355 15.6251 17.4082 15.1202 17.6823 14.5389H17.6833C18.5509 12.6982 18.2015 10.5873 16.9606 9.06818L16.9596 9.06525C16.4587 8.45139 15.8118 7.93462 15.0407 7.57111ZM16.5202 13.1531C16.319 13.5059 16.0813 13.8267 15.8161 14.1121C15.6473 14.2926 15.4677 14.4589 15.278 14.6102C15.1615 14.7035 15.0413 14.7917 14.9176 14.8729C14.888 14.8933 14.8578 14.9139 14.8258 14.9324C14.8066 14.9459 14.7849 14.9577 14.7643 14.9705C14.1697 15.3348 13.5086 15.5647 12.8307 15.6424C12.5914 15.6698 12.3506 15.6782 12.1091 15.6658C11.9894 15.6602 11.87 15.6481 11.7507 15.6326C11.8702 15.6483 11.9904 15.6596 12.11 15.6649C12.3513 15.6772 12.5917 15.6687 12.8307 15.6414C13.5087 15.5637 14.1706 15.3338 14.7653 14.9695C14.7856 14.9569 14.8068 14.9448 14.8258 14.9315C14.8579 14.9128 14.8889 14.8925 14.9186 14.8719C15.0423 14.7908 15.1625 14.7025 15.279 14.6092C15.4687 14.4578 15.6482 14.2907 15.8171 14.1102C16.082 13.8248 16.3191 13.5047 16.5202 13.1522V13.1531ZM10.4577 15.2537C10.7424 15.3879 11.0348 15.4897 11.3307 15.5574C11.4567 15.5869 11.5835 15.6099 11.7106 15.6278C11.285 15.5685 10.8628 15.4471 10.4567 15.2557C10.421 15.2388 10.3863 15.2197 10.3512 15.202H10.3561C10.3899 15.219 10.4233 15.2375 10.4577 15.2537ZM7.88542 11.0369C7.8848 11.2629 7.89987 11.487 7.92936 11.7078C7.93656 11.7609 7.94697 11.8136 7.95573 11.866L7.9528 11.867C7.94416 11.8149 7.93635 11.7623 7.92936 11.7098C7.89976 11.4884 7.88472 11.2635 7.88542 11.0369ZM12.2116 8.40802L12.3913 8.42951C12.2742 8.42255 12.1633 8.40265 12.0622 8.37385C12.1099 8.38743 12.1598 8.39902 12.2116 8.40802ZM13.3044 7.88166C13.3143 7.9148 13.319 7.9488 13.3171 7.98322C13.3047 8.19024 13.0681 8.35433 12.7419 8.41095C13.0678 8.3543 13.3036 8.19009 13.3161 7.98322C13.3171 7.96589 13.3162 7.94852 13.3141 7.93146C13.312 7.91463 13.3084 7.89813 13.3034 7.88166H13.3044Z" fill="#FFCA37"/>
<path d="M4.61491 3.99299C8.29682 0.246463 14.8614 0.726949 19.277 5.06623C23.6932 9.40613 24.288 15.961 20.6061 19.7078C16.9241 23.4545 10.3602 22.9742 5.94401 18.6346C1.52834 14.2951 0.932973 7.73963 4.61491 3.99299ZM15.0407 7.57111C13.688 6.93354 12.2132 6.89198 10.9274 7.33967C10.9265 7.34001 10.9257 7.34063 10.9245 7.34162C9.6891 7.77119 8.62786 8.65488 8.01921 9.89631V9.89826C8.00768 9.92103 7.99688 9.9455 7.986 9.96857C7.68948 10.5977 7.53552 11.2587 7.51042 11.9168L6.73698 12.0047H6.72526L6.69694 12.0067C6.68627 12.0076 6.67555 12.0105 6.66471 12.0125L6.39323 12.0438C6.33666 12.0504 6.29448 12.0874 6.27604 12.1336L6.01628 12.6844C6.01408 12.689 6.01243 12.6938 6.01139 12.699C5.99587 12.7426 6.00087 12.7922 6.03288 12.8338L6.14909 12.9832L7.38249 14.575C7.54154 14.7804 7.77692 14.913 8.03483 14.9422L8.44206 14.9881L8.93132 15.0428C8.95304 15.0732 8.97503 15.1036 8.99772 15.1336C9.029 15.175 9.06081 15.2163 9.09343 15.2567C9.11713 15.2862 9.14006 15.3153 9.16471 15.3445C9.16572 15.3458 9.16672 15.3475 9.16862 15.3485C9.1814 15.3641 9.19463 15.3793 9.20768 15.3944C9.21969 15.4096 9.23246 15.4249 9.24577 15.4393H9.24675C9.27485 15.4718 9.30391 15.5037 9.33268 15.535C9.33329 15.5367 9.33326 15.5379 9.33464 15.5379C9.33834 15.5437 9.34397 15.5481 9.34831 15.5526C9.37539 15.5822 9.40329 15.6121 9.43132 15.6414C9.4597 15.6717 9.4886 15.701 9.51823 15.7303C9.54917 15.7617 9.58175 15.7916 9.61393 15.8221C9.6586 15.8641 9.704 15.9058 9.75065 15.9471C9.78113 15.9743 9.81169 16.001 9.84343 16.0272C9.87933 16.057 9.91591 16.0876 9.9528 16.117C9.98951 16.1464 10.0268 16.1749 10.0641 16.2029C10.065 16.2041 10.0652 16.205 10.0661 16.2049C10.0823 16.2182 10.0987 16.2303 10.1149 16.242C10.1368 16.2587 10.1589 16.2744 10.1813 16.2899C10.1984 16.3026 10.2157 16.3148 10.2331 16.327C10.255 16.3422 10.2773 16.3574 10.2995 16.3719C10.3285 16.392 10.3577 16.4117 10.3874 16.4305C10.39 16.4334 10.3938 16.4348 10.3971 16.4363C10.4104 16.4458 10.4236 16.4553 10.4382 16.4637C10.4408 16.4664 10.4442 16.4678 10.4479 16.4695C10.4737 16.4866 10.5006 16.5027 10.527 16.5184C10.5954 16.5611 10.6654 16.602 10.737 16.6414C10.7542 16.6511 10.7716 16.6601 10.7887 16.6697L10.7985 16.6736C10.8272 16.6896 10.8564 16.7055 10.8864 16.7205C10.8991 16.7273 10.9119 16.7336 10.9255 16.7401C10.9689 16.7621 11.0135 16.7844 11.0583 16.8055C11.0872 16.8191 11.1157 16.8323 11.1452 16.8445C11.1649 16.8538 11.1844 16.8629 11.2048 16.8709C11.2412 16.8873 11.278 16.9037 11.3151 16.9188C11.3883 16.9493 11.4623 16.9771 11.5358 17.0037C11.5674 17.0154 11.5994 17.0276 11.6315 17.0379C11.663 17.0495 11.6951 17.0598 11.7272 17.0701C11.7735 17.0847 11.82 17.0995 11.8659 17.1131C11.8757 17.1162 11.886 17.1186 11.8962 17.1209C11.945 17.1351 11.9939 17.1494 12.0426 17.1619C12.0568 17.1662 12.0708 17.1694 12.0846 17.1727C12.1111 17.1796 12.1379 17.1857 12.1637 17.1922C12.1791 17.1954 12.1949 17.199 12.2096 17.202C12.2649 17.2143 12.3204 17.2263 12.3757 17.2371C12.4374 17.2494 12.4999 17.2601 12.5622 17.2694C12.6063 17.2765 12.6512 17.2827 12.695 17.2889C12.7392 17.2944 12.7833 17.3007 12.8278 17.3055C12.8722 17.3103 12.9166 17.3143 12.9606 17.3182C12.9867 17.3208 13.0131 17.3227 13.0397 17.324C13.0605 17.3258 13.0807 17.3271 13.1012 17.3279C13.1427 17.3306 13.1838 17.3328 13.2253 17.3338C13.2694 17.3354 13.3133 17.3361 13.3571 17.3367C13.4035 17.3376 13.4495 17.3375 13.4958 17.3367C13.5433 17.3366 13.5915 17.3353 13.6393 17.3328C13.6959 17.3306 13.7533 17.3267 13.8102 17.3221C13.8422 17.3204 13.8739 17.3176 13.9059 17.3143C14.0115 17.3053 14.1176 17.2929 14.2223 17.2772C14.264 17.271 14.3061 17.2638 14.3473 17.2567C14.4074 17.2465 14.4673 17.2352 14.527 17.2225C14.5688 17.214 14.6115 17.204 14.654 17.1942H14.6559C14.87 17.1243 15.0789 17.0404 15.2809 16.9432C15.5779 16.802 15.8616 16.6319 16.1266 16.4354C16.1475 16.4202 16.1677 16.4052 16.1872 16.3895C16.3284 16.2829 16.4637 16.1666 16.5924 16.0438C17.0355 15.6251 17.4082 15.1202 17.6823 14.5389H17.6833C18.5509 12.6982 18.2015 10.5873 16.9606 9.06818L16.9596 9.06525C16.4587 8.45139 15.8118 7.93462 15.0407 7.57111ZM16.5202 13.1531C16.319 13.5059 16.0813 13.8267 15.8161 14.1121C15.6473 14.2926 15.4677 14.4589 15.278 14.6102C15.1615 14.7035 15.0413 14.7917 14.9176 14.8729C14.888 14.8933 14.8578 14.9139 14.8258 14.9324C14.8066 14.9459 14.7849 14.9577 14.7643 14.9705C14.1697 15.3348 13.5086 15.5647 12.8307 15.6424C12.5914 15.6698 12.3506 15.6782 12.1091 15.6658C11.9894 15.6602 11.87 15.6481 11.7507 15.6326C11.8702 15.6483 11.9904 15.6596 12.11 15.6649C12.3513 15.6772 12.5917 15.6687 12.8307 15.6414C13.5087 15.5637 14.1706 15.3338 14.7653 14.9695C14.7856 14.9569 14.8068 14.9448 14.8258 14.9315C14.8579 14.9128 14.8889 14.8925 14.9186 14.8719C15.0423 14.7908 15.1625 14.7025 15.279 14.6092C15.4687 14.4578 15.6482 14.2907 15.8171 14.1102C16.082 13.8248 16.3191 13.5047 16.5202 13.1522V13.1531ZM10.4577 15.2537C10.7424 15.3879 11.0348 15.4897 11.3307 15.5574C11.4567 15.5869 11.5835 15.6099 11.7106 15.6278C11.285 15.5685 10.8628 15.4471 10.4567 15.2557C10.421 15.2388 10.3863 15.2197 10.3512 15.202H10.3561C10.3899 15.219 10.4233 15.2375 10.4577 15.2537ZM7.88542 11.0369C7.8848 11.2629 7.89987 11.487 7.92936 11.7078C7.93656 11.7609 7.94697 11.8136 7.95573 11.866L7.9528 11.867C7.94416 11.8149 7.93635 11.7623 7.92936 11.7098C7.89976 11.4884 7.88472 11.2635 7.88542 11.0369ZM12.2116 8.40802L12.3913 8.42951C12.2742 8.42255 12.1633 8.40265 12.0622 8.37385C12.1099 8.38743 12.1598 8.39902 12.2116 8.40802ZM13.3044 7.88166C13.3143 7.9148 13.319 7.9488 13.3171 7.98322C13.3047 8.19024 13.0681 8.35433 12.7419 8.41095C13.0678 8.3543 13.3036 8.19009 13.3161 7.98322C13.3171 7.96589 13.3162 7.94852 13.3141 7.93146C13.312 7.91463 13.3084 7.89813 13.3034 7.88166H13.3044Z" fill="url(#paint4_linear_19958_40237)"/>
<path d="M19.0224 5.30374C23.4387 9.64371 24.0336 16.1987 20.3516 19.9454C20.3436 19.9535 20.3352 19.9607 20.3272 19.9688C20.5103 19.8128 20.6896 19.6509 20.8608 19.4768C24.5429 15.73 23.9479 9.17511 19.5316 4.83507C15.1254 0.505052 8.58028 0.017736 4.8938 3.73822C8.64986 0.539576 14.812 1.16605 19.0224 5.30374Z" fill="url(#paint5_linear_19958_40237)"/>
<defs>
<linearGradient id="paint0_linear_19958_40237" x1="3.12219" y1="5.53683" x2="19.1136" y2="21.2521" gradientUnits="userSpaceOnUse">
<stop stop-color="#FA951F"/>
<stop offset="1" stop-color="#D14700"/>
</linearGradient>
<linearGradient id="paint1_linear_19958_40237" x1="1.79324" y1="4.22846" x2="17.8948" y2="20.0519" gradientUnits="userSpaceOnUse">
<stop stop-color="#FFAA2E"/>
<stop offset="0.1604" stop-color="#FA9A23"/>
<stop offset="0.4215" stop-color="#F58816"/>
<stop offset="0.6954" stop-color="#F27D0E"/>
<stop offset="1" stop-color="#F17A0C"/>
</linearGradient>
<linearGradient id="paint2_linear_19958_40237" x1="-136.318" y1="-134.984" x2="20.8576" y2="19.4773" gradientUnits="userSpaceOnUse">
<stop stop-color="#FA951F"/>
<stop offset="1" stop-color="#D14700"/>
</linearGradient>
<linearGradient id="paint3_linear_19958_40237" x1="3.53644" y1="2.45382" x2="19.638" y2="18.2773" gradientUnits="userSpaceOnUse">
<stop stop-color="#FFD42E"/>
<stop offset="0.5818" stop-color="#FFAA2E"/>
<stop offset="0.6489" stop-color="#FA9A23"/>
<stop offset="0.7581" stop-color="#F58816"/>
<stop offset="0.8726" stop-color="#F27D0E"/>
<stop offset="1" stop-color="#F17A0C"/>
</linearGradient>
<linearGradient id="paint4_linear_19958_40237" x1="6.78479" y1="15.9273" x2="24.1392" y2="-6.63531" gradientUnits="userSpaceOnUse">
<stop stop-color="#FA951F"/>
<stop offset="1" stop-color="#D14700"/>
</linearGradient>
<linearGradient id="paint5_linear_19958_40237" x1="18.435" y1="5.95199" x2="11.6327" y2="12.8738" gradientUnits="userSpaceOnUse">
<stop stop-color="#B33100"/>
<stop offset="1" stop-color="#D14700"/>
</linearGradient>
</defs>
</svg>
