<svg width="24" height="25" viewBox="0 0 24 25" fill="none" xmlns="http://www.w3.org/2000/svg">
<mask id="mask0_20026_41554" style="mask-type:luminance" maskUnits="userSpaceOnUse" x="0" y="0" width="24" height="25">
<path d="M12 24.5C18.6274 24.5 24 19.1274 24 12.5C24 5.87258 18.6274 0.5 12 0.5C5.37258 0.5 0 5.87258 0 12.5C0 19.1274 5.37258 24.5 12 24.5Z" fill="white"/>
</mask>
<g mask="url(#mask0_20026_41554)">
<path d="M0.737188 19.8117C-0.431942 19.9178 -1.30571 21.1336 -1.30571 21.1336C-1.30571 21.1336 -1.66345 21.5893 -2.0026 21.99C-2.09874 22.1036 -2.13432 22.2746 -2.03728 22.8185C-1.88566 23.6686 -1.27283 23.6373 -1.27283 23.6373C-1.27283 23.6373 -1.32132 23.7124 -1.12251 24.4672C-0.883332 25.3753 -0.487097 25.273 0.0900271 25.2776C0.139795 25.5601 0.211448 25.7428 0.301662 26.0061C0.431904 26.3862 0.989883 26.3028 1.57605 26.2928C2.94471 26.2693 3.47957 25.2465 3.44313 24.7893C3.43794 24.7241 3.64088 24.2547 3.7085 23.9996C4.07036 22.6343 1.91455 19.7049 0.737188 19.8117Z" fill="#FFA015"/>
<path d="M0.52496 23.4378C-0.0701234 23.3706 -0.925935 23.4014 -1.46619 23.3404C-1.62205 23.3227 -2.0189 22.7071 -2.0625 22.6565C-2.05506 22.7066 -2.04648 22.7598 -2.03608 22.8181C-1.90343 23.5617 -1.41788 23.6309 -1.29835 23.6365C-1.29042 23.6356 -1.28295 23.6345 -1.27449 23.634C-0.663346 23.5978 0.119025 23.5093 0.52496 23.4378Z" fill="#FFC44D"/>
<path d="M6.5223 17.2988C6.5223 17.2988 4.4605 18.4837 3.64368 18.786C2.88282 19.0676 1.4466 19.3004 0.518425 19.6986C-0.717144 20.2285 -0.937141 20.6188 -0.871417 20.8797C-0.781427 21.2371 0.661117 20.7137 0.661117 20.7137C0.661117 20.7137 2.53933 21.0524 2.68815 21.8075C2.68815 21.8075 4.12199 23.3507 4.24792 24.3933C4.24792 24.3933 7.88626 22.2829 8.98842 18.9538L6.5223 17.2988Z" fill="#FFD768"/>
<path d="M8.98815 18.9528C6.25856 20.3128 5.62789 23.4128 3.28266 25.3741C3.28159 25.3752 3.28052 25.3752 3.28052 25.3752C3.35823 25.1931 3.3313 24.9739 3.29261 24.7697C3.21173 24.3428 3.29972 24.0337 2.90472 24.1408C3.03447 24.0072 2.87727 23.5817 2.84821 23.358C2.80942 23.0595 2.68511 22.7481 2.46726 22.7219C2.21015 22.6911 2.00953 22.7454 2.00953 22.7454C2.33348 22.4364 2.26935 22.2287 2.22082 21.9638C2.12616 21.4473 2.07269 21.3887 1.64363 21.3277C1.2452 21.2711 0.98528 20.8853 0.84082 20.851C1.05673 20.8619 1.52062 21.0263 2.11739 21.0298C2.15163 21.0298 2.1848 21.0287 2.21904 21.0287C2.38169 21.0244 2.55289 21.0073 2.73159 20.973C3.18957 20.8853 3.08211 21.0255 3.42536 20.5124C4.40983 19.0406 7.26242 18.1169 7.26242 18.1169L8.98815 18.9528Z" fill="#2E3240"/>
<path d="M2.25389 22.4375C2.25389 22.4375 1.87882 23.1659 0.202148 23.4886C0.202148 23.4886 1.67734 23.5223 2.33026 22.7141L2.25389 22.4375Z" fill="#FF8415"/>
<path d="M2.82486 24.1987C2.82486 24.1987 2.5656 24.9709 1.05469 25.196C1.05469 25.196 2.65709 25.241 3.17398 24.1169L2.82486 24.1987Z" fill="#FF8415"/>
<path d="M8.98817 18.9527C6.43824 20.2228 5.72025 23.0114 3.72461 24.9728C3.58443 25.1108 3.43676 25.2445 3.28269 25.374C3.28161 25.3751 3.28054 25.3751 3.28054 25.3751C3.35866 25.1932 3.33084 24.9738 3.2923 24.7694C3.21206 24.3425 3.27766 24.0375 2.88281 24.1445C3.0409 24.0039 2.87713 23.5817 2.84823 23.358C2.80971 23.0595 2.68452 22.7481 2.4673 22.7214C2.21049 22.6914 2.00932 22.7449 2.00932 22.7449C2.33354 22.4367 2.26934 22.2291 2.22119 21.9638C2.2062 21.8803 2.19122 21.8086 2.17624 21.7466V21.7455C2.17624 21.7444 2.17624 21.7433 2.17518 21.7423C2.16448 21.6995 2.15378 21.6609 2.142 21.6278V21.6267C2.08315 21.463 2.00182 21.3999 1.82527 21.3603C1.77391 21.3485 1.71398 21.3389 1.64336 21.3282C1.61661 21.3239 1.58986 21.3185 1.56417 21.311C1.20999 21.2201 0.975652 20.883 0.84082 20.8509C1.03129 20.8605 1.41437 20.99 1.91194 21.0221C1.97827 21.0264 2.04677 21.0296 2.11739 21.0296C2.15163 21.0296 2.1848 21.0285 2.21904 21.0285C2.32069 21.0264 2.42449 21.0178 2.53256 21.0039C2.59784 20.9964 2.66417 20.9857 2.73159 20.9729C3.18957 20.8852 3.0815 21.0253 3.42498 20.5128C4.40942 19.0404 7.26216 18.1169 7.26216 18.1169L8.98817 18.9527Z" fill="#FF8415"/>
<path d="M16.0162 3.84116C14.8366 3.27719 13.5078 2.96094 12.1009 2.96094C9.63336 2.96094 7.40275 3.93616 5.79863 5.50901C5.79746 5.51021 5.79628 5.51141 5.7951 5.51382C4.25348 7.02414 3.2927 9.09003 3.25781 11.3711C3.47299 12.3776 3.86506 13.3132 4.39773 14.1381C4.49521 14.2884 4.59622 14.4339 4.70194 14.577C5.15168 15.183 5.68199 15.7193 6.27609 16.1667C6.34093 16.216 6.40588 16.2629 6.47201 16.3098C6.47929 16.3146 6.48645 16.3206 6.49373 16.3254C6.57431 16.3819 6.65488 16.4372 6.73781 16.4902C6.84963 16.5611 6.96263 16.6296 7.07808 16.6945C7.13704 16.7294 7.19718 16.762 7.25849 16.7944C7.76355 17.0649 8.30104 17.2778 8.86377 17.4221C9.18489 17.505 9.51436 17.5664 9.84864 17.6048C9.8739 17.6073 9.89797 17.6108 9.92322 17.6121C10.1673 17.6385 10.415 17.6517 10.6651 17.6517C11.1846 17.6517 11.692 17.5965 12.1814 17.4894C12.6084 17.398 13.0233 17.2682 13.42 17.1022C13.7892 16.9507 14.1427 16.7691 14.4807 16.5599C15.4378 15.967 16.2627 15.159 16.894 14.1969C16.9156 14.1633 16.9385 14.1296 16.9578 14.0959C16.9926 14.0454 17.0239 13.9938 17.0539 13.9421C17.1814 13.734 17.2993 13.5188 17.4074 13.2975C17.5842 12.938 17.7346 12.5628 17.8596 12.1744C18.1193 11.3579 18.2612 10.4837 18.2612 9.57462C18.2612 7.33318 17.4026 5.30458 16.0162 3.84116ZM8.13626 4.57347C8.89503 4.26925 9.64663 4.36545 9.81741 4.78873C9.9869 5.212 9.50956 5.80121 8.75079 6.10546C7.99202 6.40968 7.23924 6.31469 7.06964 5.89142C6.90015 5.46814 7.37749 4.87891 8.13626 4.57347Z" fill="#FFC44D"/>
<path d="M8.74951 6.10605C7.99074 6.41029 7.23796 6.31529 7.06836 5.89202C6.89887 5.46874 7.37621 4.87952 8.13498 4.57408C8.89375 4.26986 9.64535 4.36606 9.81602 4.78934C9.98562 5.21262 9.50828 5.80182 8.74951 6.10605Z" fill="#FFD768"/>
<path d="M6.73901 16.4903C6.57186 16.6262 6.412 16.7681 6.25684 16.9148C6.07889 17.082 5.90811 17.2551 5.74579 17.4331C5.68683 17.3754 5.62797 17.3164 5.57137 17.2551C5.52814 17.2106 5.48609 17.1661 5.4452 17.1204C4.08389 15.6198 3.25781 13.6513 3.25781 11.4988C3.25781 11.4567 3.25781 11.4134 3.25899 11.3713C3.47428 12.3778 3.86623 13.3134 4.39902 14.1383C4.90761 14.9271 5.54375 15.6149 6.27727 16.1669C6.34222 16.2162 6.40718 16.2642 6.47331 16.3099C6.48047 16.3148 6.48775 16.3208 6.49493 16.3256C6.5755 16.3821 6.65608 16.4374 6.73901 16.4903Z" fill="#FF8415"/>
<path d="M19.0399 17.9801C18.8127 19.1958 17.936 20.2455 16.6842 20.9358C16.6097 20.9778 16.5339 21.0175 16.457 21.056C16.3536 21.1077 16.2465 21.1571 16.1383 21.2039H16.1371C15.8821 21.3146 15.6164 21.4119 15.3398 21.4937C15.1775 21.5418 15.0115 21.5839 14.842 21.6224C14.2528 21.7522 13.6239 21.8172 12.9721 21.8027C12.5501 21.7931 12.14 21.7522 11.7432 21.6837C11.3199 21.6092 10.9147 21.5022 10.5311 21.3651C10.5214 21.3614 10.5119 21.3591 10.5034 21.3554C9.61595 21.0356 8.84884 20.5606 8.26203 19.9786C8.11169 19.8295 7.97343 19.6731 7.84717 19.5108C7.7437 19.3762 7.64878 19.2378 7.56339 19.0948C7.4154 18.8482 7.29524 18.5897 7.20856 18.3227C7.20021 18.2999 7.19176 18.2759 7.18459 18.2518C7.12327 18.0474 7.07877 17.8381 7.05469 17.6253C7.29994 17.8177 7.55611 17.9981 7.82191 18.1628C7.86632 18.1916 7.91211 18.2193 7.9578 18.247C7.99258 18.2987 8.02993 18.3516 8.06716 18.4021C8.10086 18.4478 8.13457 18.4935 8.17063 18.538C8.18026 18.5512 8.18979 18.5633 8.20188 18.5764C8.22714 18.6101 8.25356 18.6427 8.28128 18.6751C8.30173 18.6991 8.32216 18.7244 8.34378 18.7484C8.37138 18.7809 8.39909 18.8133 8.42799 18.8446C8.43398 18.8507 8.43997 18.8578 8.44597 18.8638C8.48802 18.9108 8.53254 18.9577 8.57705 19.0034C8.61076 19.0382 8.64436 19.0718 8.67924 19.1056C8.70332 19.1296 8.7274 19.1537 8.75264 19.1753C8.79234 19.215 8.83322 19.2523 8.87527 19.2883C8.91979 19.3292 8.96548 19.3677 9.01234 19.4062C9.03877 19.429 9.06402 19.4506 9.09174 19.4711C9.13626 19.5071 9.18066 19.542 9.22517 19.5757C9.28894 19.6239 9.35261 19.6707 9.41875 19.7164C9.48369 19.7621 9.55111 19.8066 9.61841 19.8499C9.75313 19.9364 9.89256 20.0183 10.0356 20.0939C10.0898 20.1228 10.1451 20.1517 10.2016 20.1782C10.2268 20.1914 10.2533 20.2034 10.2785 20.2155C10.3435 20.2468 10.4084 20.2768 10.4746 20.3044C10.5491 20.337 10.6249 20.3682 10.7018 20.397C10.7583 20.4187 10.8161 20.4403 10.8738 20.4596C10.875 20.4596 10.8774 20.4619 10.8798 20.4619C10.9243 20.4788 10.9688 20.4932 11.0133 20.5065C11.0542 20.5209 11.0951 20.5329 11.136 20.545C11.2177 20.5702 11.3006 20.593 11.3825 20.6135C11.4077 20.6207 11.433 20.6267 11.4583 20.6327C11.4835 20.6399 11.5088 20.6447 11.534 20.6508C11.5749 20.6603 11.6158 20.6688 11.6566 20.6772C11.6674 20.6796 11.6771 20.6821 11.6867 20.6832C11.7468 20.6965 11.8082 20.7073 11.8683 20.7169C11.9223 20.7266 11.9777 20.7361 12.0318 20.7434C12.039 20.7445 12.0451 20.7457 12.0511 20.7457H12.0534C12.1304 20.7578 12.2086 20.7674 12.2867 20.7746C12.3288 20.7794 12.3721 20.7842 12.4154 20.7866C12.5008 20.7939 12.5874 20.7999 12.6739 20.8035H12.6872C12.7701 20.807 12.8531 20.8083 12.9361 20.8083C13.0046 20.8083 13.0732 20.807 13.1405 20.8047C13.1586 20.8047 13.1765 20.8035 13.1946 20.8023C13.3172 20.7987 13.4387 20.7891 13.559 20.7771C13.5794 20.7771 13.5998 20.7734 13.6203 20.771C13.6612 20.7674 13.7009 20.7626 13.7394 20.7565H13.7442C13.7574 20.7553 13.7694 20.753 13.7826 20.7518C13.8319 20.7445 13.8813 20.7374 13.9293 20.7289C13.9509 20.7266 13.9738 20.7229 13.9954 20.7181C14.0292 20.7133 14.0629 20.706 14.0965 20.7C14.1302 20.6952 14.1639 20.688 14.1963 20.6809C14.2107 20.6772 14.2252 20.6748 14.2395 20.6724C14.2829 20.664 14.3262 20.6543 14.3682 20.6435C14.4187 20.6327 14.4693 20.6195 14.5198 20.6063C14.5703 20.593 14.6196 20.5799 14.6688 20.5654C14.7698 20.5365 14.8685 20.5053 14.967 20.4704C14.9971 20.4608 15.0272 20.45 15.0572 20.4391C15.1029 20.4235 15.1499 20.4054 15.1943 20.3875C15.2124 20.3814 15.2292 20.3742 15.246 20.3669C15.3663 20.3201 15.4842 20.2684 15.5995 20.213C15.6224 20.2022 15.6452 20.1914 15.6681 20.1793C15.7114 20.1577 15.7547 20.1361 15.7967 20.1145C15.8413 20.0916 15.8858 20.0675 15.9291 20.0435C15.9459 20.0339 15.9615 20.0255 15.9783 20.0158C16.0265 19.9882 16.0745 19.9605 16.1215 19.9316C16.1624 19.9077 16.202 19.8836 16.2405 19.8571C16.2573 19.8487 16.273 19.8379 16.2898 19.8258C16.3066 19.8163 16.3235 19.8042 16.3392 19.7934C16.3451 19.791 16.3523 19.7862 16.3583 19.7814C16.386 19.7633 16.4149 19.744 16.4425 19.7236C16.4473 19.7213 16.451 19.7188 16.4558 19.714C16.4774 19.7008 16.499 19.6852 16.5207 19.6683C16.5568 19.643 16.594 19.6154 16.6301 19.5877C16.6578 19.5661 16.6854 19.5457 16.7131 19.5241C16.7937 19.4615 16.8707 19.3978 16.9476 19.3305C16.956 19.3232 16.9656 19.316 16.974 19.3076C17.0149 19.2715 17.0558 19.2343 17.0967 19.1958C17.1099 19.1838 17.1244 19.1717 17.1376 19.1572C17.146 19.1501 17.1544 19.1428 17.1616 19.1344C17.2121 19.0863 17.2603 19.0382 17.3083 18.9877C17.3685 18.9264 17.4262 18.8638 17.4816 18.8001C17.5321 18.7448 17.5801 18.687 17.6258 18.6294C17.6451 18.6077 17.663 18.5849 17.68 18.5621C17.7016 18.5368 17.7208 18.5103 17.7401 18.485C17.7545 18.467 17.7689 18.4478 17.7833 18.4285C17.8014 18.4044 17.8182 18.3817 17.8338 18.3588C17.8531 18.3323 17.8723 18.3059 17.8915 18.2783C18.0418 18.0605 18.1766 17.8321 18.2944 17.594H18.2955C18.5457 17.7119 18.7946 17.8406 19.0399 17.9801Z" fill="#FFA015"/>
<path d="M20.9474 11.4973C20.9474 12.5579 20.7466 13.574 20.3798 14.5107C20.274 14.7849 20.1526 15.053 20.0167 15.3116C19.9987 15.3489 19.9794 15.3849 19.959 15.4222C19.7016 15.902 19.3986 16.3554 19.0547 16.775C18.8214 17.0624 18.5689 17.3341 18.2984 17.5891C18.2984 17.5891 18.298 17.5896 18.2971 17.5903C18.2971 17.5903 18.2971 17.5915 18.2959 17.5915C18.2394 17.636 18.1829 17.6805 18.1264 17.7226C18.0459 17.7839 17.964 17.8428 17.8811 17.9005C17.8246 17.9402 17.7681 17.9799 17.7103 18.0184C17.5649 18.1158 17.4157 18.2096 17.2642 18.2974C17.2185 18.325 17.1728 18.3515 17.1259 18.3768C17.0442 18.4236 16.9611 18.4682 16.8782 18.5114C16.8084 18.5487 16.7375 18.5848 16.6666 18.6184C16.598 18.6521 16.5307 18.6845 16.4609 18.7159C16.3948 18.7459 16.3286 18.776 16.2613 18.8048C16.1987 18.8325 16.1362 18.8578 16.0726 18.883C16.0412 18.8962 16.01 18.9083 15.9776 18.9203C15.9367 18.9371 15.8958 18.9527 15.8548 18.9671C15.7863 18.9924 15.7178 19.0176 15.6481 19.0417C15.5783 19.0658 15.5086 19.0886 15.4388 19.1115C15.369 19.1331 15.2981 19.1547 15.2271 19.1751C15.1274 19.2052 15.0264 19.2329 14.9254 19.2582C14.8352 19.281 14.7438 19.3027 14.6524 19.3231C14.6283 19.3291 14.6031 19.3339 14.5778 19.3399C14.5345 19.3484 14.4901 19.358 14.4456 19.3664C14.4227 19.3712 14.3999 19.376 14.3758 19.3796C14.2941 19.3953 14.2111 19.4097 14.1281 19.4229C14.1113 19.4265 14.0944 19.429 14.0776 19.4313C13.9995 19.4433 13.9201 19.4542 13.8407 19.465C13.7854 19.4722 13.73 19.4795 13.6747 19.4843C13.6195 19.4914 13.5642 19.4963 13.5089 19.5011C13.3801 19.5131 13.2503 19.5227 13.1193 19.5287C13.0531 19.5323 12.9869 19.5348 12.9208 19.536C12.8847 19.5383 12.8498 19.5383 12.8138 19.5383C12.7609 19.5408 12.7092 19.5408 12.6562 19.5408C12.5745 19.5408 12.4927 19.5395 12.4122 19.5371C12.3869 19.5371 12.3628 19.536 12.3388 19.5348C12.2834 19.5335 12.2294 19.5312 12.1752 19.5275C12.1716 19.5287 12.1704 19.5287 12.1668 19.5275H12.1572C12.1247 19.5252 12.0935 19.5239 12.061 19.5215C11.9264 19.5131 11.7928 19.5023 11.6606 19.4866C11.6101 19.4818 11.5596 19.4758 11.509 19.4686C11.5019 19.4686 11.4959 19.4686 11.4898 19.4662C11.4622 19.4639 11.4357 19.4602 11.4093 19.4554C11.4032 19.4554 11.3972 19.4554 11.3912 19.4529C11.3336 19.4458 11.2758 19.4373 11.2181 19.4277C11.1748 19.4217 11.1315 19.4145 11.0882 19.4073C11.0533 19.4013 11.0184 19.3953 10.9836 19.3881C10.9391 19.3808 10.8958 19.3724 10.8513 19.3628C10.8189 19.3567 10.7863 19.3507 10.7527 19.3424C10.7515 19.3436 10.7503 19.3423 10.7479 19.3411C10.6722 19.3255 10.5964 19.3087 10.5207 19.2906C10.4449 19.2726 10.3703 19.2534 10.2957 19.2341C10.2296 19.2173 10.1648 19.1992 10.0998 19.18C10.0012 19.1512 9.90496 19.1211 9.80876 19.0899C9.73899 19.067 9.66933 19.0442 9.60074 19.0189C9.53579 18.996 9.47212 18.9732 9.40834 18.948C9.34585 18.9239 9.28325 18.8998 9.22194 18.8746C9.21231 18.8709 9.20151 18.8674 9.19187 18.8613C9.18952 18.8626 9.18823 18.8613 9.18588 18.859C9.12093 18.8325 9.05598 18.8048 8.99113 18.776H8.98984C8.95977 18.7639 8.92971 18.7508 8.90092 18.7363C8.87085 18.7231 8.84079 18.7098 8.81071 18.6954C8.80707 18.6954 8.80472 18.693 8.80226 18.6918C8.74458 18.6654 8.68926 18.6388 8.63277 18.6112C8.55573 18.574 8.47997 18.5355 8.40421 18.4958C8.32856 18.4561 8.25397 18.4152 8.18057 18.3731C8.1061 18.3311 8.03269 18.2889 7.96057 18.2444C7.64545 18.0557 7.34488 17.8476 7.05746 17.6228C6.77614 17.4027 6.50917 17.1646 6.25781 16.9133C6.41296 16.7666 6.57284 16.6247 6.73998 16.4888C6.8518 16.5597 6.9649 16.6283 7.08036 16.6933C7.13922 16.7282 7.19935 16.7606 7.26067 16.793C7.76573 17.0636 8.30322 17.2765 8.86606 17.4208C9.18708 17.5037 9.51655 17.5651 9.85083 17.6036C10.119 17.6348 10.392 17.6504 10.6674 17.6504C11.639 17.6504 12.5685 17.4556 13.4223 17.1009C13.7915 16.9493 14.1449 16.7678 14.4828 16.5586C15.44 15.9658 16.265 15.1577 16.8962 14.1957C16.9179 14.162 16.9407 14.1284 16.96 14.0947C16.9949 14.0442 17.0261 13.9925 17.0562 13.9408C17.1836 13.7327 17.3016 13.5175 17.4097 13.2962C17.5865 12.9367 17.7368 12.5615 17.8618 12.1731C18.1216 11.3566 18.2635 10.4824 18.2635 9.57331C18.2635 7.33188 17.4049 5.30327 16.0185 3.83984C18.9405 5.23353 20.9487 8.13874 20.9487 11.4973H20.9474Z" fill="#FFA015"/>
<path d="M22.7088 18.4091C22.692 18.8913 22.6018 20.4172 22.1016 20.4016C21.6771 19.9387 21.2057 19.4986 20.6923 19.0897C20.4674 18.9106 20.2389 18.741 20.0068 18.581C20.4662 18.3358 20.9917 18.1975 21.5484 18.1975C21.9573 18.1975 22.3493 18.2733 22.7101 18.4091L22.7088 18.4091Z" fill="#FFC44D"/>
<path d="M23.5927 22.3348C23.5927 22.3601 23.5927 22.3853 23.5915 22.4094C23.1838 21.7108 22.686 21.0349 22.1016 20.4024C22.6018 20.4181 22.692 18.8921 22.7089 18.4099C22.7101 18.4099 22.7113 18.4111 22.7124 18.4111C23.2801 19.533 23.5915 20.8462 23.5915 22.3348H23.5927Z" fill="#FFA015"/>
<path d="M18.2936 17.594C17.4411 19.334 15.6529 20.5232 13.7434 20.7565C13.3947 20.801 13.0387 20.8179 12.6864 20.8035C12.6864 20.8035 12.6851 20.8023 12.684 20.8035C10.8261 20.7397 9.00311 19.7945 7.95703 18.2469C8.34899 18.485 8.76503 18.6919 9.18833 18.8638C9.19796 18.8698 9.20995 18.8746 9.21958 18.8771C9.71383 19.0791 10.2285 19.2366 10.7504 19.3448C13.3598 19.9064 16.2048 19.2667 18.2936 17.594Z" fill="#FF8415"/>
<path d="M23.5887 22.4084C23.181 21.7098 22.6832 21.0341 22.0987 20.4016C21.6744 19.9386 21.2029 19.4985 20.6895 19.0896C20.4646 18.9105 20.2361 18.7409 20.004 18.581C19.6878 18.3621 19.3655 18.1613 19.0384 17.9786C18.8292 19.0978 18.0686 20.0757 16.9725 20.7625C16.6475 20.9411 15.7303 21.4088 14.6019 21.6696C14.0829 21.7666 13.5362 21.8137 12.9721 21.8013C12.5501 21.7917 12.14 21.7508 11.7432 21.6822C11.32 21.6076 10.9146 21.5006 10.5311 21.3636C10.5215 21.3599 10.5119 21.3576 10.5034 21.3539C9.61601 21.0341 8.84879 20.5591 8.26197 19.9771C8.11162 19.8279 7.97338 19.6716 7.84711 19.5093C7.74374 19.3747 7.64873 19.2363 7.56334 19.0932C7.41546 18.8467 7.29519 18.5882 7.20862 18.3212C7.20017 18.2984 7.19171 18.2743 7.18454 18.2503C7.12322 18.0459 7.07871 17.8367 7.05463 17.6239C6.77332 17.4037 6.50635 17.1657 6.25499 16.9143C6.07704 17.0814 5.90626 17.2547 5.74394 17.4326C5.72115 17.4567 5.69943 17.482 5.67664 17.5059C5.64175 17.5456 5.60569 17.5865 5.57198 17.6274C5.5203 17.6875 5.4698 17.7477 5.41928 17.809C5.37113 17.8679 5.32426 17.9281 5.2774 17.9882C5.23535 18.0422 5.19318 18.0976 5.15231 18.1529C5.12106 18.195 5.09099 18.2383 5.06093 18.2816C4.89979 18.5002 4.65999 18.9014 4.53062 19.1401L4.52827 19.1426C4.37076 19.4383 4.2324 19.7438 4.11705 20.0565C4.11572 20.062 4.1145 20.0678 4.1132 20.0734C4.11452 20.0677 4.11539 20.062 4.11673 20.0564C4.11073 20.0708 4.10593 20.0865 4.09994 20.1009C4.09908 20.1025 4.09875 20.1034 4.09875 20.1034C3.82814 20.8465 3.68262 21.6305 3.68262 22.441C3.68262 23.0494 3.75602 23.6422 3.89673 24.2134C4.6555 27.3074 7.35865 29.7834 10.8543 30.6479C11.7249 30.8632 12.6461 30.9787 13.5972 30.9787C18.3145 30.9787 22.3212 28.0626 23.3398 24.2375C23.3529 24.1894 23.365 24.1413 23.377 24.0933C23.4263 23.896 23.466 23.6952 23.4985 23.4932C23.5561 23.1373 23.5875 22.7753 23.5898 22.4085L23.5887 22.4084Z" fill="#FFA015"/>
<path d="M16.841 20.8446C16.8307 21.379 17.1376 24.2866 15.5011 26.18C13.9018 28.0303 10.7588 28.7418 7.526 27.358C6.07595 26.7372 4.40854 24.5699 4.04599 22.5131C4.03525 22.5033 3.95215 21.9889 3.95215 21.4549C3.95215 20.3752 4.15324 19.8466 4.52816 19.1426L4.53051 19.1401C4.97493 18.32 5.51116 17.6129 6.25489 16.9143C6.50625 17.1657 6.77322 17.4038 7.05453 17.6239C7.31445 19.9214 9.63784 21.4428 12.2254 21.744C13.2596 21.8644 15.0995 21.8032 16.841 20.8446Z" fill="#FFC44D"/>
<path d="M16.1379 21.2034C16.1379 21.2034 16.8113 22.7103 15.1231 23.8574C15.1231 23.8574 15.0401 23.1481 14.7656 23.0593C14.4482 22.9566 13.8675 23.0159 13.1579 23.1066C12.7329 23.161 10.1669 23.5358 9.91201 23.8037C9.72668 23.9986 9.74346 24.1737 9.80046 24.8647C9.84066 25.3519 9.82107 25.4532 9.95131 25.663C10.1686 26.0129 10.5262 26.1486 10.8836 26.3155C11.3404 26.5288 11.7979 26.6553 12.0427 26.7703C12.0427 26.7703 11.3933 26.8253 10.2314 26.5491C10.2314 26.5491 10.2438 26.792 10.4038 27.2043C10.5737 27.6422 10.6291 27.7096 10.7182 27.7752C10.8761 27.8915 11.0938 27.9007 11.3737 27.9493C11.6537 27.9979 11.9815 28.0147 12.4316 28.0579C12.4316 28.0579 11.694 28.2173 11.0321 28.2506C11.0321 28.2506 11.0738 28.3737 11.1799 28.5266C11.328 28.7401 11.3411 28.8054 11.7637 28.8534C12.3603 28.921 13.278 29.0662 14.7293 28.8169C19.3025 28.0313 20.837 23.5233 18.0959 19.8264C18.0959 19.8264 17.7493 20.1128 17.1772 20.5606C16.5193 21.0755 16.1379 21.2034 16.1379 21.2034Z" fill="#FFC44D"/>
<path d="M18.1478 19.7656C18.1478 19.7656 17.0452 20.66 17.0205 20.6782C17.1841 21.0812 17.2833 22.657 16.6282 24.1106C16.2305 24.993 16.0835 25.0192 14.9131 25.2789C14.4839 25.3741 13.1245 25.6722 12.2812 25.7894C12.5479 26.0672 12.839 26.8509 12.8506 27.9548C12.8541 28.2829 12.8152 28.6192 12.7731 28.9508C13.3204 28.9912 14.0067 28.9463 14.7288 28.8158C16.3339 28.5258 17.6849 27.8822 18.6182 26.4901C19.7759 24.7634 19.9435 22.3295 18.1478 19.7656Z" fill="#FFA015"/>
<path d="M3.60004 20.2391C3.2113 20.7829 2.99763 21.4266 2.77254 21.9665C2.57635 22.4371 0.842044 22.0788 0.990439 21.5153C1.29083 20.3746 1.69028 19.8918 1.69028 19.8918C1.69028 19.8918 3.98878 19.6952 3.60004 20.2391Z" fill="#FFD768"/>
<path d="M12.312 15.87C11.6978 15.7502 11.2002 15.1531 11.2002 14.54V13.5491C11.2002 12.9349 11.6978 12.5401 12.312 12.6663C12.9262 12.7926 13.4248 13.3908 13.4248 13.9996V14.983C13.4248 15.5929 12.9273 15.9899 12.312 15.869V15.87Z" fill="#4D1E38"/>
<path d="M5.1647 13.1656C4.604 13.0457 4.15137 12.4936 4.15137 11.9329V10.7462C4.15137 10.1855 4.60507 9.83455 5.1647 9.96189C5.72541 10.0882 6.17804 10.6424 6.17804 11.1978V12.3759C6.17804 12.9312 5.72434 13.2854 5.1647 13.1645V13.1656Z" fill="#4D1E38"/>
<path d="M6.71155 11.438L4.96738 9.05072C4.8807 8.93194 4.71377 8.90519 4.59393 8.99293L4.57147 9.00898C4.45269 9.09566 4.42595 9.26259 4.51369 9.38243L6.25893 11.7697C6.34561 11.8885 6.51253 11.9152 6.63237 11.8275L6.65484 11.8114C6.77361 11.7248 6.80036 11.5578 6.71262 11.438L6.71155 11.438Z" fill="#4D1E38"/>
<path d="M10.7254 13.8206L13.636 12.2572C13.7718 12.1845 13.8232 12.0143 13.7504 11.8774C13.6777 11.7404 13.5075 11.689 13.3706 11.7618L10.4601 13.3252C10.3242 13.3979 10.2728 13.5681 10.3456 13.705C10.4183 13.842 10.5885 13.8934 10.7254 13.8206Z" fill="#4D1E38"/>
<path d="M11.5068 16.1119V17.1359C11.5068 17.2355 11.4404 17.3211 11.3452 17.3467L8.58664 18.2895L7.46951 18.6693L6.83069 18.8876C6.42514 19.0256 5.98107 18.9935 5.59907 18.7988L2.63717 17.29L2.35897 17.1488C2.28193 17.1092 2.23912 17.0396 2.23163 16.9637C2.22949 16.9551 2.22949 16.9465 2.22949 16.938V15.9182L7.82155 17.5286H7.82262L10.3437 16.6576L11.4276 16.0188L11.5068 16.113V16.1119Z" fill="#E64D13"/>
<path d="M8.58629 17.2713L6.83035 17.8694C6.4248 18.0075 5.98073 17.9754 5.59872 17.7817L2.35863 16.1317C2.19384 16.0482 2.18528 15.8171 2.3415 15.7197L4.20446 14.5684L8.58629 17.2724V17.2713Z" fill="#F6762E"/>
<path d="M11.3853 15.9279C11.564 16.0178 11.5361 16.2821 11.3425 16.3324L6.81616 17.8733C6.77871 17.8808 6.73912 17.8851 6.69953 17.8851C6.61285 17.8851 6.5326 17.8679 6.4577 17.8369L6.39563 17.8059L3.05816 16.1045L2.9747 16.0617C2.79386 15.9547 2.67188 15.7567 2.67188 15.5288V15.5181C2.70183 15.4903 2.73394 15.4668 2.76711 15.4475L2.80884 15.425L2.82917 15.4154L5.53532 13.7429L5.88843 13.5246L5.9612 13.4861H5.96441C6.03289 13.4572 6.10566 13.4412 6.18377 13.4412C6.26188 13.4412 6.33358 13.4561 6.39993 13.484L6.47162 13.5203L11.3831 15.9279L11.3853 15.9279Z" fill="#F6762E"/>
<path d="M7.04757 17.7947L6.83035 17.8685C6.4248 18.0065 5.98073 17.9744 5.59872 17.7808L2.35863 16.1297C2.19384 16.0462 2.18528 15.8151 2.3415 15.7177L2.48489 15.6289C2.4667 15.7306 2.51164 15.8408 2.6165 15.8943L6.02995 17.6331C6.34561 17.7947 6.70194 17.8493 7.04757 17.7947Z" fill="#F89646"/>
<path d="M9.38199 14.9456L4.58176 16.8974L3.00879 16.0991L7.77946 14.1604L9.38199 14.9456Z" fill="#F89646"/>
<path d="M5.7915 15.0149C5.9306 15.0149 6.04295 14.9025 6.04295 14.7634C6.04295 14.6243 5.9306 14.512 5.7915 14.512C5.65239 14.512 5.54004 14.6243 5.54004 14.7634C5.54004 14.9025 5.65239 15.0149 5.7915 15.0149Z" fill="#D74C21"/>
<path d="M7.37353 15.9465C7.51263 15.9465 7.62499 15.8342 7.62499 15.6951C7.62499 15.556 7.51263 15.4436 7.37353 15.4436C7.23443 15.4436 7.12207 15.556 7.12207 15.6951C7.12207 15.8342 7.23443 15.9465 7.37353 15.9465Z" fill="#D74C21"/>
</g>
</svg>
