<svg width="25" height="25" viewBox="0 0 25 25" fill="none" xmlns="http://www.w3.org/2000/svg">
<path d="M21.2557 14.1484V4.43383C21.2557 3.73802 20.6937 3.17603 19.9979 3.17603H3.73205C3.03624 3.17603 2.47424 3.73802 2.47424 4.43383V14.1484C3.30921 14.1484 3.98361 14.8228 3.98361 15.6577H5.01662C5.02732 15.2724 5.33776 14.9673 5.72313 14.9673C6.1085 14.9673 6.41894 15.2777 6.42964 15.6577H7.468C7.4787 15.2724 7.78914 14.9673 8.17451 14.9673C8.55988 14.9673 8.87032 15.2777 8.88102 15.6577H9.91938C9.93009 15.2724 10.2405 14.9673 10.6259 14.9673C11.0113 14.9673 11.3217 15.2777 11.3324 15.6577H12.3708C12.3815 15.2724 12.6919 14.9673 13.0773 14.9673C13.4626 14.9673 13.7731 15.2777 13.7838 15.6577H14.8221C14.8329 15.2724 15.1433 14.9673 15.5287 14.9673C15.914 14.9673 16.2245 15.2777 16.2352 15.6577H17.2735C17.2842 15.2724 17.5947 14.9673 17.98 14.9673C18.3654 14.9673 18.6758 15.2777 18.6866 15.6577H19.7196C19.7196 14.8228 20.394 14.1484 21.2289 14.1484H21.2557Z" fill="#71737B"/>
<path d="M19.9979 3.17603H3.73205C3.03624 3.17603 2.47424 3.73802 2.47424 4.43383V4.88878C2.47424 4.19297 3.03624 3.63098 3.73205 3.63098H19.9979C20.6937 3.63098 21.2557 4.19297 21.2557 4.88878V4.43383C21.2557 3.73802 20.6937 3.17603 19.9979 3.17603Z" fill="#909196"/>
<g style="mix-blend-mode:multiply">
<path d="M2.47424 13.4204V14.1484C3.30921 14.1484 3.98361 14.8228 3.98361 15.6577H5.01662C5.02732 15.2724 5.33776 14.9673 5.72313 14.9673C6.1085 14.9673 6.41894 15.2777 6.42964 15.6577H7.468C7.4787 15.2724 7.78914 14.9673 8.17451 14.9673C8.55988 14.9673 8.87032 15.2777 8.88102 15.6577H9.91938C9.93009 15.2724 10.2405 14.9673 10.6259 14.9673C11.0113 14.9673 11.3217 15.2777 11.3324 15.6577H12.3708C12.3815 15.2724 12.6919 14.9673 13.0773 14.9673C13.4626 14.9673 13.7731 15.2777 13.7838 15.6577H14.8221C14.8329 15.2724 15.1433 14.9673 15.5287 14.9673C15.914 14.9673 16.2245 15.2777 16.2352 15.6577H17.2735C17.2842 15.2724 17.5947 14.9673 17.98 14.9673C18.3654 14.9673 18.6758 15.2777 18.6866 15.6577H19.7196C19.7196 14.8228 20.394 14.1484 21.2289 14.1484V9.24561C18.0817 10.2144 6.60092 12.7889 2.47424 13.4204Z" fill="#E7E8F0"/>
</g>
<path d="M19.7036 15.6631L18.6759 15.7701C18.6759 15.7701 18.6759 15.7808 18.6813 15.7862C18.7188 16.1769 18.4351 16.5248 18.0444 16.5676C17.6536 16.6104 17.3057 16.3214 17.2629 15.9307C17.2629 15.9253 17.2629 15.92 17.2629 15.9093L16.2299 16.0163C16.2299 16.0163 16.2299 16.027 16.2353 16.0324C16.2727 16.4231 15.9891 16.771 15.5983 16.8138C15.2076 16.8566 14.8597 16.5676 14.8169 16.1769C14.8169 16.1715 14.8169 16.1662 14.8169 16.1555L13.7839 16.2625C13.7839 16.2625 13.7839 16.2732 13.7892 16.2786C13.8267 16.6693 13.543 17.0172 13.1523 17.06C12.7616 17.1029 12.4137 16.8138 12.3709 16.4231C12.3709 16.4178 12.3709 16.4124 12.3709 16.4017L11.8517 16.4552L11.9748 17.6434C12.3655 17.606 12.7134 17.8897 12.7562 18.2804C12.7991 18.6711 12.51 19.019 12.1193 19.0618L12.2263 20.0895C12.6171 20.052 12.965 20.3357 13.0078 20.7264C13.0506 21.1171 12.7616 21.465 12.3709 21.5078L12.4404 22.2037L21.7803 21.2456L21.3468 17.0065C20.5172 17.0921 19.7732 16.4873 19.6875 15.6577L19.7036 15.6631Z" fill="#B0D356"/>
<path d="M12.6973 21.3955C12.6063 21.4544 12.4992 21.4972 12.3815 21.5079L12.4511 22.2037L21.7909 21.2457L21.4644 18.0557C18.6384 19.3991 15.6999 20.507 12.6919 21.3955H12.6973Z" fill="#A2C744"/>
<path d="M3.98361 15.6631H5.01662C5.01662 15.6631 5.01662 15.6738 5.01662 15.6845C5.01662 16.0752 5.33241 16.3964 5.72848 16.3964C6.12456 16.3964 6.44034 16.0806 6.44034 15.6845C6.44034 15.6791 6.44034 15.6738 6.44034 15.6631H7.4787C7.4787 15.6631 7.4787 15.6738 7.4787 15.6845C7.4787 16.0752 7.79449 16.3964 8.19057 16.3964C8.58664 16.3964 8.90243 16.0806 8.90243 15.6845C8.90243 15.6791 8.90243 15.6738 8.90243 15.6631H9.94079C9.94079 15.6631 9.94079 15.6738 9.94079 15.6845C9.94079 16.0752 10.2566 16.3964 10.6527 16.3964C11.0487 16.3964 11.3645 16.0806 11.3645 15.6845C11.3645 15.6791 11.3645 15.6738 11.3645 15.6631H11.8837V16.8567C11.493 16.8567 11.1718 17.1725 11.1718 17.5685C11.1718 17.9646 11.4876 18.2804 11.8837 18.2804V19.3134C11.493 19.3134 11.1718 19.6292 11.1718 20.0253C11.1718 20.4213 11.4876 20.7371 11.8837 20.7371V21.4383H2.47424V17.1725C3.30921 17.1725 3.98361 16.4981 3.98361 15.6631Z" fill="#71737B"/>
<path d="M15.5554 20.0841L15.1647 20.1269C15.1326 20.1269 15.1111 20.1269 15.0951 20.1162C15.079 20.1055 15.0737 20.0787 15.0683 20.052L15.0362 19.7415L14.6134 19.2866C14.5706 19.2384 14.5384 19.201 14.5224 19.1635C14.5063 19.126 14.4956 19.0725 14.4849 18.9976L14.4314 18.5319C14.4314 18.4998 14.4314 18.4784 14.4421 18.4623C14.4528 18.4463 14.4742 18.4356 14.5063 18.4356L14.881 18.3928C14.9131 18.3928 14.9345 18.3928 14.9506 18.4088C14.9666 18.4195 14.9773 18.4409 14.9773 18.473L15.0202 18.8691C15.0202 18.8691 15.0202 18.9012 15.0255 18.9173C15.0255 18.9333 15.0362 18.9494 15.0523 18.9655L15.1807 19.126C15.1807 19.126 15.2021 19.1474 15.2075 19.1528C15.2182 19.1581 15.2289 19.1581 15.245 19.1581H15.2717C15.2717 19.1581 15.2931 19.1474 15.3038 19.1421C15.3145 19.1367 15.3199 19.1207 15.3252 19.11L15.4162 18.9226C15.4162 18.9226 15.4323 18.8852 15.4323 18.8691C15.4323 18.8531 15.4323 18.8316 15.4323 18.8156L15.3895 18.4195C15.3895 18.3874 15.3895 18.366 15.4002 18.3499C15.4109 18.3339 15.4323 18.3232 15.4644 18.3232L15.823 18.2857C15.8551 18.2857 15.8765 18.2857 15.8926 18.3018C15.9086 18.3125 15.9194 18.3339 15.9194 18.366L15.9729 18.8316C15.9836 18.9066 15.9782 18.9601 15.9729 19.0029C15.9622 19.0404 15.9461 19.0886 15.914 19.1421L15.5982 19.6827L15.6303 19.9878C15.6303 20.0199 15.6303 20.0413 15.6143 20.0573C15.6036 20.0734 15.5822 20.0787 15.55 20.0841H15.5554ZM17.5893 19.8593L16.4653 19.9824C16.4332 19.9824 16.4118 19.9824 16.3957 19.9717C16.3797 19.961 16.3743 19.9342 16.369 19.9075L16.1977 18.3392C16.1977 18.3071 16.1977 18.2857 16.2084 18.2696C16.2191 18.2536 16.2405 18.2429 16.2726 18.2429L17.3966 18.1198C17.4287 18.1198 17.4501 18.1198 17.4662 18.1358C17.4822 18.1465 17.4929 18.168 17.4929 18.2001L17.5251 18.4837C17.5251 18.5159 17.5251 18.5373 17.509 18.5533C17.4983 18.5694 17.4769 18.5747 17.4448 18.5801L16.7757 18.655L16.7971 18.8423L17.2681 18.7888C17.3003 18.7888 17.3217 18.7888 17.3377 18.8049C17.3538 18.8156 17.3645 18.837 17.3645 18.8691L17.3913 19.126C17.3913 19.1581 17.3913 19.1795 17.3752 19.1956C17.3645 19.2117 17.3431 19.217 17.311 19.2224L16.84 19.2759L16.8614 19.4846L17.5304 19.4097C17.5625 19.4097 17.5839 19.4097 17.6 19.4258C17.6161 19.4365 17.6268 19.4579 17.6268 19.49L17.6589 19.7737C17.6589 19.8058 17.6589 19.8272 17.6428 19.8432C17.6321 19.8593 17.6107 19.8647 17.5786 19.87L17.5893 19.8593ZM18.7722 19.7308L18.0068 19.8165C17.9747 19.8165 17.9533 19.8165 17.9372 19.8058C17.9211 19.7951 17.9158 19.7683 17.9104 19.7415L17.8783 19.4579C17.8783 19.4258 17.8783 19.4043 17.889 19.3883C17.8997 19.3722 17.9211 19.3615 17.9533 19.3615L18.6062 19.2919C18.6062 19.2919 18.6437 19.2812 18.6491 19.2652C18.6598 19.2491 18.6651 19.2331 18.6598 19.2117C18.6598 19.1849 18.6491 19.1635 18.6384 19.1528C18.6277 19.1421 18.6116 19.1367 18.5902 19.1367L18.2209 19.126C18.1085 19.126 18.0121 19.0939 17.9372 19.0457C17.8623 18.9976 17.8194 18.9012 17.8034 18.7674L17.7766 18.5105C17.7606 18.3713 17.7927 18.2643 17.873 18.1787C17.9533 18.093 18.071 18.0448 18.2316 18.0288L18.9113 17.9539C18.9434 17.9539 18.9648 17.9539 18.9809 17.9699C18.997 17.9806 19.0077 18.002 19.0077 18.0341L19.0398 18.3232C19.0398 18.3553 19.0398 18.3767 19.0237 18.3928C19.013 18.4088 18.9916 18.4142 18.9595 18.4195L18.3975 18.4837C18.3975 18.4837 18.36 18.4944 18.3493 18.5105C18.3386 18.5266 18.3333 18.5426 18.3386 18.564C18.344 18.5854 18.3493 18.6015 18.36 18.6176C18.3707 18.6336 18.3921 18.639 18.4136 18.639L18.7775 18.6497C18.8899 18.6497 18.9863 18.6818 19.0612 18.7299C19.1361 18.7781 19.1843 18.8745 19.195 19.0083L19.2218 19.2652C19.2378 19.4043 19.2057 19.5114 19.1201 19.597C19.0398 19.6773 18.922 19.7308 18.7668 19.7469L18.7722 19.7308Z" fill="#443E74"/>
<path d="M5.92651 19.9129H5.56255C5.53043 19.9129 5.50902 19.9076 5.49297 19.8915C5.48226 19.8754 5.47156 19.854 5.47156 19.8219V18.243C5.47156 18.2109 5.47691 18.1895 5.49297 18.1787C5.50902 18.1627 5.53043 18.1573 5.56255 18.1573H5.81411C5.84622 18.1573 5.87298 18.1573 5.89439 18.1734C5.9158 18.1841 5.93721 18.2002 5.95862 18.2269L6.42963 18.7675V18.2483C6.42963 18.2162 6.43498 18.1948 6.45104 18.1841C6.4671 18.168 6.48851 18.1627 6.52062 18.1627H6.88458C6.9167 18.1627 6.93811 18.168 6.94881 18.1841C6.96487 18.1948 6.97022 18.2216 6.97022 18.2483V19.8273C6.97022 19.8594 6.96487 19.8808 6.94881 19.8969C6.93811 19.9076 6.91134 19.9183 6.88458 19.9183H6.52062C6.48851 19.9183 6.4671 19.9129 6.45104 19.8969C6.44034 19.8808 6.42963 19.8594 6.42963 19.8273V19.5275L6.01215 19.0244V19.8273C6.01215 19.8594 6.00679 19.8808 5.99074 19.8969C5.98003 19.9076 5.95327 19.9183 5.92651 19.9183V19.9129ZM8.79538 19.4526C8.79538 19.5275 8.78467 19.5971 8.76326 19.656C8.74185 19.7149 8.70439 19.7684 8.64551 19.8112C8.59199 19.854 8.5117 19.8862 8.41536 19.9129C8.31902 19.9397 8.19591 19.9504 8.04069 19.9504C7.88547 19.9504 7.76237 19.9397 7.66603 19.9129C7.56968 19.8862 7.4894 19.854 7.43052 19.8112C7.377 19.7684 7.33418 19.7149 7.31277 19.656C7.29136 19.5918 7.28066 19.5275 7.28066 19.4526V18.623C7.28066 18.5481 7.29136 18.4785 7.31277 18.4196C7.33418 18.3554 7.377 18.3072 7.43052 18.259C7.4894 18.2162 7.56433 18.1787 7.66603 18.1573C7.76772 18.1306 7.89083 18.1199 8.04069 18.1199C8.19056 18.1199 8.31366 18.1306 8.41536 18.1573C8.51705 18.1841 8.59199 18.2162 8.64551 18.259C8.70439 18.3019 8.74185 18.3554 8.76326 18.4196C8.78467 18.4785 8.79538 18.5481 8.79538 18.623V19.4526ZM7.8373 19.367C7.8373 19.3991 7.84801 19.4258 7.87477 19.4473C7.90153 19.4687 7.95505 19.4794 8.04069 19.4794C8.12633 19.4794 8.18521 19.4687 8.20662 19.4473C8.23338 19.4258 8.24408 19.3991 8.24408 19.367V18.714C8.24408 18.6819 8.23338 18.6551 8.20662 18.6337C8.17985 18.6123 8.12633 18.6016 8.04069 18.6016C7.95505 18.6016 7.89618 18.6123 7.87477 18.6337C7.84801 18.6551 7.8373 18.6819 7.8373 18.714V19.367Z" fill="#E9E3E9"/>
</svg>
