<svg width="24" height="25" viewBox="0 0 24 25" fill="none" xmlns="http://www.w3.org/2000/svg">
<g clip-path="url(#clip0_19958_32132)">
<path d="M22.1988 17.4245C21.9018 17.3383 21.5856 17.2856 21.2599 17.2856C20.7042 17.2856 20.182 17.4245 19.7222 17.6688C19.727 17.6688 19.727 17.6736 19.727 17.6736C19.7222 17.6736 19.7222 17.6688 19.7174 17.6688C19.4012 17.4485 19.0802 17.2521 18.7545 17.07C18.5102 16.9311 18.2611 16.8018 18.012 16.6868C17.988 16.7347 17.9641 16.7826 17.9353 16.8305C17.9593 16.7826 17.9832 16.7347 18.0072 16.6868C18.2755 16.4329 18.5294 16.1599 18.7641 15.8724C19.109 15.4557 19.4108 15.0006 19.6647 14.5215C19.6838 14.4832 19.703 14.4497 19.7222 14.4113C19.8563 14.1527 19.9808 13.8844 20.0862 13.6114C20.4503 12.6772 20.6515 11.6616 20.6515 10.603C20.6515 7.24967 18.6491 4.35147 15.7317 2.96225C17.1114 4.42333 17.1162 4.42333 15.7317 2.96225C14.5581 2.39698 13.2359 2.08081 11.8323 2.08081C9.37007 2.08081 7.14253 3.05327 5.54253 4.62452C5.54253 4.62452 5.54253 4.62452 5.53774 4.62931C4.00001 6.1383 3.04193 8.19818 3.0036 10.4736C3.0036 10.5167 3.0036 10.5551 3.0036 10.5982C3.0036 11.7431 3.23833 12.8401 3.66468 13.8365L2.57726 14.5072L2.55809 14.5167L2.51498 14.5407C2.48624 14.5551 2.46229 14.5742 2.43833 14.5982L2.23235 14.7227L2.08863 14.809C2.01678 14.8569 1.97845 14.9335 1.97845 15.0102V16.0257C1.97845 16.0353 1.97845 16.0449 1.97845 16.0497C1.98803 16.1263 2.02636 16.1934 2.1078 16.2365L2.38564 16.3754L4.39283 17.4006C4.0048 17.6018 3.63594 17.7742 3.38684 17.87C2.98923 18.0185 2.40001 18.1527 1.80121 18.306C1.94971 18.5215 2.103 18.7323 2.26109 18.9431C2.50061 19.2497 2.74971 19.5419 3.01318 19.8245C3.01798 19.8293 3.02277 19.8341 3.02756 19.8437C3.19043 20.0161 3.35809 20.179 3.53055 20.3419C3.58324 20.3946 3.64073 20.4425 3.69342 20.4952C4.18684 20.9407 4.71857 21.3479 5.27905 21.7072C5.47546 21.8317 5.67187 21.9515 5.87785 22.0664C6.98444 22.6892 8.206 23.1395 9.49462 23.3838C10.218 23.5179 10.9605 23.5898 11.727 23.5898C13.3892 23.5898 14.9749 23.2497 16.412 22.6365C17.3174 22.2485 18.1701 21.7551 18.9461 21.1706C19.8036 20.5191 20.5701 19.7575 21.2264 18.9048C21.2264 18.9048 21.9114 17.9419 22.1988 17.4245Z" fill="#DBDBDB"/>
<mask id="mask0_19958_32132" style="mask-type:luminance" maskUnits="userSpaceOnUse" x="-1" y="-1" width="25" height="25">
<path d="M11.7468 23.5901C18.3743 23.5901 23.7468 18.2175 23.7468 11.5901C23.7468 4.96268 18.3743 -0.409912 11.7468 -0.409912C5.11941 -0.409912 -0.253174 4.96268 -0.253174 11.5901C-0.253174 18.2175 5.11941 23.5901 11.7468 23.5901Z" fill="white"/>
</mask>
<g mask="url(#mask0_19958_32132)">
<path d="M0.485726 18.8976C-0.683405 19.0037 -1.55718 20.2196 -1.55718 20.2196C-1.55718 20.2196 -1.91492 20.6752 -2.25407 21.0759C-2.35021 21.1895 -2.38578 21.3605 -2.28875 21.9045C-2.13712 22.7545 -1.52429 22.7232 -1.52429 22.7232C-1.52429 22.7232 -1.57279 22.7984 -1.37398 23.5532C-1.1348 24.4613 -0.73856 24.3589 -0.161436 24.3636C-0.111668 24.646 -0.0400152 24.8287 0.0501995 25.092C0.180441 25.4722 0.738421 25.3888 1.32459 25.3787C2.69325 25.3553 3.22811 24.3324 3.19167 23.8752C3.18648 23.81 3.38942 23.3407 3.45704 23.0855C3.8189 21.7202 1.66309 18.7908 0.485726 18.8976Z" fill="#FFA015"/>
<path d="M0.272459 22.524C-0.322624 22.4567 -1.17844 22.4875 -1.71869 22.4265C-1.87455 22.4089 -2.2714 21.7932 -2.315 21.7427C-2.30756 21.7928 -2.29899 21.846 -2.28858 21.9043C-2.15594 22.6479 -1.67039 22.717 -1.55086 22.7227C-1.54292 22.7218 -1.53545 22.7207 -1.52699 22.7202C-0.915847 22.684 -0.133476 22.5955 0.272459 22.524Z" fill="#FFC44D"/>
<path d="M6.26816 16.384C6.26816 16.384 4.20636 17.5689 3.38953 17.8712C2.62867 18.1528 1.19246 18.3856 0.264276 18.7838C-0.971295 19.3138 -1.19129 19.704 -1.12557 19.965C-1.03558 20.3223 0.406968 19.7989 0.406968 19.7989C0.406968 19.7989 2.28518 20.1376 2.43401 20.8927C2.43401 20.8927 3.86784 22.4359 3.99377 23.4786C3.99377 23.4786 7.63211 21.3681 8.73428 18.039L6.26816 16.384Z" fill="#DBDBDB"/>
<path d="M8.73425 18.039C6.00466 19.399 5.37398 22.499 3.02876 24.4603C3.02769 24.4614 3.02661 24.4614 3.02661 24.4614C3.10433 24.2793 3.07739 24.0601 3.03871 23.8559C2.95782 23.429 3.04582 23.1199 2.65081 23.227C2.78056 23.0934 2.62337 22.6679 2.59431 22.4442C2.55552 22.1457 2.4312 21.8343 2.21335 21.8081C1.95624 21.7773 1.75563 21.8316 1.75563 21.8316C2.07958 21.5226 2.01545 21.3149 1.96691 21.05C1.87225 20.5335 1.81878 20.4749 1.38973 20.4139C0.991296 20.3573 0.731374 19.9715 0.586914 19.9372C0.802822 19.9481 1.26671 20.1125 1.86348 20.1159C1.89772 20.1159 1.93089 20.1149 1.96514 20.1149C2.12779 20.1106 2.29899 20.0935 2.47768 20.0592C2.93566 19.9715 2.82821 20.1117 3.17145 19.5986C4.15592 18.1268 7.00852 17.2031 7.00852 17.2031L8.73425 18.039Z" fill="#2E3240"/>
<path d="M2.0034 21.5227C2.0034 21.5227 1.62834 22.2511 -0.0483398 22.5738C-0.0483398 22.5738 1.42685 22.6075 2.07977 21.7993L2.0034 21.5227Z" fill="#FF8415"/>
<path d="M2.57071 23.2843C2.57071 23.2843 2.31145 24.0566 0.800537 24.2817C0.800537 24.2817 2.40295 24.3267 2.91984 23.2026L2.57071 23.2843Z" fill="#FF8415"/>
<path d="M8.7347 18.0389C6.18477 19.309 5.46677 22.0975 3.47113 24.0589C3.33096 24.197 3.18329 24.3307 3.02921 24.4602C3.02814 24.4613 3.02706 24.4613 3.02706 24.4613C3.10518 24.2794 3.07736 24.06 3.03883 23.8556C2.95858 23.4287 3.02418 23.1237 2.62933 23.2307C2.78742 23.0901 2.62365 22.6679 2.59476 22.4442C2.55623 22.1457 2.43104 21.8343 2.21382 21.8076C1.95701 21.7776 1.75584 21.8311 1.75584 21.8311C2.08006 21.5229 2.01586 21.3153 1.96771 21.05C1.95272 20.9665 1.93774 20.8948 1.92277 20.8327V20.8317C1.92277 20.8306 1.92277 20.8295 1.9217 20.8285C1.911 20.7856 1.9003 20.7471 1.88852 20.714V20.7129C1.82967 20.5492 1.74835 20.486 1.57179 20.4464C1.52043 20.4347 1.4605 20.425 1.38988 20.4143C1.36313 20.4101 1.33638 20.4047 1.31069 20.3972C0.95651 20.3063 0.722173 19.9692 0.587341 19.9371C0.777808 19.9467 1.16089 20.0762 1.65846 20.1083C1.7248 20.1126 1.79329 20.1158 1.86391 20.1158C1.89815 20.1158 1.93132 20.1147 1.96556 20.1147C2.06721 20.1126 2.17101 20.104 2.27909 20.0901C2.34436 20.0826 2.4107 20.0719 2.47811 20.0591C2.93609 19.9713 2.82802 20.1115 3.1715 19.599C4.15594 18.1266 7.00869 17.2031 7.00869 17.2031L8.7347 18.0389Z" fill="#979797"/>
<path d="M15.7637 2.96103C14.5841 2.39706 13.2553 2.08081 11.8484 2.08081C9.38087 2.08081 7.15025 3.05603 5.54613 4.62889C5.54496 4.63008 5.54378 4.63128 5.5426 4.63369C4.00098 6.14402 3.0402 8.20991 3.00531 10.491C3.22049 11.4975 3.61256 12.433 4.14523 13.258C4.24271 13.4083 4.34372 13.5537 4.44944 13.6969C4.89918 14.3029 5.42949 14.8392 6.02359 15.2866C6.08843 15.3359 6.15338 15.3828 6.21951 15.4296C6.22679 15.4345 6.23395 15.4404 6.24123 15.4453C6.32181 15.5018 6.40238 15.5571 6.48531 15.6101C6.59713 15.681 6.71013 15.7495 6.82558 15.8144C6.88454 15.8493 6.94468 15.8818 7.00599 15.9143C7.51105 16.1848 8.04854 16.3977 8.61127 16.542C8.93239 16.6249 9.26186 16.6863 9.59614 16.7247C9.6214 16.7272 9.64547 16.7307 9.67073 16.732C9.91481 16.7584 10.1625 16.7716 10.4126 16.7716C10.9321 16.7716 11.4395 16.7164 11.929 16.6093C12.3559 16.5179 12.7708 16.3881 13.1675 16.2221C13.5367 16.0706 13.8902 15.889 14.2282 15.6798C15.1853 15.0869 16.0102 14.2789 16.6415 13.3168C16.6632 13.2832 16.6861 13.2495 16.7053 13.2158C16.7401 13.1653 16.7714 13.1136 16.8014 13.0619C16.929 12.8539 17.0468 12.6387 17.1549 12.4174C17.3317 12.0579 17.4821 11.6827 17.6071 11.2943C17.8668 10.4778 18.0087 9.60358 18.0087 8.6945C18.0087 6.45305 17.1502 4.42446 15.7637 2.96103ZM7.88376 3.69335C8.64253 3.38913 9.39413 3.48532 9.56492 3.9086C9.73441 4.33187 9.25706 4.92109 8.4983 5.22533C7.73953 5.52955 6.98674 5.43457 6.81714 5.01129C6.64765 4.58801 7.12499 3.99879 7.88376 3.69335Z" fill="#C1C1C1"/>
<path d="M8.49903 5.19102C7.74026 5.49525 6.98748 5.40025 6.81787 4.97698C6.64838 4.5537 7.12572 3.96448 7.88449 3.65904C8.64326 3.35482 9.39487 3.45102 9.56553 3.8743C9.73514 4.29758 9.2578 4.88678 8.49903 5.19102Z" fill="#DBDBDB"/>
<path d="M6.48571 15.5756C6.31857 15.7114 6.15871 15.8533 6.00355 16C5.8256 16.1672 5.65482 16.3403 5.49249 16.5183C5.43354 16.4606 5.37468 16.4016 5.31807 16.3403C5.27485 16.2958 5.2328 16.2513 5.19191 16.2056C3.83059 14.705 3.00452 12.7365 3.00452 10.584C3.00452 10.5419 3.00452 10.4986 3.00569 10.4565C3.22099 11.463 3.61294 12.3986 4.14572 13.2235C4.65431 14.0123 5.29046 14.7002 6.02398 15.2521C6.08893 15.3014 6.15388 15.3495 6.22002 15.3952C6.22718 15.4 6.23446 15.406 6.24163 15.4108C6.32221 15.4673 6.40279 15.5226 6.48571 15.5756Z" fill="#979797"/>
<path d="M18.7889 17.0646C18.5616 18.2802 17.685 19.33 16.4332 20.0202C16.3586 20.0623 16.2829 20.102 16.2059 20.1405C16.1026 20.1922 15.9955 20.2415 15.8873 20.2884H15.8861C15.6311 20.399 15.3654 20.4964 15.0888 20.5782C14.9265 20.6263 14.7605 20.6684 14.591 20.7069C14.0017 20.8367 13.3729 20.9016 12.7211 20.8872C12.2991 20.8776 11.8889 20.8367 11.4922 20.7682C11.0689 20.6936 10.6636 20.5866 10.28 20.4496C10.2704 20.4459 10.2609 20.4436 10.2524 20.4399C9.36491 20.1201 8.5978 19.6451 8.01099 19.0631C7.86065 18.9139 7.7224 18.7576 7.59613 18.5953C7.49266 18.4607 7.39774 18.3223 7.31235 18.1792C7.16437 17.9327 7.0442 17.6742 6.95752 17.4072C6.94917 17.3844 6.94072 17.3603 6.93355 17.3362C6.87224 17.1319 6.82773 16.9226 6.80365 16.7097C7.0489 16.9021 7.30507 17.0825 7.57087 17.2473C7.61528 17.2761 7.66108 17.3038 7.70677 17.3314C7.74154 17.3832 7.77889 17.4361 7.81613 17.4866C7.84983 17.5323 7.88354 17.578 7.9196 17.6225C7.92923 17.6356 7.93875 17.6477 7.95085 17.6609C7.9761 17.6946 8.00253 17.7271 8.03025 17.7596C8.05069 17.7836 8.07112 17.8089 8.09274 17.8328C8.12035 17.8654 8.14806 17.8978 8.17695 17.929C8.18294 17.9351 8.18893 17.9423 8.19493 17.9483C8.23699 17.9953 8.2815 18.0421 8.32601 18.0878C8.35972 18.1227 8.39332 18.1563 8.42821 18.19C8.45228 18.2141 8.47636 18.2382 8.50161 18.2598C8.54131 18.2995 8.58218 18.3367 8.62424 18.3728C8.66875 18.4137 8.71444 18.4522 8.76131 18.4907C8.78774 18.5135 8.81299 18.5351 8.84071 18.5556C8.88522 18.5916 8.92962 18.6265 8.97414 18.6602C9.03791 18.7084 9.10158 18.7552 9.16771 18.8009C9.23266 18.8466 9.30008 18.8911 9.36738 18.9343C9.5021 19.0209 9.64153 19.1028 9.78459 19.1784C9.83873 19.2073 9.89405 19.2362 9.95055 19.2626C9.97581 19.2759 10.0022 19.2879 10.0275 19.3C10.0924 19.3312 10.1574 19.3613 10.2235 19.3889C10.2981 19.4214 10.3739 19.4527 10.4508 19.4815C10.5073 19.5032 10.5651 19.5248 10.6228 19.5441C10.6239 19.5441 10.6264 19.5464 10.6287 19.5464C10.6733 19.5633 10.7178 19.5777 10.7623 19.5909C10.8032 19.6054 10.844 19.6174 10.8849 19.6295C10.9667 19.6547 11.0496 19.6775 11.1315 19.6979C11.1567 19.7052 11.182 19.7112 11.2072 19.7172C11.2325 19.7244 11.2577 19.7292 11.283 19.7353C11.3239 19.7448 11.3647 19.7533 11.4056 19.7617C11.4164 19.7641 11.426 19.7665 11.4357 19.7677C11.4958 19.781 11.5571 19.7918 11.6173 19.8014C11.6713 19.811 11.7266 19.8206 11.7808 19.8278C11.7879 19.829 11.794 19.8302 11.8 19.8302H11.8024C11.8794 19.8423 11.9575 19.8519 12.0356 19.8591C12.0778 19.8639 12.121 19.8687 12.1644 19.8711C12.2498 19.8783 12.3363 19.8843 12.4229 19.888H12.4362C12.5191 19.8915 12.602 19.8928 12.6851 19.8928C12.7535 19.8928 12.8221 19.8915 12.8894 19.8892C12.9075 19.8892 12.9255 19.888 12.9436 19.8868C13.0662 19.8832 13.1877 19.8735 13.3079 19.8615C13.3284 19.8615 13.3488 19.8579 13.3693 19.8554C13.4101 19.8519 13.4498 19.8471 13.4883 19.841H13.4932C13.5063 19.8398 13.5184 19.8375 13.5316 19.8363C13.5809 19.829 13.6302 19.8218 13.6783 19.8134C13.6999 19.811 13.7228 19.8074 13.7444 19.8026C13.7781 19.7978 13.8118 19.7905 13.8454 19.7845C13.8791 19.7797 13.9128 19.7725 13.9453 19.7653C13.9597 19.7617 13.9742 19.7592 13.9885 19.7569C14.0318 19.7484 14.0752 19.7388 14.1172 19.728C14.1677 19.7172 14.2182 19.7039 14.2687 19.6908C14.3192 19.6775 14.3686 19.6643 14.4178 19.6499C14.5188 19.621 14.6175 19.5898 14.716 19.5549C14.7461 19.5452 14.7761 19.5344 14.8062 19.5236C14.8519 19.508 14.8989 19.4899 14.9433 19.4719C14.9614 19.4658 14.9782 19.4587 14.995 19.4514C15.1152 19.4045 15.2332 19.3528 15.3485 19.2975C15.3714 19.2867 15.3942 19.2759 15.4171 19.2638C15.4603 19.2422 15.5037 19.2206 15.5457 19.199C15.5902 19.1761 15.6347 19.152 15.6781 19.128C15.6949 19.1184 15.7105 19.1099 15.7273 19.1003C15.7755 19.0727 15.8235 19.045 15.8705 19.0161C15.9114 18.9921 15.9509 18.9681 15.9895 18.9416C16.0063 18.9332 16.022 18.9224 16.0388 18.9103C16.0556 18.9007 16.0725 18.8887 16.0881 18.8779C16.0941 18.8755 16.1013 18.8707 16.1073 18.8659C16.135 18.8478 16.1639 18.8285 16.1915 18.8081C16.1963 18.8057 16.1999 18.8033 16.2048 18.7985C16.2264 18.7853 16.248 18.7697 16.2697 18.7528C16.3058 18.7275 16.343 18.6999 16.3791 18.6722C16.4068 18.6506 16.4344 18.6301 16.4621 18.6085C16.5427 18.5459 16.6196 18.4823 16.6966 18.415C16.705 18.4077 16.7145 18.4005 16.723 18.3921C16.7639 18.356 16.8048 18.3188 16.8456 18.2802C16.8589 18.2683 16.8733 18.2562 16.8866 18.2417C16.895 18.2345 16.9034 18.2273 16.9106 18.2189C16.9611 18.1708 17.0092 18.1227 17.0573 18.0722C17.1174 18.0109 17.1752 17.9483 17.2305 17.8846C17.281 17.8293 17.3291 17.7715 17.3748 17.7138C17.394 17.6922 17.412 17.6693 17.4289 17.6465C17.4505 17.6213 17.4698 17.5947 17.4891 17.5695C17.5035 17.5515 17.5178 17.5323 17.5323 17.513C17.5504 17.4889 17.5672 17.4661 17.5828 17.4432C17.602 17.4168 17.6213 17.3904 17.6405 17.3628C17.7908 17.145 17.9255 16.9166 18.0433 16.6785H18.0445C18.2947 16.7964 18.5436 16.925 18.7889 17.0646Z" fill="#C1C1C1"/>
<path d="M20.6943 10.5845C20.6943 11.6451 20.4935 12.6612 20.1267 13.5979C20.0209 13.872 19.8995 14.1402 19.7636 14.3988C19.7456 14.436 19.7263 14.4721 19.7059 14.5093C19.4485 14.9891 19.1455 15.4425 18.8016 15.8622C18.5683 16.1496 18.3158 16.4213 18.0453 16.6763C18.0453 16.6763 18.0448 16.6767 18.044 16.6775C18.044 16.6775 18.044 16.6786 18.0428 16.6786C17.9863 16.7232 17.9298 16.7677 17.8733 16.8097C17.7927 16.871 17.7109 16.93 17.628 16.9877C17.5715 17.0274 17.515 17.0671 17.4572 17.1056C17.3118 17.203 17.1626 17.2968 17.0111 17.3845C16.9654 17.4122 16.9197 17.4387 16.8728 17.4639C16.7911 17.5108 16.708 17.5553 16.6251 17.5986C16.5553 17.6359 16.4844 17.672 16.4135 17.7056C16.3449 17.7393 16.2776 17.7717 16.2078 17.803C16.1417 17.8331 16.0755 17.8632 16.0082 17.892C15.9456 17.9197 15.8831 17.9449 15.8195 17.9702C15.7881 17.9834 15.7569 17.9955 15.7244 18.0074C15.6836 18.0242 15.6427 18.0399 15.6017 18.0543C15.5332 18.0796 15.4646 18.1048 15.395 18.1289C15.3252 18.153 15.2555 18.1758 15.1857 18.1986C15.1159 18.2203 15.045 18.2419 14.974 18.2623C14.8743 18.2924 14.7733 18.3201 14.6723 18.3454C14.5821 18.3681 14.4907 18.3899 14.3993 18.4103C14.3752 18.4163 14.35 18.4211 14.3247 18.4271C14.2814 18.4356 14.237 18.4452 14.1925 18.4535C14.1696 18.4584 14.1468 18.4632 14.1227 18.4668C14.0409 18.4824 13.958 18.4969 13.875 18.51C13.8582 18.5137 13.8413 18.5161 13.8245 18.5185C13.7464 18.5305 13.667 18.5414 13.5876 18.5522C13.5322 18.5594 13.4769 18.5666 13.4216 18.5715C13.3664 18.5786 13.3111 18.5834 13.2557 18.5883C13.127 18.6002 12.9972 18.6099 12.8661 18.6159C12.8 18.6195 12.7338 18.622 12.6677 18.6231C12.6316 18.6255 12.5967 18.6255 12.5606 18.6255C12.5078 18.628 12.4561 18.628 12.4031 18.628C12.3214 18.628 12.2396 18.6267 12.1591 18.6243C12.1338 18.6243 12.1097 18.6231 12.0856 18.622C12.0303 18.6207 11.9763 18.6183 11.9221 18.6147C11.9185 18.6159 11.9173 18.6159 11.9137 18.6147H11.9041C11.8716 18.6123 11.8404 18.6111 11.8079 18.6087C11.6732 18.6002 11.5397 18.5894 11.4074 18.5738C11.3569 18.569 11.3064 18.563 11.2559 18.5557C11.2488 18.5557 11.2428 18.5557 11.2367 18.5534C11.2091 18.551 11.1826 18.5474 11.1562 18.5426C11.1501 18.5426 11.1441 18.5426 11.1381 18.5401C11.0804 18.533 11.0227 18.5245 10.965 18.5149C10.9217 18.5089 10.8784 18.5017 10.8351 18.4944C10.8002 18.4884 10.7653 18.4824 10.7304 18.4753C10.686 18.468 10.6427 18.4595 10.5982 18.45C10.5658 18.4439 10.5332 18.4379 10.4996 18.4296C10.4984 18.4308 10.4972 18.4295 10.4948 18.4283C10.4191 18.4127 10.3433 18.3959 10.2676 18.3778C10.1918 18.3598 10.1172 18.3406 10.0426 18.3213C9.9765 18.3045 9.91165 18.2864 9.8467 18.2672C9.74805 18.2384 9.65185 18.2083 9.55565 18.177C9.48588 18.1542 9.41622 18.1314 9.34763 18.1061C9.28268 18.0832 9.21901 18.0604 9.15523 18.0352C9.09274 18.0111 9.03014 17.987 8.96883 17.9617C8.9592 17.9581 8.9484 17.9546 8.93876 17.9485C8.93641 17.9498 8.93512 17.9485 8.93277 17.9461C8.86782 17.9197 8.80287 17.892 8.73802 17.8632H8.73673C8.70666 17.8511 8.6766 17.8379 8.64781 17.8235C8.61774 17.8102 8.58767 17.797 8.5576 17.7826C8.55396 17.7826 8.55161 17.7802 8.54915 17.779C8.49147 17.7526 8.43615 17.726 8.37966 17.6984C8.30262 17.6612 8.22686 17.6226 8.1511 17.5829C8.07545 17.5432 8.00086 17.5024 7.92746 17.4603C7.85299 17.4183 7.77958 17.3761 7.70746 17.3316C7.39234 17.1428 7.09176 16.9348 6.80435 16.71C6.52303 16.4899 6.25606 16.2518 6.0047 16.0005C6.15985 15.8538 6.31973 15.7119 6.48687 15.576C6.59869 15.6469 6.71179 15.7155 6.82725 15.7805C6.88611 15.8153 6.94624 15.8478 7.00756 15.8802C7.51262 16.1508 8.05011 16.3636 8.61295 16.508C8.93397 16.5909 9.26344 16.6522 9.59772 16.6907C9.86587 16.722 10.1388 16.7376 10.4143 16.7376C11.3859 16.7376 12.3154 16.5428 13.1692 16.188C13.5384 16.0365 13.8918 15.8549 14.2297 15.6457C15.1869 15.0529 16.0119 14.2448 16.6431 13.2829C16.6648 13.2491 16.6876 13.2156 16.7069 13.1819C16.7418 13.1313 16.773 13.0797 16.8031 13.028C16.9305 12.8199 17.0485 12.6047 17.1566 12.3834C17.3334 12.0239 17.4837 11.6487 17.6087 11.2603C17.8685 10.4438 18.0104 9.56956 18.0104 8.66048C18.0104 6.41904 17.1518 4.39043 15.7654 2.927C18.6874 4.32069 20.6956 7.2259 20.6956 10.5845H20.6943Z" fill="#B5B5B5"/>
<path d="M22.4566 17.4952C22.4398 17.9775 22.3496 19.5034 21.8493 19.4878C21.4248 19.0249 20.9535 18.5848 20.44 18.1759C20.2151 17.9968 19.9867 17.8272 19.7546 17.6672C20.214 17.4219 20.7394 17.2837 21.2962 17.2837C21.7051 17.2837 22.097 17.3595 22.4578 17.4952L22.4566 17.4952Z" fill="#DBDBDB"/>
<path d="M23.3403 21.4203C23.3403 21.4455 23.3403 21.4708 23.3391 21.4949C22.9314 20.7962 22.4336 20.1204 21.8492 19.4879C22.3494 19.5035 22.4396 17.9775 22.4565 17.4954C22.4577 17.4954 22.4589 17.4965 22.4601 17.4965C23.0277 18.6185 23.3391 19.9316 23.3391 21.4203H23.3403Z" fill="#FFA015"/>
<path d="M18.0425 16.6785C17.19 18.4185 15.4019 19.6077 13.4924 19.841C13.1436 19.8855 12.7876 19.9024 12.4354 19.888C12.4354 19.888 12.4341 19.8868 12.4329 19.888C10.5751 19.8242 8.75207 18.879 7.70599 17.3314C8.09796 17.5695 8.51399 17.7763 8.93729 17.9483C8.94692 17.9543 8.95891 17.9591 8.96854 17.9616C9.4628 18.1636 9.97749 18.3211 10.4993 18.4293C13.1088 18.9908 15.9538 18.3512 18.0425 16.6785Z" fill="#979797"/>
<path d="M23.337 21.4946C22.9294 20.796 22.4316 20.1203 21.8471 19.4878C21.4227 19.0247 20.9513 18.5846 20.4379 18.1758C20.2129 17.9966 19.9845 17.827 19.7524 17.6672C19.4362 17.4483 19.1139 17.2475 18.7868 17.0647C18.5775 18.184 17.817 19.1619 16.7209 19.8487C16.3959 20.0273 15.4786 20.495 14.3502 20.7557C13.8313 20.8528 13.2845 20.8999 12.7205 20.8875C12.2984 20.8779 11.8884 20.837 11.4915 20.7684C11.0683 20.6938 10.663 20.5868 10.2795 20.4497C10.2698 20.4461 10.2602 20.4437 10.2518 20.4401C9.36437 20.1203 8.59714 19.6453 8.01033 19.0633C7.85998 18.9141 7.72174 18.7578 7.59547 18.5955C7.4921 18.4608 7.39708 18.3225 7.31169 18.1794C7.16382 17.9329 7.04354 17.6744 6.95698 17.4074C6.94852 17.3846 6.94007 17.3605 6.93289 17.3364C6.87158 17.1321 6.82706 16.9229 6.80299 16.71C6.52167 16.4899 6.2547 16.2518 6.00334 16.0005C5.8254 16.1676 5.65462 16.3409 5.49229 16.5188C5.46951 16.5429 5.44779 16.5681 5.42499 16.5921C5.39011 16.6318 5.35405 16.6727 5.32034 16.7136C5.26866 16.7737 5.21815 16.8338 5.16764 16.8952C5.11948 16.9541 5.07262 17.0142 5.02575 17.0744C4.9837 17.1284 4.94154 17.1837 4.90066 17.2391C4.86942 17.2812 4.83934 17.3245 4.80928 17.3678C4.64814 17.5864 4.40835 17.9875 4.27897 18.2263L4.27662 18.2287C4.11911 18.5245 3.98075 18.83 3.8654 19.1427C3.86407 19.1482 3.86286 19.154 3.86155 19.1595C3.86288 19.1539 3.86375 19.1482 3.86508 19.1426C3.85908 19.157 3.85428 19.1726 3.84829 19.1871C3.84743 19.1887 3.84711 19.1895 3.84711 19.1895C3.57649 19.9327 3.43097 20.7167 3.43097 21.5272C3.43097 22.1356 3.50437 22.7284 3.64508 23.2996C4.40385 26.3936 7.10701 28.8696 10.6026 29.7341C11.4732 29.9494 12.3944 30.0649 13.3456 30.0649C18.0629 30.0649 22.0696 27.1488 23.0881 23.3237C23.1013 23.2756 23.1134 23.2275 23.1254 23.1794C23.1747 22.9822 23.2144 22.7814 23.2468 22.5794C23.3045 22.2235 23.3359 21.8615 23.3382 21.4946L23.337 21.4946Z" fill="#B5B5B5"/>
<path d="M16.5893 19.9308C16.579 20.4652 16.8859 23.3728 15.2494 25.2662C13.6501 27.1165 10.5071 27.828 7.27429 26.4441C5.82424 25.8234 4.15683 23.6561 3.79428 21.5993C3.78354 21.5895 3.70044 21.075 3.70044 20.5411C3.70044 19.4614 3.90153 18.9328 4.27645 18.2288L4.2788 18.2263C4.72322 17.4062 5.25945 16.6991 6.00318 16.0005C6.25454 16.2518 6.52151 16.4899 6.80283 16.71C7.06274 19.0076 9.38614 20.529 11.9737 20.8302C13.0079 20.9506 14.8478 20.8894 16.5893 19.9308Z" fill="#C1C1C1"/>
<path d="M15.8873 20.2884C15.8873 20.2884 16.5607 21.7952 14.8725 22.9424C14.8725 22.9424 14.7895 22.233 14.515 22.1442C14.1976 22.0416 13.6169 22.1008 12.9073 22.1916C12.4823 22.246 9.91627 22.6208 9.6614 22.8887C9.47607 23.0835 9.49285 23.2587 9.54985 23.9496C9.59005 24.4369 9.57046 24.5382 9.7007 24.748C9.91795 25.0979 10.2756 25.2336 10.633 25.4005C11.0898 25.6138 11.5473 25.7403 11.7921 25.8553C11.7921 25.8553 11.1427 25.9102 9.98076 25.6341C9.98076 25.6341 9.99321 25.8769 10.1532 26.2893C10.3231 26.7271 10.3785 26.7945 10.4676 26.8602C10.6255 26.9765 10.8432 26.9857 11.1231 27.0343C11.4031 27.0829 11.7309 27.0996 12.181 27.1429C12.181 27.1429 11.4434 27.3022 10.7814 27.3356C10.7814 27.3356 10.8232 27.4587 10.9293 27.6116C11.0774 27.8251 11.0905 27.8904 11.5131 27.9383C12.1097 28.006 13.0274 28.1512 14.4787 27.9019C19.0519 27.1163 20.5864 22.6083 17.8453 18.9114C17.8453 18.9114 17.4987 19.1978 16.9266 19.6456C16.2687 20.1605 15.8873 20.2884 15.8873 20.2884Z" fill="#C1C1C1"/>
<path d="M17.8979 18.8516C17.8979 18.8516 16.7953 19.7459 16.7707 19.7641C16.9342 20.1672 17.0334 21.7429 16.3783 23.1966C15.9806 24.0789 15.8336 24.1052 14.6632 24.3648C14.2341 24.46 12.8746 24.7582 12.0314 24.8754C12.298 25.1532 12.5891 25.9368 12.6008 27.0407C12.6042 27.3688 12.5653 27.7052 12.5232 28.0368C13.0705 28.0772 13.7569 28.0323 14.4789 27.9018C16.084 27.6117 17.435 26.9682 18.3684 25.576C19.5261 23.8493 19.6937 21.4154 17.8979 18.8516Z" fill="#C1C1C1"/>
<path d="M3.34528 19.3245C2.95654 19.8684 2.74287 20.512 2.51778 21.052C2.32159 21.5226 0.587283 21.1642 0.735679 20.6007C1.03607 19.46 1.43552 18.9772 1.43552 18.9772C1.43552 18.9772 3.73402 18.7806 3.34528 19.3245Z" fill="#DBDBDB"/>
<path d="M12.0571 14.955C11.4429 14.8352 10.9453 14.2381 10.9453 13.6249V12.6341C10.9453 12.0199 11.4429 11.625 12.0571 11.7513C12.6713 11.8776 13.1699 12.4757 13.1699 13.0846V14.068C13.1699 14.6779 12.6724 15.0749 12.0571 14.9539V14.955Z" fill="#2F2F2F"/>
<path d="M4.91306 12.2508C4.35236 12.1309 3.89972 11.5788 3.89972 11.0181V9.83144C3.89972 9.27073 4.35342 8.91975 4.91306 9.04709C5.47376 9.17336 5.92639 9.72764 5.92639 10.283V11.4611C5.92639 12.0165 5.47269 12.3706 4.91306 12.2497V12.2508Z" fill="#2F2F2F"/>
<path d="M6.456 10.5225L4.71182 8.13519C4.62514 8.01642 4.45822 7.98967 4.33838 8.07741L4.31591 8.09345C4.19714 8.18013 4.17039 8.34706 4.25813 8.46691L6.00337 10.8542C6.09005 10.973 6.25698 10.9997 6.37682 10.912L6.39928 10.8959C6.51806 10.8092 6.54481 10.6423 6.45707 10.5225L6.456 10.5225Z" fill="#2F2F2F"/>
<path d="M10.4723 12.906L13.3828 11.3427C13.5187 11.2699 13.57 11.0998 13.4973 10.9628C13.4245 10.8258 13.2544 10.7745 13.1174 10.8472L10.2069 12.4106C10.071 12.4834 10.0196 12.6535 10.0924 12.7905C10.1652 12.9274 10.3353 12.9788 10.4723 12.906Z" fill="#2F2F2F"/>
<path d="M11.2553 15.1988V16.2229C11.2553 16.3224 11.1889 16.408 11.0937 16.4337L8.33511 17.3764L7.21799 17.7562L6.57917 17.9745C6.17362 18.1126 5.72955 18.0805 5.34754 17.8857L2.38565 16.3769L2.10744 16.2357C2.0304 16.1961 1.9876 16.1265 1.9801 16.0506C1.97797 16.042 1.97797 16.0334 1.97797 16.0249V15.0051L7.57003 16.6155H7.5711L10.0921 15.7445L11.1761 15.1057L11.2553 15.1999V15.1988Z" fill="#818181"/>
<path d="M8.3352 16.3589L6.57925 16.9571C6.17371 17.0951 5.72964 17.063 5.34763 16.8693L2.10753 15.2193C1.94274 15.1359 1.93418 14.9047 2.09041 14.8074L3.95336 13.656L8.3352 16.36V16.3589Z" fill="#8F8F8F"/>
<path d="M11.1354 15.0156C11.3141 15.1055 11.2863 15.3698 11.0926 15.4201L6.56629 16.9609C6.52884 16.9684 6.48925 16.9727 6.44965 16.9727C6.36297 16.9727 6.28273 16.9556 6.20782 16.9246L6.14576 16.8935L2.80829 15.1922L2.72482 15.1494C2.54398 15.0423 2.422 14.8444 2.422 14.6165V14.6058C2.45196 14.5779 2.48406 14.5544 2.51723 14.5351L2.55896 14.5127L2.5793 14.5031L5.28545 12.8306L5.63856 12.6123L5.71133 12.5738H5.71454C5.78302 12.5449 5.85579 12.5288 5.9339 12.5288C6.01201 12.5288 6.0837 12.5438 6.15005 12.5716L6.22175 12.608L11.1333 15.0156L11.1354 15.0156Z" fill="#9A9A9A"/>
<path d="M6.79647 16.8831L6.57925 16.9569C6.17371 17.0949 5.72964 17.0628 5.34763 16.8691L2.10753 15.2181C1.94274 15.1346 1.93418 14.9035 2.09041 14.8061L2.23379 14.7173C2.2156 14.8189 2.26054 14.9292 2.3654 14.9827L5.77885 16.7215C6.09451 16.8831 6.45084 16.9376 6.79647 16.8831Z" fill="#8F8F8F"/>
<path d="M9.12821 14.0323L4.32798 15.984L2.755 15.1858L7.52568 13.2471L9.12821 14.0323Z" fill="#8F8F8F"/>
<path d="M5.53906 14.1018C5.67816 14.1018 5.79051 13.9894 5.79051 13.8503C5.79051 13.7112 5.67816 13.5989 5.53906 13.5989C5.39995 13.5989 5.2876 13.7112 5.2876 13.8503C5.2876 13.9894 5.39995 14.1018 5.53906 14.1018Z" fill="#818181"/>
<path d="M7.11859 15.0329C7.25769 15.0329 7.37004 14.9206 7.37004 14.7815C7.37004 14.6424 7.25769 14.53 7.11859 14.53C6.97948 14.53 6.86713 14.6424 6.86713 14.7815C6.86713 14.9206 6.97948 15.0329 7.11859 15.0329Z" fill="#818181"/>
</g>
</g>
<defs>
<clipPath id="clip0_19958_32132">
<rect width="24" height="24" fill="white" transform="translate(0 0.5)"/>
</clipPath>
</defs>
</svg>
