<svg width="25" height="25" viewBox="0 0 25 25" fill="none" xmlns="http://www.w3.org/2000/svg">
<path d="M21.2557 14.1484V4.43383C21.2557 3.73802 20.6937 3.17603 19.9979 3.17603H3.73204C3.03623 3.17603 2.47423 3.73802 2.47423 4.43383V14.1484C3.3092 14.1484 3.9836 14.8228 3.9836 15.6577H5.0166C5.02731 15.2724 5.33774 14.9673 5.72311 14.9673C6.10848 14.9673 6.41892 15.2777 6.42963 15.6577H7.46799C7.47869 15.2724 7.78913 14.9673 8.1745 14.9673C8.55987 14.9673 8.8703 15.2777 8.88101 15.6577H9.91937C9.93007 15.2724 10.2405 14.9673 10.6259 14.9673C11.0112 14.9673 11.3217 15.2777 11.3324 15.6577H12.3708C12.3815 15.2724 12.6919 14.9673 13.0773 14.9673C13.4626 14.9673 13.7731 15.2777 13.7838 15.6577H14.8221C14.8328 15.2724 15.1433 14.9673 15.5286 14.9673C15.914 14.9673 16.2245 15.2777 16.2352 15.6577H17.2735C17.2842 15.2724 17.5947 14.9673 17.98 14.9673C18.3654 14.9673 18.6758 15.2777 18.6865 15.6577H19.7195C19.7195 14.8228 20.3939 14.1484 21.2289 14.1484H21.2557Z" fill="#71737B"/>
<path d="M19.9979 3.17603H3.73204C3.03623 3.17603 2.47423 3.73802 2.47423 4.43383V4.88878C2.47423 4.19297 3.03623 3.63098 3.73204 3.63098H19.9979C20.6937 3.63098 21.2557 4.19297 21.2557 4.88878V4.43383C21.2557 3.73802 20.6937 3.17603 19.9979 3.17603Z" fill="#909196"/>
<g style="mix-blend-mode:multiply">
<path d="M2.47426 13.4204V14.1484C3.30923 14.1484 3.98363 14.8228 3.98363 15.6577H5.01664C5.02734 15.2724 5.33778 14.9673 5.72315 14.9673C6.10852 14.9673 6.41895 15.2777 6.42966 15.6577H7.46802C7.47872 15.2724 7.78916 14.9673 8.17453 14.9673C8.5599 14.9673 8.87034 15.2777 8.88104 15.6577H9.9194C9.93011 15.2724 10.2405 14.9673 10.6259 14.9673C11.0113 14.9673 11.3217 15.2777 11.3324 15.6577H12.3708C12.3815 15.2724 12.6919 14.9673 13.0773 14.9673C13.4627 14.9673 13.7731 15.2777 13.7838 15.6577H14.8222C14.8329 15.2724 15.1433 14.9673 15.5287 14.9673C15.914 14.9673 16.2245 15.2777 16.2352 15.6577H17.2735C17.2843 15.2724 17.5947 14.9673 17.9801 14.9673C18.3654 14.9673 18.6759 15.2777 18.6866 15.6577H19.7196C19.7196 14.8228 20.394 14.1484 21.2289 14.1484V9.24561C18.0818 10.2144 6.60093 12.7889 2.47426 13.4204Z" fill="#E7E8F0"/>
</g>
<path d="M19.7035 15.6631L18.6759 15.7701C18.6759 15.7701 18.6759 15.7808 18.6812 15.7862C18.7187 16.1769 18.435 16.5248 18.0443 16.5676C17.6536 16.6104 17.3057 16.3214 17.2629 15.9307C17.2629 15.9253 17.2629 15.92 17.2629 15.9093L16.2298 16.0163C16.2298 16.0163 16.2298 16.027 16.2352 16.0324C16.2727 16.4231 15.989 16.771 15.5983 16.8138C15.2075 16.8566 14.8596 16.5676 14.8168 16.1769C14.8168 16.1715 14.8168 16.1662 14.8168 16.1555L13.7838 16.2625C13.7838 16.2625 13.7838 16.2732 13.7892 16.2786C13.8266 16.6693 13.543 17.0172 13.1522 17.06C12.7615 17.1029 12.4136 16.8138 12.3708 16.4231C12.3708 16.4178 12.3708 16.4124 12.3708 16.4017L11.8516 16.4552L11.9747 17.6434C12.3654 17.606 12.7133 17.8897 12.7562 18.2804C12.799 18.6711 12.51 19.019 12.1192 19.0618L12.2263 20.0895C12.617 20.052 12.9649 20.3357 13.0077 20.7264C13.0505 21.1171 12.7615 21.465 12.3708 21.5078L12.4404 22.2037L21.7802 21.2456L21.3467 17.0065C20.5171 17.0921 19.7731 16.4873 19.6875 15.6577L19.7035 15.6631Z" fill="#B0D356"/>
<path d="M12.6973 21.3955C12.6063 21.4544 12.4992 21.4972 12.3815 21.5079L12.4511 22.2037L21.7909 21.2457L21.4645 18.0557C18.6384 19.3991 15.7 20.507 12.6919 21.3955H12.6973Z" fill="#A2C744"/>
<path d="M3.98363 15.6631H5.01663C5.01663 15.6631 5.01663 15.6738 5.01663 15.6845C5.01663 16.0752 5.33242 16.3964 5.7285 16.3964C6.12457 16.3964 6.44036 16.0806 6.44036 15.6845C6.44036 15.6791 6.44036 15.6738 6.44036 15.6631H7.47872C7.47872 15.6631 7.47872 15.6738 7.47872 15.6845C7.47872 16.0752 7.79451 16.3964 8.19059 16.3964C8.58666 16.3964 8.90245 16.0806 8.90245 15.6845C8.90245 15.6791 8.90245 15.6738 8.90245 15.6631H9.94081C9.94081 15.6631 9.94081 15.6738 9.94081 15.6845C9.94081 16.0752 10.2566 16.3964 10.6527 16.3964C11.0487 16.3964 11.3645 16.0806 11.3645 15.6845C11.3645 15.6791 11.3645 15.6738 11.3645 15.6631H11.8837V16.8567C11.493 16.8567 11.1719 17.1725 11.1719 17.5685C11.1719 17.9646 11.4876 18.2804 11.8837 18.2804V19.3134C11.493 19.3134 11.1719 19.6292 11.1719 20.0253C11.1719 20.4213 11.4876 20.7371 11.8837 20.7371V21.4383H2.47426V17.1725C3.30923 17.1725 3.98363 16.4981 3.98363 15.6631Z" fill="#71737B"/>
<path d="M15.5554 20.0841L15.1647 20.1269C15.1326 20.1269 15.1112 20.1269 15.0951 20.1162C15.0791 20.1055 15.0737 20.0787 15.0684 20.052L15.0362 19.7415L14.6134 19.2866C14.5706 19.2384 14.5385 19.201 14.5224 19.1635C14.5064 19.126 14.4957 19.0725 14.4849 18.9976L14.4314 18.5319C14.4314 18.4998 14.4314 18.4784 14.4421 18.4623C14.4528 18.4463 14.4742 18.4356 14.5064 18.4356L14.881 18.3928C14.9131 18.3928 14.9345 18.3928 14.9506 18.4088C14.9667 18.4195 14.9774 18.4409 14.9774 18.473L15.0202 18.8691C15.0202 18.8691 15.0202 18.9012 15.0255 18.9173C15.0255 18.9333 15.0362 18.9494 15.0523 18.9655L15.1808 19.126C15.1808 19.126 15.2022 19.1474 15.2075 19.1528C15.2182 19.1581 15.2289 19.1581 15.245 19.1581H15.2717C15.2717 19.1581 15.2932 19.1474 15.3039 19.1421C15.3146 19.1367 15.3199 19.1207 15.3253 19.11L15.4163 18.9226C15.4163 18.9226 15.4323 18.8852 15.4323 18.8691C15.4323 18.8531 15.4323 18.8316 15.4323 18.8156L15.3895 18.4195C15.3895 18.3874 15.3895 18.366 15.4002 18.3499C15.4109 18.3339 15.4323 18.3232 15.4644 18.3232L15.823 18.2857C15.8552 18.2857 15.8766 18.2857 15.8926 18.3018C15.9087 18.3125 15.9194 18.3339 15.9194 18.366L15.9729 18.8316C15.9836 18.9066 15.9783 18.9601 15.9729 19.0029C15.9622 19.0404 15.9461 19.0886 15.914 19.1421L15.5982 19.6827L15.6304 19.9878C15.6304 20.0199 15.6304 20.0413 15.6143 20.0573C15.6036 20.0734 15.5822 20.0787 15.5501 20.0841H15.5554ZM17.5893 19.8593L16.4653 19.9824C16.4332 19.9824 16.4118 19.9824 16.3957 19.9717C16.3797 19.961 16.3743 19.9342 16.369 19.9075L16.1977 18.3392C16.1977 18.3071 16.1977 18.2857 16.2084 18.2696C16.2191 18.2536 16.2405 18.2429 16.2726 18.2429L17.3966 18.1198C17.4287 18.1198 17.4502 18.1198 17.4662 18.1358C17.4823 18.1465 17.493 18.168 17.493 18.2001L17.5251 18.4837C17.5251 18.5159 17.5251 18.5373 17.509 18.5533C17.4983 18.5694 17.4769 18.5747 17.4448 18.5801L16.7758 18.655L16.7972 18.8423L17.2682 18.7888C17.3003 18.7888 17.3217 18.7888 17.3378 18.8049C17.3538 18.8156 17.3645 18.837 17.3645 18.8691L17.3913 19.126C17.3913 19.1581 17.3913 19.1795 17.3752 19.1956C17.3645 19.2117 17.3431 19.217 17.311 19.2224L16.84 19.2759L16.8614 19.4846L17.5304 19.4097C17.5626 19.4097 17.584 19.4097 17.6 19.4258C17.6161 19.4365 17.6268 19.4579 17.6268 19.49L17.6589 19.7737C17.6589 19.8058 17.6589 19.8272 17.6428 19.8432C17.6321 19.8593 17.6107 19.8647 17.5786 19.87L17.5893 19.8593ZM18.7722 19.7308L18.0068 19.8165C17.9747 19.8165 17.9533 19.8165 17.9372 19.8058C17.9212 19.7951 17.9158 19.7683 17.9105 19.7415L17.8783 19.4579C17.8783 19.4258 17.8783 19.4043 17.8891 19.3883C17.8998 19.3722 17.9212 19.3615 17.9533 19.3615L18.6063 19.2919C18.6063 19.2919 18.6437 19.2812 18.6491 19.2652C18.6598 19.2491 18.6651 19.2331 18.6598 19.2117C18.6598 19.1849 18.6491 19.1635 18.6384 19.1528C18.6277 19.1421 18.6116 19.1367 18.5902 19.1367L18.2209 19.126C18.1085 19.126 18.0122 19.0939 17.9372 19.0457C17.8623 18.9976 17.8195 18.9012 17.8034 18.7674L17.7767 18.5105C17.7606 18.3713 17.7927 18.2643 17.873 18.1787C17.9533 18.093 18.071 18.0448 18.2316 18.0288L18.9114 17.9539C18.9435 17.9539 18.9649 17.9539 18.9809 17.9699C18.997 17.9806 19.0077 18.002 19.0077 18.0341L19.0398 18.3232C19.0398 18.3553 19.0398 18.3767 19.0238 18.3928C19.013 18.4088 18.9916 18.4142 18.9595 18.4195L18.3975 18.4837C18.3975 18.4837 18.3601 18.4944 18.3494 18.5105C18.3387 18.5266 18.3333 18.5426 18.3387 18.564C18.344 18.5854 18.3494 18.6015 18.3601 18.6176C18.3708 18.6336 18.3922 18.639 18.4136 18.639L18.7775 18.6497C18.8899 18.6497 18.9863 18.6818 19.0612 18.7299C19.1362 18.7781 19.1843 18.8745 19.195 19.0083L19.2218 19.2652C19.2378 19.4043 19.2057 19.5114 19.1201 19.597C19.0398 19.6773 18.9221 19.7308 18.7668 19.7469L18.7722 19.7308Z" fill="#443E74"/>
<path d="M5.92652 19.9129H5.56256C5.53045 19.9129 5.50904 19.9076 5.49298 19.8915C5.48228 19.8754 5.47157 19.854 5.47157 19.8219V18.243C5.47157 18.2109 5.47693 18.1895 5.49298 18.1787C5.50904 18.1627 5.53045 18.1573 5.56256 18.1573H5.81412C5.84624 18.1573 5.873 18.1573 5.89441 18.1734C5.91582 18.1841 5.93723 18.2002 5.95864 18.2269L6.42965 18.7675V18.2483C6.42965 18.2162 6.435 18.1948 6.45106 18.1841C6.46711 18.168 6.48852 18.1627 6.52064 18.1627H6.8846C6.91671 18.1627 6.93812 18.168 6.94883 18.1841C6.96488 18.1948 6.97023 18.2216 6.97023 18.2483V19.8273C6.97023 19.8594 6.96488 19.8808 6.94883 19.8969C6.93812 19.9076 6.91136 19.9183 6.8846 19.9183H6.52064C6.48852 19.9183 6.46711 19.9129 6.45106 19.8969C6.44035 19.8808 6.42965 19.8594 6.42965 19.8273V19.5275L6.01216 19.0244V19.8273C6.01216 19.8594 6.00681 19.8808 5.99075 19.8969C5.98005 19.9076 5.95329 19.9183 5.92652 19.9183V19.9129ZM8.79539 19.4526C8.79539 19.5275 8.78469 19.5971 8.76328 19.656C8.74187 19.7149 8.7044 19.7684 8.64552 19.8112C8.592 19.854 8.51172 19.8862 8.41537 19.9129C8.31903 19.9397 8.19593 19.9504 8.04071 19.9504C7.88549 19.9504 7.76238 19.9397 7.66604 19.9129C7.5697 19.8862 7.48941 19.854 7.43054 19.8112C7.37701 19.7684 7.3342 19.7149 7.31279 19.656C7.29138 19.5918 7.28067 19.5275 7.28067 19.4526V18.623C7.28067 18.5481 7.29138 18.4785 7.31279 18.4196C7.3342 18.3554 7.37701 18.3072 7.43054 18.259C7.48941 18.2162 7.56435 18.1787 7.66604 18.1573C7.76774 18.1306 7.89084 18.1199 8.04071 18.1199C8.19057 18.1199 8.31368 18.1306 8.41537 18.1573C8.51707 18.1841 8.592 18.2162 8.64552 18.259C8.7044 18.3019 8.74187 18.3554 8.76328 18.4196C8.78469 18.4785 8.79539 18.5481 8.79539 18.623V19.4526ZM7.83732 19.367C7.83732 19.3991 7.84802 19.4258 7.87478 19.4473C7.90155 19.4687 7.95507 19.4794 8.04071 19.4794C8.12635 19.4794 8.18522 19.4687 8.20663 19.4473C8.23339 19.4258 8.2441 19.3991 8.2441 19.367V18.714C8.2441 18.6819 8.23339 18.6551 8.20663 18.6337C8.17987 18.6123 8.12635 18.6016 8.04071 18.6016C7.95507 18.6016 7.89619 18.6123 7.87478 18.6337C7.84802 18.6551 7.83732 18.6819 7.83732 18.714V19.367Z" fill="#E9E3E9"/>
</svg>
