<svg width="24" height="25" viewBox="0 0 24 25" fill="none" xmlns="http://www.w3.org/2000/svg">
<path d="M20.9224 14.1486V4.43407C20.9224 3.73827 20.3604 3.17627 19.6646 3.17627H3.39874C2.70293 3.17627 2.14093 3.73827 2.14093 4.43407V14.1486C2.9759 14.1486 3.6503 14.823 3.6503 15.658H4.6833C4.69401 15.2726 5.00444 14.9675 5.38981 14.9675C5.77519 14.9675 6.08562 15.278 6.09633 15.658H7.13469C7.14539 15.2726 7.45583 14.9675 7.8412 14.9675C8.22657 14.9675 8.537 15.278 8.54771 15.658H9.58607C9.59677 15.2726 9.90721 14.9675 10.2926 14.9675C10.6779 14.9675 10.9884 15.278 10.9991 15.658H12.0375C12.0482 15.2726 12.3586 14.9675 12.744 14.9675C13.1293 14.9675 13.4398 15.278 13.4505 15.658H14.4888C14.4995 15.2726 14.81 14.9675 15.1953 14.9675C15.5807 14.9675 15.8912 15.278 15.9019 15.658H16.9402C16.9509 15.2726 17.2614 14.9675 17.6467 14.9675C18.0321 14.9675 18.3425 15.278 18.3532 15.658H19.3862C19.3862 14.823 20.0606 14.1486 20.8956 14.1486H20.9224Z" fill="#F6F6F6"/>
<path d="M19.6646 3.17627H3.39874C2.70293 3.17627 2.14093 3.73827 2.14093 4.43408V4.88903C2.14093 4.19322 2.70293 3.63122 3.39874 3.63122H19.6646C20.3604 3.63122 20.9224 4.19322 20.9224 4.88903V4.43408C20.9224 3.73827 20.3604 3.17627 19.6646 3.17627Z" fill="#F6F6F6"/>
<g style="mix-blend-mode:multiply">
<path d="M2.14093 13.4207V14.1486C2.9759 14.1486 3.6503 14.823 3.6503 15.658H4.6833C4.69401 15.2726 5.00445 14.9675 5.38982 14.9675C5.77519 14.9675 6.08562 15.278 6.09633 15.658H7.13469C7.14539 15.2726 7.45583 14.9675 7.8412 14.9675C8.22657 14.9675 8.53701 15.278 8.54771 15.658H9.58607C9.59677 15.2726 9.90721 14.9675 10.2926 14.9675C10.678 14.9675 10.9884 15.278 10.9991 15.658H12.0375C12.0482 15.2726 12.3586 14.9675 12.744 14.9675C13.1293 14.9675 13.4398 15.278 13.4505 15.658H14.4888C14.4995 15.2726 14.81 14.9675 15.1953 14.9675C15.5807 14.9675 15.8912 15.278 15.9019 15.658H16.9402C16.9509 15.2726 17.2614 14.9675 17.6467 14.9675C18.0321 14.9675 18.3425 15.278 18.3532 15.658H19.3862C19.3862 14.823 20.0606 14.1486 20.8956 14.1486V9.24585C17.7484 10.2146 6.2676 12.7891 2.14093 13.4207Z" fill="#E9E3E9"/>
</g>
<path d="M19.3702 15.6633L18.3425 15.7704C18.3425 15.7704 18.3425 15.7811 18.3479 15.7864C18.3853 16.1771 18.1017 16.525 17.7109 16.5679C17.3202 16.6107 16.9723 16.3217 16.9295 15.9309C16.9295 15.9256 16.9295 15.9202 16.9295 15.9095L15.8965 16.0166C15.8965 16.0166 15.8965 16.0273 15.9018 16.0326C15.9393 16.4233 15.6556 16.7713 15.2649 16.8141C14.8742 16.8569 14.5263 16.5679 14.4835 16.1771C14.4835 16.1718 14.4835 16.1664 14.4835 16.1557L13.4505 16.2628C13.4505 16.2628 13.4505 16.2735 13.4558 16.2788C13.4933 16.6696 13.2096 17.0175 12.8189 17.0603C12.4282 17.1031 12.0802 16.8141 12.0374 16.4233C12.0374 16.418 12.0374 16.4126 12.0374 16.4019L11.5182 16.4555L11.6414 17.6437C12.0321 17.6062 12.38 17.8899 12.4228 18.2806C12.4656 18.6713 12.1766 19.0192 11.7859 19.0621L11.8929 20.0897C12.2836 20.0523 12.6315 20.3359 12.6744 20.7266C12.7172 21.1174 12.4282 21.4653 12.0374 21.5081L12.107 22.2039L21.4469 21.2458L21.0133 17.0068C20.1837 17.0924 19.4397 16.4876 19.3541 15.658L19.3702 15.6633Z" fill="#B0D356"/>
<path d="M12.3639 21.3958C12.273 21.4547 12.1659 21.4975 12.0482 21.5082L12.1177 22.204L21.4576 21.2459L21.1311 18.0559C18.3051 19.3994 15.3666 20.5073 12.3586 21.3958H12.3639Z" fill="#A2C744"/>
<path d="M3.6503 15.6633H4.6833C4.6833 15.6633 4.6833 15.674 4.6833 15.6847C4.6833 16.0755 4.99909 16.3966 5.39517 16.3966C5.79124 16.3966 6.10703 16.0808 6.10703 15.6847C6.10703 15.6794 6.10703 15.674 6.10703 15.6633H7.14539C7.14539 15.6633 7.14539 15.674 7.14539 15.6847C7.14539 16.0755 7.46118 16.3966 7.85725 16.3966C8.25333 16.3966 8.56912 16.0808 8.56912 15.6847C8.56912 15.6794 8.56912 15.674 8.56912 15.6633H9.60748C9.60748 15.6633 9.60748 15.674 9.60748 15.6847C9.60748 16.0755 9.92327 16.3966 10.3193 16.3966C10.7154 16.3966 11.0312 16.0808 11.0312 15.6847C11.0312 15.6794 11.0312 15.674 11.0312 15.6633H11.5504V16.8569C11.1597 16.8569 10.8385 17.1727 10.8385 17.5688C10.8385 17.9648 11.1543 18.2806 11.5504 18.2806V19.3136C11.1597 19.3136 10.8385 19.6294 10.8385 20.0255C10.8385 20.4216 11.1543 20.7374 11.5504 20.7374V21.4385H2.14093V17.1727C2.9759 17.1727 3.6503 16.4983 3.6503 15.6633Z" fill="#F6F6F6"/>
<path d="M15.2221 20.0843L14.8314 20.1272C14.7992 20.1272 14.7778 20.1272 14.7618 20.1165C14.7457 20.1058 14.7404 20.079 14.735 20.0522L14.7029 19.7418L14.2801 19.2868C14.2372 19.2387 14.2051 19.2012 14.1891 19.1637C14.173 19.1263 14.1623 19.0727 14.1516 18.9978L14.0981 18.5322C14.0981 18.5 14.0981 18.4786 14.1088 18.4626C14.1195 18.4465 14.1409 18.4358 14.173 18.4358L14.5477 18.393C14.5798 18.393 14.6012 18.393 14.6173 18.4091C14.6333 18.4198 14.644 18.4412 14.644 18.4733L14.6868 18.8694C14.6868 18.8694 14.6868 18.9015 14.6922 18.9175C14.6922 18.9336 14.7029 18.9496 14.719 18.9657L14.8474 19.1263C14.8474 19.1263 14.8688 19.1477 14.8742 19.153C14.8849 19.1584 14.8956 19.1584 14.9116 19.1584H14.9384C14.9384 19.1584 14.9598 19.1477 14.9705 19.1423C14.9812 19.137 14.9866 19.1209 14.9919 19.1102L15.0829 18.9229C15.0829 18.9229 15.099 18.8854 15.099 18.8694C15.099 18.8533 15.099 18.8319 15.099 18.8158L15.0562 18.4198C15.0562 18.3876 15.0562 18.3662 15.0669 18.3502C15.0776 18.3341 15.099 18.3234 15.1311 18.3234L15.4897 18.2859C15.5218 18.2859 15.5432 18.2859 15.5593 18.302C15.5753 18.3127 15.586 18.3341 15.586 18.3662L15.6396 18.8319C15.6503 18.9068 15.6449 18.9603 15.6396 19.0032C15.6289 19.0406 15.6128 19.0888 15.5807 19.1423L15.2649 19.6829L15.297 19.988C15.297 20.0201 15.297 20.0415 15.281 20.0576C15.2703 20.0736 15.2488 20.079 15.2167 20.0843H15.2221ZM17.256 19.8595L16.132 19.9826C16.0999 19.9826 16.0785 19.9826 16.0624 19.9719C16.0463 19.9612 16.041 19.9345 16.0356 19.9077L15.8644 18.3395C15.8644 18.3074 15.8644 18.2859 15.8751 18.2699C15.8858 18.2538 15.9072 18.2431 15.9393 18.2431L17.0633 18.12C17.0954 18.12 17.1168 18.12 17.1329 18.1361C17.1489 18.1468 17.1596 18.1682 17.1596 18.2003L17.1918 18.484C17.1918 18.5161 17.1918 18.5375 17.1757 18.5536C17.165 18.5696 17.1436 18.575 17.1115 18.5803L16.4424 18.6553L16.4638 18.8426L16.9348 18.7891C16.967 18.7891 16.9884 18.7891 17.0044 18.8051C17.0205 18.8158 17.0312 18.8372 17.0312 18.8694L17.0579 19.1263C17.0579 19.1584 17.0579 19.1798 17.0419 19.1958C17.0312 19.2119 17.0098 19.2173 16.9777 19.2226L16.5066 19.2761L16.5281 19.4849L17.1971 19.4099C17.2292 19.4099 17.2506 19.4099 17.2667 19.426C17.2827 19.4367 17.2934 19.4581 17.2934 19.4902L17.3256 19.7739C17.3256 19.806 17.3256 19.8274 17.3095 19.8435C17.2988 19.8595 17.2774 19.8649 17.2453 19.8702L17.256 19.8595ZM18.4389 19.7311L17.6735 19.8167C17.6413 19.8167 17.6199 19.8167 17.6039 19.806C17.5878 19.7953 17.5825 19.7686 17.5771 19.7418L17.545 19.4581C17.545 19.426 17.545 19.4046 17.5557 19.3885C17.5664 19.3725 17.5878 19.3618 17.6199 19.3618L18.2729 19.2922C18.2729 19.2922 18.3104 19.2815 18.3157 19.2654C18.3265 19.2494 18.3318 19.2333 18.3265 19.2119C18.3265 19.1851 18.3157 19.1637 18.305 19.153C18.2943 19.1423 18.2783 19.137 18.2569 19.137L17.8876 19.1263C17.7752 19.1263 17.6788 19.0942 17.6039 19.046C17.5289 18.9978 17.4861 18.9015 17.4701 18.7677L17.4433 18.5107C17.4273 18.3716 17.4594 18.2645 17.5397 18.1789C17.6199 18.0933 17.7377 18.0451 17.8983 18.029L18.578 17.9541C18.6101 17.9541 18.6315 17.9541 18.6476 17.9702C18.6637 17.9809 18.6744 18.0023 18.6744 18.0344L18.7065 18.3234C18.7065 18.3555 18.7065 18.3769 18.6904 18.393C18.6797 18.4091 18.6583 18.4144 18.6262 18.4198L18.0642 18.484C18.0642 18.484 18.0267 18.4947 18.016 18.5107C18.0053 18.5268 18 18.5429 18.0053 18.5643C18.0107 18.5857 18.016 18.6017 18.0267 18.6178C18.0374 18.6339 18.0588 18.6392 18.0802 18.6392L18.4442 18.6499C18.5566 18.6499 18.6529 18.682 18.7279 18.7302C18.8028 18.7784 18.851 18.8747 18.8617 19.0085L18.8884 19.2654C18.9045 19.4046 18.8724 19.5116 18.7868 19.5973C18.7065 19.6776 18.5887 19.7311 18.4335 19.7471L18.4389 19.7311Z" fill="#443E74"/>
<path d="M5.5932 19.9132H5.22923C5.19712 19.9132 5.17571 19.9078 5.15965 19.8917C5.14895 19.8757 5.13824 19.8543 5.13824 19.8222V18.2432C5.13824 18.2111 5.1436 18.1897 5.15965 18.179C5.17571 18.1629 5.19712 18.1576 5.22923 18.1576H5.4808C5.51291 18.1576 5.53967 18.1576 5.56108 18.1736C5.58249 18.1843 5.6039 18.2004 5.62531 18.2272L6.09632 18.7678V18.2486C6.09632 18.2165 6.10167 18.1951 6.11773 18.1843C6.13378 18.1683 6.15519 18.1629 6.18731 18.1629H6.55127C6.58338 18.1629 6.60479 18.1683 6.6155 18.1843C6.63155 18.1951 6.63691 18.2218 6.63691 18.2486V19.8275C6.63691 19.8596 6.63155 19.881 6.6155 19.8971C6.60479 19.9078 6.57803 19.9185 6.55127 19.9185H6.18731C6.15519 19.9185 6.13378 19.9132 6.11773 19.8971C6.10702 19.881 6.09632 19.8596 6.09632 19.8275V19.5278L5.67883 19.0247V19.8275C5.67883 19.8596 5.67348 19.881 5.65742 19.8971C5.64672 19.9078 5.61996 19.9185 5.5932 19.9185V19.9132ZM8.46206 19.4529C8.46206 19.5278 8.45136 19.5974 8.42995 19.6562C8.40854 19.7151 8.37107 19.7686 8.3122 19.8115C8.25867 19.8543 8.17839 19.8864 8.08204 19.9132C7.9857 19.9399 7.8626 19.9506 7.70738 19.9506C7.55216 19.9506 7.42906 19.9399 7.33271 19.9132C7.23637 19.8864 7.15609 19.8543 7.09721 19.8115C7.04369 19.7686 7.00087 19.7151 6.97946 19.6562C6.95805 19.592 6.94734 19.5278 6.94734 19.4529V18.6232C6.94734 18.5483 6.95805 18.4787 6.97946 18.4198C7.00087 18.3556 7.04369 18.3075 7.09721 18.2593C7.15609 18.2165 7.23102 18.179 7.33271 18.1576C7.43441 18.1308 7.55751 18.1201 7.70738 18.1201C7.85725 18.1201 7.98035 18.1308 8.08204 18.1576C8.18374 18.1843 8.25867 18.2165 8.3122 18.2593C8.37107 18.3021 8.40854 18.3556 8.42995 18.4198C8.45136 18.4787 8.46206 18.5483 8.46206 18.6232V19.4529ZM7.50399 19.3672C7.50399 19.3993 7.51469 19.4261 7.54146 19.4475C7.56822 19.4689 7.62174 19.4796 7.70738 19.4796C7.79302 19.4796 7.85189 19.4689 7.8733 19.4475C7.90006 19.4261 7.91077 19.3993 7.91077 19.3672V18.7142C7.91077 18.6821 7.90006 18.6554 7.8733 18.6339C7.84654 18.6125 7.79302 18.6018 7.70738 18.6018C7.62174 18.6018 7.56287 18.6125 7.54146 18.6339C7.51469 18.6554 7.50399 18.6821 7.50399 18.7142V19.3672Z" fill="#71737B"/>
</svg>
