<svg width="19" height="19" viewBox="0 0 19 19" fill="none" xmlns="http://www.w3.org/2000/svg">
<path d="M11.2671 13.9375L9.54974 12.2344C8.76044 11.4517 8.36574 11.0603 7.91134 10.9135C7.51164 10.7843 7.08144 10.7843 6.68166 10.9135C6.22729 11.0603 5.83261 11.4517 5.04326 12.2344L1.04437 16.262M11.2671 13.9375L11.6084 13.5989C12.4144 12.7997 12.8173 12.4001 13.2797 12.2543C13.6863 12.126 14.1232 12.131 14.5268 12.2686C14.9856 12.4251 15.3793 12.8338 16.1666 13.6513L17.0024 14.4999M11.2671 13.9375L15.2224 17.9626M1.04437 16.262C1.07508 16.5224 1.12827 16.7269 1.22043 16.9078C1.41217 17.2841 1.71814 17.5901 2.09446 17.7818C2.52228 17.9998 3.08233 17.9998 4.20244 17.9998H13.8024C14.4237 17.9998 14.8727 17.9998 15.2224 17.9626M1.04437 16.262C1.00244 15.9064 1.00244 15.4464 1.00244 14.7998V5.19978C1.00244 4.07968 1.00244 3.51962 1.22043 3.0918C1.41217 2.71547 1.71814 2.40951 2.09446 2.21777C2.52228 1.99978 3.08233 1.99978 4.20244 1.99978H8.00244M15.2224 17.9626C15.5031 17.9327 15.7199 17.8789 15.9104 17.7818C16.2867 17.5901 16.5927 17.2841 16.7844 16.9078C17.0024 16.48 17.0024 15.9199 17.0024 14.7998V10.9998M15.0024 6.99978V3.99978M15.0024 3.99978V0.999781M15.0024 3.99978H18.0024M15.0024 3.99978H12.0024" stroke="#A7A7A7" stroke-width="1.5" stroke-linecap="round" stroke-linejoin="round"/>
</svg>
