<svg width="18" height="18" viewBox="0 0 18 18" fill="none" xmlns="http://www.w3.org/2000/svg">
<path d="M0.66748 9.00041C0.66748 5.85771 0.667481 4.28637 1.64379 3.31005C2.62011 2.33374 4.19145 2.33374 7.33415 2.33374H10.6675C13.8101 2.33374 15.3816 2.33374 16.3578 3.31005C17.3341 4.28637 17.3341 5.85771 17.3341 9.00041V10.6671C17.3341 13.8097 17.3341 15.3812 16.3578 16.3574C15.3816 17.3337 13.8101 17.3337 10.6675 17.3337H7.33415C4.19145 17.3337 2.62011 17.3337 1.64379 16.3574C0.667481 15.3812 0.66748 13.8097 0.66748 10.6671V9.00041Z" stroke="#A7A7A7" stroke-width="0.833333"/>
<path d="M4.83252 2.33374V1.08374" stroke="#A7A7A7" stroke-width="0.833333" stroke-linecap="round"/>
<path d="M13.1675 2.33374V1.08374" stroke="#A7A7A7" stroke-width="0.833333" stroke-linecap="round"/>
<path d="M1.08252 6.5H16.9159" stroke="#A7A7A7" stroke-width="0.833333" stroke-linecap="round"/>
<path d="M13.9992 13.1671C13.9992 13.6273 13.6261 14.0004 13.1659 14.0004C12.7056 14.0004 12.3325 13.6273 12.3325 13.1671C12.3325 12.7068 12.7056 12.3337 13.1659 12.3337C13.6261 12.3337 13.9992 12.7068 13.9992 13.1671Z" fill="#A7A7A7"/>
<path d="M13.9992 9.83333C13.9992 10.2936 13.6261 10.6667 13.1659 10.6667C12.7056 10.6667 12.3325 10.2936 12.3325 9.83333C12.3325 9.37308 12.7056 9 13.1659 9C13.6261 9 13.9992 9.37308 13.9992 9.83333Z" fill="#A7A7A7"/>
<path d="M9.83415 13.1671C9.83415 13.6273 9.46106 14.0004 9.00081 14.0004C8.54056 14.0004 8.16748 13.6273 8.16748 13.1671C8.16748 12.7068 8.54056 12.3337 9.00081 12.3337C9.46106 12.3337 9.83415 12.7068 9.83415 13.1671Z" fill="#A7A7A7"/>
<path d="M9.83415 9.83333C9.83415 10.2936 9.46106 10.6667 9.00081 10.6667C8.54056 10.6667 8.16748 10.2936 8.16748 9.83333C8.16748 9.37308 8.54056 9 9.00081 9C9.46106 9 9.83415 9.37308 9.83415 9.83333Z" fill="#A7A7A7"/>
<path d="M5.66667 13.1671C5.66667 13.6273 5.29357 14.0004 4.83333 14.0004C4.3731 14.0004 4 13.6273 4 13.1671C4 12.7068 4.3731 12.3337 4.83333 12.3337C5.29357 12.3337 5.66667 12.7068 5.66667 13.1671Z" fill="#A7A7A7"/>
<path d="M5.66667 9.83333C5.66667 10.2936 5.29357 10.6667 4.83333 10.6667C4.3731 10.6667 4 10.2936 4 9.83333C4 9.37308 4.3731 9 4.83333 9C5.29357 9 5.66667 9.37308 5.66667 9.83333Z" fill="#A7A7A7"/>
</svg>
