<svg width="24" height="24" viewBox="0 0 24 24" fill="none" xmlns="http://www.w3.org/2000/svg">
<path d="M12 0C18.6274 0 24 5.37258 24 12C24 18.6274 18.6274 24 12 24C5.37258 24 0 18.6274 0 12C0 5.37258 5.37258 0 12 0ZM12 1.5C6.20101 1.5 1.5 6.20101 1.5 12C1.5 17.799 6.20101 22.5 12 22.5C17.799 22.5 22.5 17.799 22.5 12C22.5 6.20101 17.799 1.5 12 1.5ZM15.832 8.19727C16.1249 7.90451 16.5997 7.90442 16.8926 8.19727C17.1853 8.49013 17.1853 8.96495 16.8926 9.25781L10.8926 15.2578C10.5997 15.5507 10.1249 15.5506 9.83203 15.2578L7.10449 12.5303C6.81173 12.2374 6.81164 11.7626 7.10449 11.4697C7.39735 11.177 7.87218 11.177 8.16504 11.4697L10.3623 13.667L15.832 8.19727Z" fill="#B0D356"/>
</svg>
