<svg width="54" height="54" viewBox="0 0 54 54" fill="none" xmlns="http://www.w3.org/2000/svg">
<g clip-path="url(#clip0_22003_17443)">
<path d="M42.8699 12.3375C41.599 11.1092 40.1293 9.77239 39.6999 8.46484C39.2436 9.50216 38.7231 10.4907 39.2297 11.9352C40.2036 14.7128 45.6051 15.6441 47.8449 19.5143C47.374 18.0284 45.3278 14.7129 42.8699 12.3375Z" fill="white"/>
<path d="M32.313 10.1407C32.8696 11.5914 33.5741 12.9371 34.9277 13.6691C33.7177 13.7366 31.5819 12.8457 30.8325 10.9103C30.2322 9.35982 31.3242 7.65511 31.3242 6.90234C31.9117 7.4898 31.7838 8.76177 32.313 10.1407Z" fill="white"/>
<path d="M7.95105 25.0368C7.60288 24.6321 7.26712 24.222 6.94617 23.7508C6.85179 23.6271 6.74334 23.4301 6.7402 23.2262C6.72556 22.3905 7.91302 21.9246 8.48755 22.5271C8.60492 22.6479 8.6984 22.7918 8.79886 22.9123C9.83148 24.251 11.6921 26.804 12.7162 28.1874L13.2702 28.9446C13.484 29.1984 13.7418 29.625 13.6382 30.0095C13.3737 31.0904 12.143 31.1054 11.5753 30.2917C11.5291 30.2378 11.4921 30.1797 11.4506 30.1239L11.8702 29.9773C11.9856 30.7298 12.1714 31.4785 12.1431 32.2446C12.0054 33.8129 10.2542 34.8593 8.77896 34.5444C6.88129 34.1817 5.61205 32.4962 5.72804 30.5891C5.72798 30.5891 5.74654 28.3757 5.74654 28.3757L5.75118 27.8223C5.67825 26.815 6.05031 25.6859 7.00201 25.1905C7.27864 25.0409 7.5784 24.9435 7.88866 24.9044C7.96356 24.8922 7.93881 24.8947 7.93065 24.9226C7.92152 24.9486 7.92463 24.9971 7.95105 25.0368ZM8.4546 25.2844C8.25967 25.4557 7.94312 25.4518 7.72865 25.515C7.26688 25.6353 6.8578 25.9436 6.6298 26.3634C6.27433 26.9692 6.39456 27.6864 6.38197 28.3757L6.40052 30.5891C6.3231 32.1838 7.3677 33.54 8.93873 33.8073C9.96202 34.0086 11.1818 33.1696 11.2954 32.1534C11.3261 31.8186 11.2998 31.4446 11.3298 31.106C11.3454 30.7379 11.3762 30.3688 11.4069 29.999L11.3499 29.312L11.8266 29.8523C11.9723 30.0465 12.1645 30.19 12.375 30.2783C12.6734 30.4056 13.0219 30.2166 13.0789 29.9032C13.1252 29.6455 12.9675 29.5107 12.8101 29.2756L12.2676 28.511C11.5482 27.5026 9.69682 24.9087 8.98894 23.9418C8.90216 23.8291 8.37614 23.105 8.29501 23.0011C8.08222 22.5793 7.52157 22.5737 7.22127 22.9081C7.05872 23.0952 7.06156 23.3193 7.24557 23.542C7.66261 24.0802 8.0648 24.6796 8.4546 25.2844Z" fill="white"/>
<path d="M23.5514 34.3521C24.7675 33.6907 30.6303 30.5055 31.7171 29.9184C33.16 29.2947 34.0763 31.3655 32.6584 32.0422C32.0327 32.3862 30.6583 33.141 30.0167 33.4936C30.0174 33.494 30.0112 32.7667 30.0133 32.7695C31.7243 33.5984 32.6645 35.2763 32.553 37.1722C32.5556 37.7323 32.5899 38.7559 32.5924 39.3077C32.6394 41.3805 30.711 42.6609 28.7717 42.3098C26.6928 41.9132 25.1536 39.8154 25.2872 37.7439C25.3124 36.9326 25.3437 36.1213 25.4022 35.31L25.9421 35.6328C25.66 35.776 24.8889 36.1642 24.6165 36.3099C23.3059 36.9678 22.2709 35.0962 23.5514 34.3521ZM23.8551 34.9184C23.3298 35.2171 23.7573 36.0226 24.3002 35.7177C24.5697 35.5723 25.3176 35.1452 25.5952 34.9872L26.1199 34.6885C26.1505 35.8027 26.2389 36.9328 26.2604 38.0453C26.3593 39.6236 27.8058 41.2919 29.4417 41.1985C30.7021 41.1585 31.4784 40.2443 31.3923 38.9975C31.3923 38.9975 31.4039 38.3891 31.4039 38.3891C31.412 37.9804 31.431 36.9576 31.4387 36.5638C31.4757 35.3078 30.6971 34.1378 29.6329 33.4958L28.9787 33.1125C29.8274 32.667 31.2448 31.9227 32.0926 31.4777L32.2979 31.3699L32.4005 31.316C32.6511 31.1996 32.6993 30.8295 32.4909 30.6485C32.3728 30.5365 32.1809 30.5056 32.0322 30.5781L30.4078 31.4388L23.8551 34.9184Z" fill="white"/>
<path d="M10.9243 13.666C5.19433 19.3165 2.85599 27.9806 4.9227 35.7435C5.22456 36.845 5.6155 37.8991 5.87761 39.0176C5.87758 39.0176 4.91181 39.4265 4.91181 39.4265C4.62022 38.9024 4.37268 38.3533 4.14887 37.7962C1.20204 29.2495 3.82314 19.2777 10.3924 13.123C10.3923 13.123 10.9243 13.666 10.9243 13.666Z" fill="white"/>
<path d="M17.7158 49.1419C20.6355 51.109 24.171 51.988 27.6654 52.0954C30.1637 52.2639 32.7128 52.0695 35.158 51.4849C43.5184 49.6261 49.5338 44.4771 51.652 36.0519C52.1687 33.9375 52.376 31.7533 52.5527 29.5684C52.5561 29.5688 53.0306 29.6088 53.0338 29.6092V30.658C53.0205 30.6619 53.557 30.1348 53.5549 30.1336C53.6349 31.1772 53.6113 32.2302 53.5047 33.2752C52.8 39.537 49.4174 45.5908 44.0843 49.0477C39.6391 51.7933 34.3833 53.1911 29.1637 53.0927C27.1172 53.0008 24.9727 52.8697 22.9884 52.3313C20.9655 51.8093 19.0124 50.9651 17.2881 49.7703L17.7158 49.1419Z" fill="white"/>
<path d="M0.812911 42.4062C0.863095 42.5417 0.863215 42.6911 0.984201 42.7943C1.3012 43.005 1.77922 43.1294 2.13682 43.3066C3.08712 43.7061 4.47433 44.3404 5.42609 44.7818C7.007 45.5309 8.72239 46.3801 10.2661 47.1795C11.2407 47.7127 12.3842 47.7845 13.4221 47.45L13.3512 47.4686L16.5283 46.4292C18.3919 45.8292 21.0573 44.984 22.9094 44.4278C22.9131 44.4247 26.124 43.4722 26.1293 43.4692C26.3229 43.439 26.473 43.2605 26.4748 43.04C26.4749 43.0372 26.4933 42.6431 26.4934 42.64L26.7389 42.9321L26.7446 42.9389L26.7472 42.942L26.7802 42.9808L26.7823 43.0383C26.8073 43.4047 26.8538 45.163 26.8685 45.4892L26.8755 45.7343C26.9378 46.1665 26.69 46.6391 26.2439 46.7535C24.9434 47.2409 23.643 47.7299 22.3385 48.2014C19.2356 49.2943 16.1793 50.5108 13.0233 51.4651C11.9526 51.6772 10.8012 51.5035 9.83483 51.0018L8.95997 50.5594C7.26636 49.6983 5.39264 48.7662 3.73153 47.865C2.89201 47.424 1.98489 46.9113 1.15175 46.449C1.00036 46.3505 0.82096 46.2857 0.659126 46.1356C0.305532 45.7788 0.312654 45.4726 0.343567 45.0531C0.399287 44.2217 0.450489 43.3283 0.537331 42.5012L0.538019 42.4937L0.555944 42.3027C0.634468 42.3305 0.764342 42.338 0.812911 42.4062ZM0.572194 42.5839C0.587845 42.6081 0.61768 42.6297 0.645121 42.6371L0.837329 42.4937C0.902267 43.1971 0.969538 43.9792 1.00835 44.6884C1.01562 44.8598 1.04151 45.1586 1.04564 45.3264C1.05623 45.5506 1.23216 45.5801 1.52614 45.7148C3.60447 46.663 5.66714 47.6752 7.69791 48.7174L9.44239 49.6126C9.91802 49.8358 10.6122 50.2658 11.1223 50.3763C11.9953 50.6099 12.8508 50.5357 13.7087 50.2126L14.6393 49.904C15.8793 49.4901 17.1226 49.0867 18.3672 48.6859C20.5503 47.9711 23.6833 46.9747 25.8513 46.3074C25.8514 46.3074 26.0856 46.2348 26.0856 46.2348C26.1593 46.2157 26.1845 46.205 26.2283 46.1772C26.4539 46.0422 26.3716 45.7201 26.3969 45.4892C26.4118 45.1649 26.4638 43.3994 26.4831 43.0383L26.5181 43.1345L26.5155 43.1314L26.5098 43.1246L26.7738 43.0198C26.8339 43.371 26.5283 43.7728 26.2392 43.8357C26.2392 43.8357 23.1166 45.0362 23.1166 45.0362C20.1943 46.1524 16.5458 47.4528 13.579 48.4969L13.6164 48.4773C13.6168 48.4767 13.6748 48.4618 13.6755 48.4614C12.4079 48.901 10.9451 48.7643 9.77674 48.1428C8.70291 47.6066 7.63914 47.0507 6.57584 46.4937C5.10275 45.7034 3.28717 44.7071 1.86304 43.8458C1.37682 43.4912 0.532184 43.2851 0.539516 42.5618C0.539037 42.5424 0.539635 42.5511 0.545949 42.5629C0.551635 42.5719 0.561211 42.5799 0.572194 42.5839Z" fill="white"/>
<path d="M0.897273 41.7735C3.50662 40.1205 6.19586 38.4733 8.80858 36.82C9.55075 36.3828 10.2885 35.7163 11.2018 35.6328C11.6398 35.6551 12.0484 35.8617 12.4047 36.0101L14.1233 36.7473C16.4083 37.7416 18.6864 38.7479 20.9577 39.7699C22.3251 40.3963 25.1935 41.6555 26.5281 42.2927C27.1841 42.6718 26.965 43.7574 26.2365 43.8876C26.3286 43.8633 23.0401 44.8936 23.0632 44.8894C21.0484 45.5323 15.5971 47.3089 13.5154 47.9882C12.3263 48.3799 10.9529 48.2247 9.86889 47.5902C7.92523 46.5847 5.11194 45.2133 3.10586 44.268C3.10592 44.268 1.40696 43.4537 1.40696 43.4537L0.983248 43.248C0.400368 42.9955 0.33953 42.1054 0.897273 41.7735ZM1.10382 42.1063C0.790052 42.2785 0.795288 42.7889 1.13604 42.9472L1.55152 43.169C4.1249 44.5495 7.26822 46.2911 9.87406 47.58C10.9665 48.2016 12.3165 48.3458 13.5028 47.9411C13.5054 47.9424 19.8047 45.7041 19.8075 45.7046C21.3745 45.1436 24.5366 44.0033 26.098 43.4255C26.3857 43.3469 26.4071 42.9699 26.1849 42.8266C26.1738 42.8106 26.0797 42.7715 26.017 42.7415C24.8335 42.1932 21.9396 40.861 20.7175 40.2992C19.455 39.7232 13.3544 36.9264 12.2212 36.4374C11.8769 36.2994 11.5778 36.1143 11.2526 36.0946L11.247 36.0941C11.2451 36.0917 11.2433 36.1051 11.2412 36.0702C11.2365 35.9875 11.2324 36.0276 11.2291 36.0521C11.2257 36.0809 11.2232 36.1164 11.2193 36.1103C11.0197 36.1278 10.844 36.2077 10.6552 36.3033C9.59971 36.8558 8.54976 37.5881 7.48667 38.2248C5.36711 39.5343 3.23113 40.8136 1.10382 42.1063Z" fill="white"/>
<path d="M9.76888 39.261C9.88098 38.1001 11.5516 38.0646 11.6471 39.261C11.6573 40.5867 9.73982 40.5819 9.76888 39.261ZM10.1195 39.261C10.1747 39.8131 10.9949 39.7897 11.0543 39.261C11.1268 38.6043 10.0584 38.5518 10.1195 39.261Z" fill="white"/>
<path d="M14.1828 41.868C14.2883 40.7175 15.9464 40.6883 16.0379 41.868C16.0467 43.1709 14.1616 43.167 14.1828 41.868ZM14.5346 41.868C14.5846 42.4357 15.4374 42.4199 15.4924 41.868C15.5575 41.1988 14.4798 41.1494 14.5346 41.868Z" fill="white"/>
<path d="M30.2509 32.4688L27.3125 33.9168L30.653 33.3502L30.2509 32.4688Z" fill="white"/>
<path d="M8.17199 24.8613L10.0728 27.4384L7.73242 25.2229L8.17199 24.8613Z" fill="white"/>
<path d="M7.73283 28.49C7.63465 28.49 7.53586 28.458 7.45315 28.392L5.9531 27.1943C5.75934 27.0395 5.7275 26.7571 5.88239 26.5633C6.03698 26.3696 6.31956 26.338 6.51303 26.4926L8.01308 27.6903C8.20684 27.8451 8.23868 28.1275 8.08379 28.3213C7.99524 28.4323 7.86465 28.49 7.73283 28.49Z" fill="white"/>
<path d="M27.381 37.3378C27.2828 37.3378 27.184 37.3058 27.101 37.2396L25.6013 36.0419C25.4078 35.8873 25.376 35.6048 25.5308 35.4111C25.6854 35.2173 25.9674 35.1855 26.1618 35.3405L27.6615 36.5382C27.855 36.6928 27.8868 36.9753 27.732 37.169C27.6434 37.2801 27.5128 37.3378 27.381 37.3378Z" fill="white"/>
<path d="M50.4173 17.153C50.4194 17.1544 50.4215 17.1557 50.4235 17.1572C49.434 15.028 47.6709 13.4765 46.5425 10.9181C46.1887 10.116 45.8297 9.28374 45.4437 8.47128C45.4438 8.47134 45.4437 8.47122 45.4437 8.47128C45.1909 7.939 44.9285 7.41319 44.6406 6.91607C44.1324 6.0384 43.4826 5.25113 42.7363 4.56738C40.804 2.79686 38.2031 1.74347 35.5773 1.78396C36.2571 2.01818 36.9529 2.31202 37.4106 2.86662C37.8682 3.42122 37.9994 4.30709 37.5203 4.84332C36.9148 5.52097 35.7476 5.25353 35.0897 4.62669C34.4317 3.99985 34.0742 3.12308 33.4971 2.42112C32.6259 1.36151 31.2953 0.761423 29.9462 0.513375C28.5971 0.265326 27.2123 0.335411 25.8424 0.406423C26.5429 0.705733 26.7851 1.61626 26.6306 2.36226C26.3945 3.5033 25.6549 4.43206 24.3367 4.99773C24.1614 5.05997 22.9585 5.44307 22.3048 4.49643C21.8868 3.89116 22.3061 2.75682 22.3061 2.75682C22.3061 2.75682 20.3075 4.69623 18.1213 6.10672C15.874 7.55653 12.4793 10.0561 9.50847 13.53C9.50934 13.5292 9.5102 13.5283 9.5111 13.5275C6.38032 17.1286 4.32543 21.6321 3.81152 26.5737C5.23018 21.0737 7.55748 17.1058 10.9238 13.6656C12.5864 11.9667 14.4956 10.3283 16.6872 8.83151C16.9828 8.62036 19.3437 7.19656 20.3463 6.08718C20.3455 6.08745 20.3449 6.08775 20.3441 6.08796C20.6656 5.76046 20.9007 5.4528 21.0105 5.24093C21.8355 6.93499 24.186 10.4371 27.3614 8.99374C29.6709 8.12771 30.5369 4.3749 28.8048 2.06547C30.8157 2.45123 32.3119 3.79902 33.135 6.33002C33.6836 8.01704 35.1226 8.98272 36.8878 8.51631C38.6673 8.04616 38.9086 5.81827 40.6406 5.24093C40.3519 5.81827 40.776 6.87436 41.4721 7.88648C42.634 9.57578 44.8028 11.0623 46.5799 13.5941C48.0624 15.7062 50.3094 18.2406 51.7849 24.1257C52.4238 26.674 52.4672 29.4828 52.3231 32.0342C52.1261 35.5241 51.4364 38.6744 50.1368 41.3212C50.3848 40.9186 50.6251 40.5109 50.849 40.0935C50.9067 39.9883 50.9611 39.8865 51.0119 39.7813C51.3957 39.0508 51.7387 38.2935 52.0376 37.5193C53.0736 34.8738 53.545 34.453 53.6405 31.4591C53.8681 24.319 52.4697 20.6541 50.4173 17.153Z" fill="white"/>
<path d="M16.4251 4.75548C20.4753 2.63589 21.0889 1.02344 21.0889 1.02344C21.0889 1.02344 17.783 1.52776 14.5485 3.66749C11.7783 5.50007 11.8883 8.8313 11.8883 8.8313C11.8883 8.8313 13.5515 6.2593 16.4251 4.75548Z" fill="white"/>
<path d="M51.746 16.3341C51.746 16.3341 51.8551 12.9697 50.5172 11.0624C49.2622 9.27334 47.5518 8.47461 47.5518 8.47461C47.5518 8.47461 47.7143 10.4657 49.0684 12.491C50.4431 14.5471 51.746 16.3341 51.746 16.3341Z" fill="white"/>
</g>
<defs>
<clipPath id="clip0_22003_17443">
<rect width="53.3333" height="52.7555" fill="white" transform="translate(0.330078 0.339844)"/>
</clipPath>
</defs>
</svg>
