<svg width="16" height="16" viewBox="0 0 16 16" fill="none" xmlns="http://www.w3.org/2000/svg">
<g clip-path="url(#clip0_20070_4943)">
<path d="M12.761 3.60124C12.3797 3.23275 11.9388 2.83172 11.81 2.43945C11.6731 2.75065 11.5169 3.0472 11.6689 3.48057C11.9611 4.31385 13.5815 4.59323 14.2535 5.7543C14.1122 5.30852 13.4983 4.31388 12.761 3.60124Z" fill="white"/>
<path d="M9.59389 2.94222C9.76088 3.37742 9.97222 3.78113 10.3783 4.00074C10.0153 4.02099 9.37457 3.75372 9.14976 3.1731C8.96966 2.70795 9.29727 2.19653 9.29727 1.9707C9.47351 2.14694 9.43515 2.52853 9.59389 2.94222Z" fill="white"/>
<path d="M2.28532 7.41104C2.18086 7.28964 2.08014 7.16661 1.98385 7.02523C1.95554 6.98812 1.923 6.92903 1.92206 6.86786C1.91767 6.61714 2.27391 6.47737 2.44627 6.65813C2.48147 6.69438 2.50952 6.73753 2.53966 6.7737C2.84944 7.1753 3.40764 7.9412 3.71486 8.35623L3.88106 8.58337C3.94519 8.65953 4.02254 8.78751 3.99146 8.90286C3.9121 9.22713 3.54289 9.23161 3.3726 8.9875C3.35874 8.97135 3.34763 8.95391 3.33517 8.93717L3.46106 8.89318C3.49567 9.11893 3.55141 9.34356 3.54292 9.57339C3.50161 10.0439 2.97625 10.3578 2.53369 10.2633C1.96439 10.1545 1.58362 9.64885 1.61841 9.07672C1.6184 9.07673 1.62396 8.4127 1.62396 8.4127L1.62535 8.2467C1.60347 7.94451 1.71509 7.60577 2.0006 7.45716C2.08359 7.41227 2.17352 7.38305 2.2666 7.37131C2.28907 7.36767 2.28164 7.36842 2.27919 7.37678C2.27646 7.38459 2.27739 7.39914 2.28532 7.41104ZM2.43638 7.48532C2.3779 7.53671 2.28294 7.53555 2.2186 7.55451C2.08006 7.5906 1.95734 7.68307 1.88894 7.80903C1.7823 7.99076 1.81837 8.20592 1.81459 8.41271L1.82016 9.07674C1.79693 9.55513 2.11031 9.962 2.58162 10.0422C2.8886 10.1026 3.25453 9.85088 3.28862 9.54603C3.29782 9.44557 3.28994 9.33338 3.29895 9.23179C3.30363 9.12137 3.31287 9.01064 3.32207 8.8997L3.30496 8.69361L3.44798 8.8557C3.4917 8.91394 3.54935 8.95701 3.61251 8.98349C3.70201 9.02168 3.80657 8.96497 3.82368 8.87096C3.83755 8.79364 3.79026 8.7532 3.74302 8.68269L3.58027 8.45331C3.36445 8.15078 2.80905 7.37262 2.59668 7.08253C2.57065 7.04872 2.41284 6.8315 2.3885 6.80033C2.32466 6.67379 2.15647 6.67211 2.06638 6.77243C2.01762 6.82856 2.01847 6.8958 2.07367 6.96259C2.19878 7.12405 2.31944 7.30387 2.43638 7.48532Z" fill="white"/>
<path d="M6.96537 10.2057C7.3302 10.0072 9.08904 9.05167 9.41508 8.87554C9.84796 8.68843 10.1229 9.30968 9.69747 9.5127C9.50975 9.61589 9.09743 9.84232 8.90497 9.9481C8.90518 9.94822 8.9033 9.73005 8.90393 9.73088C9.41724 9.97955 9.69931 10.4829 9.66585 11.0517C9.66664 11.2197 9.67693 11.5268 9.67768 11.6923C9.69177 12.3142 9.11324 12.6983 8.53147 12.593C7.90778 12.474 7.44604 11.8447 7.4861 11.2232C7.49367 10.9798 7.50307 10.7364 7.52062 10.493L7.68257 10.5899C7.59795 10.6328 7.36663 10.7493 7.28489 10.793C6.89172 10.9904 6.58121 10.4289 6.96537 10.2057ZM7.05648 10.3755C6.89889 10.4652 7.02714 10.7068 7.19 10.6154C7.27087 10.5717 7.49525 10.4436 7.57851 10.3962L7.73593 10.3066C7.74511 10.6408 7.77162 10.9799 7.77808 11.3136C7.80773 11.7871 8.24168 12.2876 8.73247 12.2596C9.1106 12.2476 9.34347 11.9733 9.31764 11.5993C9.31765 11.5993 9.32114 11.4168 9.32114 11.4168C9.32354 11.2942 9.32926 10.9873 9.33157 10.8692C9.34267 10.4924 9.1091 10.1414 8.78982 9.94877L8.59357 9.83378C8.84818 9.70012 9.27339 9.47685 9.52772 9.34335L9.58931 9.31101L9.62011 9.29484C9.69528 9.2599 9.70974 9.14888 9.64721 9.09459C9.61178 9.06099 9.55422 9.05171 9.50961 9.07347L9.0223 9.33168L7.05648 10.3755Z" fill="white"/>
<path d="M3.17728 3.99979C1.4583 5.69494 0.756798 8.29417 1.37681 10.623C1.46737 10.9535 1.58465 11.2697 1.66328 11.6053C1.66327 11.6053 1.37354 11.728 1.37354 11.728C1.28607 11.5707 1.2118 11.406 1.14466 11.2389C0.260611 8.67485 1.04694 5.6833 3.01771 3.83691C3.01768 3.83691 3.17728 3.99979 3.17728 3.99979Z" fill="white"/>
<path d="M5.21474 14.6426C6.09065 15.2327 7.15131 15.4964 8.19962 15.5286C8.94912 15.5792 9.71385 15.5208 10.4474 15.3455C12.9555 14.7878 14.7601 13.2431 15.3956 10.7156C15.5506 10.0812 15.6128 9.426 15.6658 8.77051C15.6668 8.77065 15.8092 8.78265 15.8101 8.78277V9.0974C15.8061 9.09856 15.9671 8.94043 15.9665 8.94009C15.9905 9.25317 15.9834 9.56907 15.9514 9.88257C15.74 11.7611 14.7252 13.5773 13.1253 14.6143C11.7917 15.438 10.215 15.8573 8.6491 15.8278C8.03517 15.8002 7.3918 15.7609 6.79651 15.5994C6.18964 15.4428 5.60371 15.1895 5.08643 14.8311L5.21474 14.6426Z" fill="white"/>
<path d="M0.143873 12.622C0.158928 12.6626 0.158964 12.7074 0.19526 12.7384C0.290359 12.8016 0.433766 12.839 0.541047 12.8921C0.826137 13.012 1.2423 13.2022 1.52783 13.3347C2.0021 13.5594 2.51672 13.8142 2.97984 14.054C3.2722 14.2139 3.61526 14.2355 3.92662 14.1351L3.90537 14.1407L4.8585 13.8289C5.41758 13.6489 6.2172 13.3953 6.77281 13.2285C6.77392 13.2275 7.73721 12.9418 7.73879 12.9409C7.79687 12.9318 7.84189 12.8783 7.84243 12.8121C7.84247 12.8113 7.84799 12.6931 7.84803 12.6921L7.92166 12.7798L7.92337 12.7818L7.92416 12.7827L7.93405 12.7944L7.93469 12.8116C7.94218 12.9215 7.95614 13.449 7.96054 13.5469L7.96265 13.6204C7.98134 13.7501 7.907 13.8919 7.77317 13.9262C7.38302 14.0724 6.99291 14.2191 6.60156 14.3605C5.67067 14.6884 4.75378 15.0534 3.80698 15.3396C3.48578 15.4033 3.14035 15.3512 2.85045 15.2006L2.58799 15.068C2.07991 14.8096 1.51779 14.53 1.01946 14.2596C0.767603 14.1273 0.495468 13.9735 0.245525 13.8348C0.200108 13.8053 0.146288 13.7858 0.0977378 13.7408C-0.00834043 13.6338 -0.00620379 13.5419 0.00306997 13.416C0.0197861 13.1666 0.0351466 12.8986 0.0611993 12.6505L0.0614058 12.6482L0.0667833 12.5909C0.0903403 12.5993 0.129303 12.6015 0.143873 12.622ZM0.0716581 12.6753C0.0763534 12.6825 0.0853039 12.689 0.0935363 12.6912L0.151199 12.6482C0.17068 12.8593 0.190861 13.0939 0.202505 13.3067C0.204687 13.3581 0.212452 13.4477 0.213691 13.498C0.216869 13.5653 0.269648 13.5741 0.357843 13.6146C0.98134 13.899 1.60014 14.2027 2.20937 14.5153L2.73272 14.7839C2.87541 14.8509 3.08367 14.9799 3.23669 15.013C3.49859 15.0831 3.75525 15.0608 4.01261 14.9639L4.2918 14.8713C4.6638 14.7472 5.03679 14.6261 5.41015 14.5059C6.06509 14.2914 7.005 13.9925 7.6554 13.7923C7.65542 13.7923 7.72568 13.7706 7.72568 13.7706C7.74778 13.7648 7.75534 13.7616 7.76848 13.7533C7.83616 13.7128 7.81147 13.6161 7.81907 13.5469C7.82354 13.4496 7.83913 12.9199 7.84492 12.8116L7.85544 12.8405L7.85465 12.8395L7.85295 12.8375L7.93213 12.8061C7.95018 12.9114 7.85849 13.032 7.77176 13.0508C7.77177 13.0508 6.83497 13.411 6.83497 13.411C5.95829 13.7458 4.86373 14.136 3.97371 14.4492L3.98491 14.4433C3.98505 14.4431 4.00245 14.4387 4.00266 14.4385C3.62237 14.5704 3.18352 14.5294 2.83302 14.343C2.51087 14.1821 2.19174 14.0153 1.87275 13.8482C1.43083 13.6111 0.886151 13.3122 0.458912 13.0538C0.313045 12.9475 0.0596552 12.8857 0.0618547 12.6687C0.061711 12.6628 0.0618906 12.6655 0.0637848 12.669C0.0654906 12.6717 0.0683634 12.6741 0.0716581 12.6753Z" fill="white"/>
<path d="M0.169182 12.432C0.951985 11.9361 1.75876 11.442 2.54257 10.946C2.76523 10.8148 2.98655 10.6149 3.26055 10.5898C3.39194 10.5965 3.51453 10.6585 3.6214 10.703L4.137 10.9242C4.82248 11.2225 5.50593 11.5244 6.18732 11.831C6.59752 12.0189 7.45805 12.3966 7.85842 12.5878C8.05523 12.7015 7.9895 13.0272 7.77096 13.0663C7.79858 13.059 6.81202 13.3681 6.81896 13.3668C6.21453 13.5597 4.57912 14.0927 3.95461 14.2965C3.59788 14.414 3.18587 14.3674 2.86067 14.177C2.27757 13.8754 1.43358 13.464 0.831758 13.1804C0.831776 13.1804 0.322087 12.9361 0.322087 12.9361L0.194974 12.8744C0.0201104 12.7987 0.00185911 12.5316 0.169182 12.432ZM0.231145 12.5319C0.137015 12.5836 0.138587 12.7367 0.240813 12.7842L0.365457 12.8507C1.13747 13.2648 2.08047 13.7873 2.86222 14.174C3.18994 14.3605 3.59495 14.4037 3.95083 14.2823C3.95162 14.2827 5.84142 13.6112 5.84226 13.6114C6.31235 13.4431 7.26099 13.101 7.7294 12.9276C7.8157 12.9041 7.82213 12.791 7.75547 12.748C7.75213 12.7432 7.72392 12.7315 7.70509 12.7225C7.35004 12.558 6.48188 12.1583 6.11524 11.9898C5.73651 11.817 3.90632 10.9779 3.56635 10.8312C3.46307 10.7898 3.37335 10.7343 3.27579 10.7284L3.27411 10.7282C3.27353 10.7275 3.273 10.7315 3.27236 10.7211C3.27096 10.6963 3.26972 10.7083 3.26874 10.7156C3.26772 10.7243 3.26696 10.7349 3.26579 10.7331C3.2059 10.7383 3.1532 10.7623 3.09657 10.791C2.77991 10.9567 2.46493 11.1764 2.146 11.3674C1.51013 11.7603 0.869338 12.1441 0.231145 12.5319Z" fill="white"/>
<path d="M2.83066 11.6783C2.86429 11.33 3.36549 11.3194 3.39412 11.6783C3.3972 12.076 2.82195 12.0746 2.83066 11.6783ZM2.93585 11.6783C2.95242 11.8439 3.19848 11.8369 3.21629 11.6783C3.23804 11.4813 2.91751 11.4655 2.93585 11.6783Z" fill="white"/>
<path d="M4.15484 12.4604C4.18649 12.1152 4.68392 12.1065 4.71138 12.4604C4.71401 12.8513 4.14849 12.8501 4.15484 12.4604ZM4.26038 12.4604C4.27538 12.6307 4.53123 12.626 4.54771 12.4604C4.56725 12.2596 4.24394 12.2448 4.26038 12.4604Z" fill="white"/>
<path d="M8.97526 9.64062L8.09375 10.075L9.09589 9.90506L8.97526 9.64062Z" fill="white"/>
<path d="M2.3516 7.3584L2.92183 8.13151L2.21973 7.46688L2.3516 7.3584Z" fill="white"/>
<path d="M2.21985 8.44701C2.19039 8.44701 2.16076 8.43741 2.13595 8.4176L1.68593 8.05828C1.6278 8.01186 1.61825 7.92713 1.66472 7.869C1.71109 7.81087 1.79587 7.80141 1.85391 7.84778L2.30392 8.2071C2.36205 8.25352 2.37161 8.33825 2.32514 8.39638C2.29857 8.4297 2.2594 8.44701 2.21985 8.44701Z" fill="white"/>
<path d="M8.11429 11.1013C8.08483 11.1013 8.0552 11.0917 8.03031 11.0719L7.58038 10.7126C7.52234 10.6662 7.51279 10.5815 7.55925 10.5233C7.60563 10.4652 7.69023 10.4556 7.74853 10.5022L8.19845 10.8615C8.25649 10.9078 8.26605 10.9926 8.21959 11.0507C8.19302 11.084 8.15384 11.1013 8.11429 11.1013Z" fill="white"/>
<path d="M15.0252 5.04589C15.0258 5.04632 15.0264 5.04671 15.027 5.04715C14.7302 4.40841 14.2013 3.94294 13.8628 3.17544C13.7566 2.93479 13.6489 2.68512 13.5331 2.44138C13.5331 2.4414 13.5331 2.44137 13.5331 2.44138C13.4573 2.2817 13.3786 2.12396 13.2922 1.97482C13.1397 1.71152 12.9448 1.47534 12.7209 1.27021C12.1412 0.739059 11.3609 0.423042 10.5732 0.435188C10.7771 0.505455 10.9859 0.593606 11.1232 0.759986C11.2605 0.926366 11.2998 1.19213 11.1561 1.35299C10.9744 1.55629 10.6243 1.47606 10.4269 1.28801C10.2295 1.09995 10.1223 0.836923 9.94913 0.626337C9.68778 0.308453 9.2886 0.128427 8.88386 0.0540125C8.47914 -0.0204021 8.06368 0.000623225 7.65271 0.0219268C7.86287 0.11172 7.93552 0.384878 7.88919 0.608679C7.81835 0.950991 7.59648 1.22962 7.20101 1.39932C7.14843 1.41799 6.78755 1.53292 6.59143 1.24893C6.46605 1.06735 6.59183 0.727047 6.59183 0.727047C6.59183 0.727047 5.99225 1.30887 5.33638 1.73202C4.66221 2.16696 3.64379 2.91683 2.75254 3.95901C2.7528 3.95875 2.75306 3.9585 2.75333 3.95824C1.8141 5.03858 1.19763 6.38963 1.04346 7.87211C1.46905 6.22212 2.16724 5.03173 3.17715 3.99969C3.67591 3.49 4.24869 2.99848 4.90617 2.54945C4.99485 2.48611 5.7031 2.05897 6.00389 1.72615C6.00366 1.72623 6.00346 1.72632 6.00324 1.72639C6.09968 1.62814 6.17021 1.53584 6.20315 1.47228C6.45065 1.9805 7.15579 3.03114 8.10843 2.59812C8.80126 2.33831 9.06107 1.21247 8.54145 0.51964C9.1447 0.635369 9.59357 1.03971 9.84051 1.79901C10.0051 2.30511 10.4368 2.59482 10.9663 2.45489C11.5002 2.31385 11.5726 1.64548 12.0922 1.47228C12.0056 1.64548 12.1328 1.96231 12.3416 2.26594C12.6902 2.77273 13.3409 3.21868 13.874 3.97823C14.3187 4.61187 14.9928 5.37218 15.4355 7.13771C15.6271 7.9022 15.6401 8.74484 15.5969 9.51027C15.5378 10.5572 15.3309 11.5023 14.941 12.2964C15.0154 12.1756 15.0875 12.0533 15.1547 11.928C15.172 11.8965 15.1883 11.8659 15.2036 11.8344C15.3187 11.6153 15.4216 11.3881 15.5113 11.1558C15.8221 10.3621 15.9635 10.2359 15.9921 9.33774C16.0604 7.19571 15.6409 6.09624 15.0252 5.04589Z" fill="white"/>
<path d="M4.82754 1.32664C6.04259 0.690766 6.22668 0.207031 6.22668 0.207031C6.22668 0.207031 5.23491 0.358329 4.26456 1.00025C3.43349 1.55002 3.46649 2.54939 3.46649 2.54939C3.46649 2.54939 3.96546 1.77779 4.82754 1.32664Z" fill="white"/>
<path d="M15.4238 4.80022C15.4238 4.80022 15.4565 3.7909 15.0552 3.21873C14.6787 2.682 14.1655 2.44238 14.1655 2.44238C14.1655 2.44238 14.2143 3.03972 14.6205 3.64731C15.0329 4.26413 15.4238 4.80022 15.4238 4.80022Z" fill="white"/>
</g>
<defs>
<clipPath id="clip0_20070_4943">
<rect width="16" height="15.8266" fill="white" transform="translate(-0.000976562 0.00195312)"/>
</clipPath>
</defs>
</svg>
