<svg width="6" height="11" viewBox="0 0 6 11" fill="none" xmlns="http://www.w3.org/2000/svg">
<path d="M2.99976 1.75C2.37846 1.75 1.87476 2.25368 1.87476 2.875C1.87476 3.28921 1.53896 3.625 1.12476 3.625C0.710546 3.625 0.374756 3.28921 0.374756 2.875C0.374756 1.42525 1.55006 0.25 2.99976 0.25C4.44946 0.25 5.62476 1.42525 5.62476 2.875C5.62476 3.58584 5.34126 4.232 4.88276 4.704C4.79046 4.7989 4.70246 4.8869 4.61846 4.9708C4.40266 5.1864 4.21356 5.3753 4.04766 5.5885C3.82866 5.8699 3.74976 6.0768 3.74976 6.25V7C3.74976 7.4142 3.41396 7.75 2.99976 7.75C2.58556 7.75 2.24976 7.4142 2.24976 7V6.25C2.24976 5.5948 2.55476 5.0644 2.86396 4.6672C3.09266 4.3733 3.38016 4.0863 3.61356 3.85346C3.68396 3.78321 3.74936 3.71789 3.80676 3.65877C4.00436 3.45543 4.12476 3.18004 4.12476 2.875C4.12476 2.25368 3.62106 1.75 2.99976 1.75Z" fill="#FFC54D"/>
<path d="M2.99976 10.9998C3.55206 10.9998 3.99976 10.5521 3.99976 9.99976C3.99976 9.44746 3.55206 8.99976 2.99976 8.99976C2.44746 8.99976 1.99976 9.44746 1.99976 9.99976C1.99976 10.5521 2.44746 10.9998 2.99976 10.9998Z" fill="#FFC54D"/>
</svg>
