<svg width="25" height="26" viewBox="0 0 25 26" fill="none" xmlns="http://www.w3.org/2000/svg">
<path d="M23.2979 12.7875C23.9605 12.7745 24.5145 13.3023 24.4613 13.9629C24.2851 16.1519 23.5106 18.259 22.2116 20.0487C20.6768 22.1634 18.4938 23.7193 15.9941 24.4801C13.4944 25.2409 10.8147 25.165 8.36205 24.264C5.90941 23.363 3.81787 21.6861 2.40516 19.488C0.992454 17.2899 0.335783 14.6908 0.534905 12.0855C0.734027 9.48022 1.77806 7.0111 3.5084 5.05325C5.23874 3.09541 7.56083 1.75583 10.1219 1.23801C12.2895 0.799769 14.5279 0.970421 16.5924 1.71937C17.2154 1.94539 17.4654 2.66854 17.1783 3.26588C16.8912 3.86321 16.1757 4.10685 15.5473 3.89648C13.9593 3.36491 12.2526 3.25579 10.5975 3.59041C8.54867 4.00466 6.691 5.07633 5.30672 6.64261C3.92245 8.20889 3.08722 10.1842 2.92793 12.2684C2.76863 14.3527 3.29396 16.432 4.42413 18.1904C5.5543 19.9489 7.22753 21.2904 9.18964 22.0112C11.1518 22.732 13.2955 22.7927 15.2953 22.1841C17.295 21.5754 19.0415 20.3307 20.2693 18.639C21.2611 17.2725 21.8708 15.6746 22.0468 14.0093C22.1165 13.3502 22.6353 12.8006 23.2979 12.7875Z" fill="#070707"/>
<path d="M24.4977 12.7639C24.6281 19.3901 19.3622 24.8673 12.7361 24.9977C6.10997 25.1281 0.632724 19.8622 0.502332 13.2361C0.371939 6.60998 5.63778 1.13273 12.2639 1.00234C18.89 0.871945 24.3673 6.13778 24.4977 12.7639ZM2.90187 13.1889C3.00618 18.4898 7.38798 22.7025 12.6889 22.5982C17.9898 22.4938 22.2025 18.112 22.0982 12.8111C21.9938 7.51023 17.612 3.29756 12.3111 3.40187C7.01022 3.50619 2.79755 7.88798 2.90187 13.1889Z" fill="#151515" fill-opacity="0.5"/>
<path d="M7.89193 13.5606L10.9171 16.469L16.7257 9.9948" stroke="#070707" stroke-width="2.25" stroke-linecap="round" stroke-linejoin="round"/>
</svg>
