<svg width="18" height="20" viewBox="0 0 18 20" fill="none" xmlns="http://www.w3.org/2000/svg">
<path d="M13.8329 0.406248C13.3737 0.414084 12.9224 0.527241 12.5138 0.737001C12.1053 0.946762 11.7503 1.24752 11.4763 1.61611C11.2024 1.9847 11.0167 2.41127 10.9336 2.86295C10.8505 3.31462 10.8722 3.77936 10.997 4.22132C10.9249 4.23789 10.8556 4.26506 10.7914 4.30192L8.06103 5.85281L4.59056 7.91869C4.55581 7.93926 4.52277 7.96258 4.49176 7.98843C3.99905 7.70854 3.43714 7.57391 2.87108 7.60015C2.30503 7.62638 1.75798 7.8124 1.29326 8.13666C0.828548 8.46092 0.465175 8.91017 0.24521 9.4324C0.0252445 9.95463 -0.0423164 10.5285 0.050348 11.0875C0.143012 11.6465 0.392113 12.1679 0.768811 12.5912C1.14551 13.0146 1.6344 13.3225 2.17888 13.4795C2.72337 13.6365 3.30118 13.6361 3.84542 13.4783C4.38967 13.3204 4.87809 13.0117 5.25415 12.5878L8.2081 14.1635L11.1898 15.7227C11.0233 16.4337 11.1219 17.181 11.467 17.8245C11.8121 18.4679 12.3801 18.9635 13.0644 19.2182C13.7488 19.4729 14.5025 19.4692 15.1843 19.2079C15.8662 18.9466 16.4293 18.4456 16.7682 17.7988C17.107 17.152 17.1984 16.4038 17.025 15.6944C16.8517 14.9851 16.4256 14.3634 15.8267 13.9457C15.2277 13.5281 14.497 13.3432 13.7714 13.4258C13.0459 13.5084 12.3755 13.8528 11.8857 14.3944L8.91107 12.838L5.93697 11.2537C6.10323 10.5081 5.97946 9.7271 5.59079 9.06941L8.8158 7.15084L11.5323 5.60619C11.5969 5.56973 11.6557 5.52387 11.7069 5.47012C12.0502 5.83211 12.4783 6.10278 12.9525 6.25763C13.4268 6.41248 13.9321 6.44663 14.4229 6.35697C14.9136 6.26732 15.3743 6.0567 15.7631 5.74417C16.152 5.43165 16.4568 5.02709 16.6499 4.56711C16.843 4.10712 16.9183 3.60625 16.8691 3.10981C16.8199 2.61337 16.6476 2.13704 16.368 1.72394C16.0883 1.31084 15.71 0.974004 15.2673 0.743925C14.8247 0.513845 14.3317 0.397785 13.8329 0.406248Z" fill="#070707"/>
</svg>
