<svg width="18" height="18" viewBox="0 0 18 18" fill="none" xmlns="http://www.w3.org/2000/svg">
<path fill-rule="evenodd" clip-rule="evenodd" d="M0.999553 10.998C1.36774 10.998 1.66622 11.2965 1.66622 11.6647C1.66622 12.9406 1.66763 13.8305 1.75791 14.502C1.8456 15.1542 2.006 15.4996 2.25201 15.7456C2.49801 15.9916 2.84342 16.152 3.49566 16.2397C4.16708 16.33 5.05697 16.3314 6.33289 16.3314H11.6662C12.9421 16.3314 13.832 16.33 14.5035 16.2397C15.1557 16.152 15.5011 15.9916 15.7471 15.7456C15.9932 15.4996 16.1535 15.1542 16.2412 14.502C16.3315 13.8305 16.3329 12.9406 16.3329 11.6647C16.3329 11.2965 16.6314 10.998 16.9996 10.998C17.3677 10.998 17.6662 11.2965 17.6662 11.6647V11.7135C17.6662 12.9292 17.6662 13.909 17.5627 14.6796C17.4551 15.4797 17.225 16.1533 16.69 16.6884C16.1548 17.2235 15.4812 17.4536 14.6812 17.5612C13.9105 17.6647 12.9307 17.6647 11.715 17.6647H6.28411C5.06848 17.6647 4.08864 17.6647 3.318 17.5612C2.5179 17.4536 1.84424 17.2235 1.3092 16.6884C0.774157 16.1533 0.544033 15.4797 0.436459 14.6796C0.332851 13.909 0.332868 12.9292 0.332886 11.7135C0.332886 11.6972 0.332886 11.681 0.332886 11.6647C0.332886 11.2965 0.631366 10.998 0.999553 10.998Z" fill="#070707"/>
<path fill-rule="evenodd" clip-rule="evenodd" d="M8.99969 0.332031C9.18689 0.332031 9.36538 0.410716 9.49169 0.548849L13.0472 4.43774C13.2957 4.70947 13.2768 5.13116 13.0051 5.3796C12.7334 5.62805 12.3117 5.60917 12.0632 5.33744L9.66636 2.71585V12.5543C9.66636 12.9224 9.36787 13.2209 8.99969 13.2209C8.63151 13.2209 8.33302 12.9224 8.33302 12.5543V2.71585L5.93616 5.33744C5.68772 5.60917 5.26603 5.62805 4.99429 5.3796C4.72256 5.13116 4.70367 4.70947 4.95212 4.43774L8.50769 0.548849C8.634 0.410716 8.81249 0.332031 8.99969 0.332031Z" fill="#070707"/>
</svg>
