<svg width="14" height="14" viewBox="0 0 14 14" fill="none" xmlns="http://www.w3.org/2000/svg">
<g clip-path="url(#clip0_19958_36755)">
<path d="M6.99889 0.635864C10.5136 0.635864 13.3625 3.48478 13.3625 6.9995C13.3625 10.5142 10.5136 13.3631 6.99889 13.3631C3.48417 13.3631 0.635254 10.5142 0.635254 6.9995C0.635254 3.48478 3.48417 0.635864 6.99889 0.635864ZM8.33207 2.84723C8.23503 2.7995 8.13798 2.84723 8.11412 2.94388C8.08986 2.96814 8.08986 2.9924 8.08986 3.04052L8.08986 3.37859L8.09383 3.41995C8.1146 3.50178 8.16489 3.57303 8.23503 3.62001C10.1258 4.29615 11.0955 6.39615 10.3923 8.25473C10.0288 9.26893 9.22895 10.0409 8.23503 10.4033C8.13798 10.4514 8.08986 10.5238 8.08986 10.6447L8.08986 10.9827L8.09184 11.0177C8.09563 11.0559 8.11159 11.0919 8.13737 11.1203C8.16315 11.1488 8.19738 11.1681 8.23503 11.1756C8.25929 11.1756 8.30781 11.1756 8.33207 11.1518C8.87758 10.9814 9.38401 10.7048 9.82219 10.338C10.2604 9.97107 10.6216 9.52114 10.8852 9.01406C11.1488 8.50698 11.3095 7.95277 11.358 7.38334C11.4065 6.81391 11.3419 6.2405 11.1679 5.69615C10.732 4.32001 9.66525 3.28155 8.33207 2.84723ZM5.76275 2.82336C5.73849 2.82336 5.68997 2.82336 5.66571 2.84723C5.1202 3.01758 4.61377 3.29416 4.17559 3.66105C3.73741 4.02793 3.37613 4.47786 3.11256 4.98494C2.84898 5.49202 2.68831 6.04623 2.6398 6.61566C2.59129 7.18509 2.6559 7.75849 2.82991 8.30285C3.26582 9.65513 4.30826 10.6932 5.66571 11.1275C5.76275 11.1756 5.8598 11.1275 5.88366 11.0309C5.90792 11.007 5.90792 10.9823 5.90792 10.9342L5.90792 10.5961L5.90395 10.5643C5.88724 10.4971 5.8248 10.4204 5.76275 10.379C3.87196 9.70285 2.9023 7.60285 3.60548 5.74427C3.969 4.73007 4.76883 3.95808 5.76275 3.59575C5.8598 3.54763 5.90792 3.47524 5.90792 3.35433L5.90792 3.01626L5.90594 2.98126C5.90215 2.94307 5.88619 2.9071 5.86041 2.87867C5.83463 2.85024 5.8004 2.83085 5.76275 2.82336ZM7.16872 4.07859H6.8048L6.7698 4.08177C6.69025 4.09768 6.63219 4.16609 6.61071 4.27189L6.61071 4.82711L6.52838 4.83984C5.84906 4.96075 5.42349 5.42967 5.42349 6.00995C5.42349 6.8062 5.90792 7.12001 6.92611 7.24092C7.60503 7.36143 7.82298 7.5066 7.82298 7.8928C7.82298 8.27859 7.48372 8.54427 7.02315 8.54427C6.39275 8.54427 6.1748 8.27899 6.10202 7.91666C6.07815 7.82041 6.00497 7.77189 5.93219 7.77189H5.52014L5.48872 7.77467C5.4495 7.78101 5.41391 7.80134 5.38853 7.83191C5.36316 7.86248 5.34972 7.90121 5.35071 7.94092L5.35071 7.96478L5.36383 8.03638C5.47917 8.60274 5.86736 9.00802 6.63537 9.12376L6.63537 9.70325L6.63855 9.73825C6.65446 9.817 6.72327 9.87507 6.82946 9.89615H7.19298L7.22798 9.89297C7.30753 9.87706 7.36559 9.80865 7.38707 9.70325L7.38707 9.12336L7.4694 9.10745C8.15071 8.96348 8.59895 8.47069 8.59895 7.84387C8.59895 6.9991 8.08986 6.70956 7.07167 6.58865C6.34423 6.492 6.19906 6.2991 6.19906 5.96103C6.19906 5.62297 6.44167 5.40581 6.92611 5.40581C7.36241 5.40581 7.60503 5.55058 7.72593 5.91291C7.73853 5.94794 7.76157 5.97828 7.79193 5.99983C7.8223 6.02137 7.85853 6.0331 7.89576 6.03342H8.28355L8.31497 6.03103C8.35433 6.02478 8.39007 6.00442 8.41554 5.97376C8.441 5.9431 8.45445 5.90423 8.45338 5.86439L8.45338 5.84052L8.43866 5.77172C8.37895 5.52449 8.24279 5.3024 8.04957 5.13702C7.85634 4.97165 7.61589 4.87141 7.36241 4.85058L7.36241 4.27189L7.35923 4.23689C7.34332 4.15774 7.27491 4.09967 7.16872 4.07859Z" fill="#3E73C4"/>
</g>
<defs>
<clipPath id="clip0_19958_36755">
<rect width="12.7273" height="12.7273" fill="white" transform="translate(0.635254 0.635864)"/>
</clipPath>
</defs>
</svg>
